<svg width="48" height="49" viewBox="0 0 48 49" fill="none" xmlns="http://www.w3.org/2000/svg">
    <path d="M6.34009 15.8774L24.0001 26.0974L41.54 15.9374" stroke="#81C4E0" stroke-width="4" stroke-linecap="round" stroke-linejoin="round"/>
    <path d="M24 44.2174V26.0774" stroke="#81C4E0" stroke-width="4" stroke-linecap="round" stroke-linejoin="round"/>
    <path d="M19.86 5.95756L9.17999 11.8976C6.75999 13.2376 4.78003 16.5976 4.78003 19.3576V30.6576C4.78003 33.4176 6.75999 36.7776 9.17999 38.1176L19.86 44.0577C22.14 45.3177 25.88 45.3177 28.16 44.0577L38.84 38.1176C41.26 36.7776 43.24 33.4176 43.24 30.6576V19.3576C43.24 16.5976 41.26 13.2376 38.84 11.8976L28.16 5.95756C25.86 4.67756 22.14 4.67756 19.86 5.95756Z" stroke="#81C4E0" stroke-width="4" stroke-linecap="round" stroke-linejoin="round"/>
    <path d="M34 27.4775V20.1576L15.02 9.19751" stroke="#81C4E0" stroke-width="4" stroke-linecap="round" stroke-linejoin="round"/>
</svg>
