<svg width="48" height="49" viewBox="0 0 48 49" fill="none" xmlns="http://www.w3.org/2000/svg">
    <path d="M18.6201 30.3979L21.6201 33.398L29.6201 25.3979" stroke="#4BCF99" stroke-width="4" stroke-linecap="round" stroke-linejoin="round"/>
    <path d="M20 12.9976H28C32 12.9976 32 10.9976 32 8.99756C32 4.99756 30 4.99756 28 4.99756H20C18 4.99756 16 4.99756 16 8.99756C16 12.9976 18 12.9976 20 12.9976Z" stroke="#4BCF99" stroke-width="4" stroke-miterlimit="10" stroke-linecap="round" stroke-linejoin="round"/>
    <path d="M32 9.0376C38.66 9.3976 42 11.8576 42 20.9976V32.9976C42 40.9976 40 44.9976 30 44.9976H18C8 44.9976 6 40.9976 6 32.9976V20.9976C6 11.8776 9.34 9.3976 16 9.0376" stroke="#4BCF99" stroke-width="4" stroke-miterlimit="10" stroke-linecap="round" stroke-linejoin="round"/>
</svg>
