<svg width="356" height="356" viewBox="0 0 356 356" fill="none" xmlns="http://www.w3.org/2000/svg">
<circle cx="178" cy="178" r="178" fill="url(#paint0_linear_212_1009)"/>
<mask id="mask0_212_1009" style="mask-type:alpha" maskUnits="userSpaceOnUse" x="0" y="0" width="356" height="356">
<circle cx="178" cy="178" r="178" fill="url(#paint1_linear_212_1009)"/>
</mask>
<g mask="url(#mask0_212_1009)">
<path d="M374.179 79.1407C350.398 160.666 252.002 204.273 153.864 175.646C55.7255 147.019 -3.79349 57.3484 19.9875 -24.177C43.7685 -105.702 142.164 -149.309 240.303 -120.682C338.441 -92.0549 397.96 -2.38471 374.179 79.1407Z" stroke="#E0E5F1" stroke-width="4"/>
<path d="M393.063 98.1719C392.525 101.314 391.894 104.455 391.17 107.592L389.221 107.142C388.513 110.208 387.713 113.272 386.822 116.329C385.93 119.386 384.957 122.398 383.905 125.365L385.79 126.033C384.714 129.068 383.557 132.055 382.322 134.994L380.478 134.218C378.005 140.101 375.214 145.785 372.129 151.259L373.871 152.241C372.295 155.039 370.642 157.783 368.917 160.47L367.234 159.39C363.801 164.736 360.078 169.86 356.088 174.747L357.637 176.012C355.61 178.495 353.515 180.917 351.355 183.278L349.879 181.928C345.604 186.602 341.071 191.03 336.307 195.2L337.625 196.705C335.216 198.814 332.749 200.857 330.226 202.833L328.993 201.259C324.016 205.157 318.823 208.793 313.436 212.152L314.495 213.849C311.781 215.541 309.02 217.164 306.213 218.716L305.245 216.965C299.72 220.02 294.018 222.797 288.164 225.282L288.946 227.123C286.005 228.372 283.025 229.548 280.011 230.65L279.324 228.772C273.4 230.938 267.34 232.813 261.168 234.387L261.662 236.325C258.567 237.114 255.444 237.827 252.296 238.464L251.899 236.504C245.723 237.754 239.45 238.705 233.103 239.346L233.304 241.336C230.128 241.657 226.934 241.901 223.724 242.067L223.621 240.069C217.336 240.394 210.99 240.415 204.606 240.122L204.515 242.119C201.328 241.973 198.133 241.749 194.931 241.447L195.119 239.456C188.864 238.865 182.583 237.97 176.294 236.762L175.917 238.726C172.788 238.125 169.658 237.447 166.528 236.691L166.998 234.747C163.932 234.006 160.867 233.19 157.805 232.297C154.742 231.403 151.719 230.444 148.736 229.42L148.087 231.312C145.041 230.267 142.037 229.155 139.076 227.98L139.814 226.121C133.862 223.759 128.085 221.136 122.494 218.271L121.582 220.051C118.719 218.584 115.904 217.055 113.139 215.465L114.136 213.731C108.596 210.546 103.257 207.117 98.1318 203.464L96.971 205.093C94.3538 203.227 91.7918 201.304 89.2864 199.326L90.5258 197.757C85.5187 193.803 80.7408 189.629 76.2051 185.254L74.8167 186.693C72.5052 184.464 70.2558 182.183 68.0704 179.854L69.5289 178.486C65.1706 173.84 61.0693 169.001 57.2386 163.989L55.6497 165.204C53.7007 162.654 51.821 160.061 50.0123 157.426L51.6611 156.294C48.0618 151.051 44.7469 145.644 41.7306 140.098L39.9736 141.053C38.4415 138.236 36.9855 135.383 35.6074 132.497L37.4122 131.636C34.6767 125.907 32.252 120.05 30.1524 114.087L28.2659 114.751C27.2017 111.729 26.22 108.679 25.3226 105.606L27.2424 105.046C25.4677 98.9682 24.027 92.7975 22.9346 86.5582L20.9646 86.9031C20.4128 83.7515 19.9488 80.5823 19.5746 77.3988L21.5609 77.1653C20.8242 70.8992 20.4391 64.5775 20.4198 58.2242L18.4198 58.2303C18.4102 55.0363 18.4919 51.8343 18.6667 48.6274L20.6637 48.7362C21.0057 42.4622 21.7086 36.1689 22.786 29.8793L20.8147 29.5416C21.3529 26.3998 21.9834 23.2589 22.7079 20.1218L24.6566 20.5718C25.3648 17.5051 26.164 14.4419 27.0558 11.3848C27.9475 8.32773 28.9207 5.31523 29.9723 2.3487L28.0872 1.68043C29.163 -1.35422 30.3201 -4.34151 31.5556 -7.27995L33.3992 -6.5048C35.8724 -12.3872 38.6634 -18.0714 41.7483 -23.5454L40.0059 -24.5273C41.5828 -27.3253 43.2354 -30.069 44.9608 -32.7568L46.6439 -31.6764C50.076 -37.0229 53.7996 -42.1462 57.7897 -47.0334L56.2405 -48.2982C58.2677 -50.7812 60.3628 -53.2039 62.5225 -55.5646L63.9981 -54.2146C68.2737 -58.888 72.8062 -63.3164 77.5702 -67.4866L76.2529 -68.9915C78.6617 -71.1 81.1289 -73.1432 83.6512 -75.1194L84.8846 -73.545C89.861 -77.4439 95.0549 -81.0793 100.441 -84.4384L99.3827 -86.1354C102.096 -87.8276 104.858 -89.4504 107.664 -91.002L108.632 -89.2517C114.157 -92.3066 119.859 -95.0831 125.713 -97.5685L124.931 -99.4095C127.873 -100.658 130.852 -101.835 133.866 -102.937L134.553 -101.058C140.477 -103.224 146.538 -105.1 152.71 -106.673L152.216 -108.611C155.311 -109.4 158.434 -110.114 161.581 -110.751L161.978 -108.791C168.154 -110.04 174.428 -110.992 180.775 -111.633L180.574 -113.623C183.75 -113.943 186.944 -114.187 190.154 -114.353L190.257 -112.356C196.542 -112.68 202.887 -112.701 209.271 -112.408L209.363 -114.406C212.549 -114.26 215.745 -114.036 218.947 -113.733L218.759 -111.742C225.013 -111.151 231.295 -110.257 237.583 -109.049L237.961 -111.013C241.089 -110.412 244.22 -109.734 247.349 -108.978L246.88 -107.033C249.945 -106.293 253.011 -105.476 256.073 -104.583C259.135 -103.69 262.158 -102.73 265.141 -101.706L265.791 -103.598C268.836 -102.553 271.84 -101.442 274.801 -100.266L274.063 -98.4073C280.015 -96.045 285.792 -93.422 291.384 -90.5575L292.296 -92.3374C295.158 -90.8707 297.973 -89.3413 300.738 -87.7517L299.741 -86.0178C305.282 -82.8325 310.621 -79.4031 315.746 -75.7505L316.906 -77.3791C319.524 -75.5138 322.086 -73.5908 324.591 -71.6128L323.352 -70.0431C328.359 -66.0899 333.137 -61.915 337.672 -57.5404L339.061 -58.9799C341.372 -56.7505 343.622 -54.4697 345.807 -52.1404L344.349 -50.772C348.707 -46.1269 352.808 -41.287 356.639 -36.2757L358.228 -37.4903C360.177 -34.9407 362.056 -32.347 363.865 -29.7123L362.216 -28.5804C365.816 -23.3374 369.131 -17.9307 372.147 -12.3843L373.904 -13.3398C375.436 -10.5226 376.892 -7.66956 378.27 -4.78381L376.465 -3.92194C379.201 1.80618 381.625 7.664 383.725 13.6269L385.612 12.9627C386.676 15.985 387.657 19.0342 388.555 22.1072L386.635 22.6678C388.41 28.7454 389.85 34.9161 390.943 41.1554L392.913 40.8105C393.465 43.9621 393.929 47.1313 394.303 50.3148L392.317 50.5483C393.053 56.8143 393.438 63.1361 393.458 69.4894L395.458 69.4833C395.467 72.6773 395.386 75.8792 395.211 79.0862L393.214 78.9773C392.872 85.2514 392.169 91.5447 391.091 97.8343L393.063 98.1719Z" stroke="#E0E5F1" stroke-width="4" stroke-dasharray="20 10"/>
<path d="M372.954 185.178C350.733 261.356 253.901 300.91 155.927 272.33C57.9519 243.751 -2.42677 158.339 19.7945 82.161C42.0158 5.98263 138.847 -33.5708 236.822 -4.99155C334.796 23.5877 395.175 108.999 372.954 185.178Z" stroke="#E0E5F1" stroke-width="4"/>
</g>
<defs>
<linearGradient id="paint0_linear_212_1009" x1="60.2751" y1="56.5079" x2="310.794" y2="291.958" gradientUnits="userSpaceOnUse">
<stop stop-color="#F1F9FA"/>
<stop offset="1" stop-color="#F3FDFB"/>
</linearGradient>
<linearGradient id="paint1_linear_212_1009" x1="60.2751" y1="56.5079" x2="310.794" y2="291.958" gradientUnits="userSpaceOnUse">
<stop stop-color="#E4F3F5"/>
<stop offset="1" stop-color="#EEF7F9"/>
</linearGradient>
</defs>
</svg>
