<svg width="50" height="49" viewBox="0 0 50 49" fill="none" xmlns="http://www.w3.org/2000/svg">
    <path d="M7.21739 15.0082L25 25.2991L42.6618 15.0685" stroke="#24A973" stroke-width="4" stroke-linecap="round" stroke-linejoin="round"/>
    <path d="M25 43.5449V25.2789" stroke="#24A973" stroke-width="4" stroke-linecap="round" stroke-linejoin="round"/>
    <path d="M20.8312 5.01928L10.0771 11.0006C7.64027 12.3499 5.64656 15.7332 5.64656 18.5124V29.8909C5.64656 32.67 7.64027 36.0533 10.0771 37.4026L20.8312 43.384C23.1271 44.6527 26.893 44.6527 29.1889 43.384L39.9431 37.4026C42.3799 36.0533 44.3736 32.67 44.3736 29.8909V18.5124C44.3736 15.7332 42.3799 12.3499 39.9431 11.0006L29.1889 5.01928C26.8729 3.73039 23.1271 3.73039 20.8312 5.01928Z" stroke="#24A973" stroke-width="4" stroke-linecap="round" stroke-linejoin="round"/>
    <path d="M35.0694 26.6886V19.3178L15.9577 8.28162" stroke="#24A973" stroke-width="4" stroke-linecap="round" stroke-linejoin="round"/>
</svg>
