<svg width="52" height="53" viewBox="0 0 52 53" fill="none" xmlns="http://www.w3.org/2000/svg">
    <path d="M28.1528 47.7191H10.9306C6.625 47.7191 4.47222 45.5663 4.47222 41.2608V24.0385C4.47222 19.733 6.625 17.5802 10.9306 17.5802H21.6944V41.2608C21.6944 45.5663 23.8472 47.7191 28.1528 47.7191Z" stroke="#24A973" stroke-width="4" stroke-miterlimit="10" stroke-linecap="round" stroke-linejoin="round"/>
    <path d="M21.9312 8.96912C21.759 9.61495 21.6944 10.3254 21.6944 11.1219V17.5802H10.9306V13.2747C10.9306 10.9066 12.8681 8.96912 15.2361 8.96912H21.9312Z" stroke="#24A973" stroke-width="4" stroke-miterlimit="10" stroke-linecap="round" stroke-linejoin="round"/>
    <path d="M30.3056 17.5802V28.3441" stroke="#24A973" stroke-width="4" stroke-miterlimit="10" stroke-linecap="round" stroke-linejoin="round"/>
    <path d="M38.9167 17.5802V28.3441" stroke="#24A973" stroke-width="4" stroke-miterlimit="10" stroke-linecap="round" stroke-linejoin="round"/>
    <path d="M36.7639 36.9552H32.4583C31.2743 36.9552 30.3056 37.924 30.3056 39.108V47.7191H38.9167V39.108C38.9167 37.924 37.9479 36.9552 36.7639 36.9552Z" stroke="#24A973" stroke-width="4" stroke-miterlimit="10" stroke-linecap="round" stroke-linejoin="round"/>
    <path d="M13.0833 28.3441V36.9552" stroke="#24A973" stroke-width="4" stroke-miterlimit="10" stroke-linecap="round" stroke-linejoin="round"/>
    <path d="M21.6944 41.2608V11.1219C21.6944 6.81635 23.8472 4.66357 28.1528 4.66357H41.0694C45.375 4.66357 47.5278 6.81635 47.5278 11.1219V41.2608C47.5278 45.5663 45.375 47.7191 41.0694 47.7191H28.1528C23.8472 47.7191 21.6944 45.5663 21.6944 41.2608Z" stroke="#24A973" stroke-width="4" stroke-miterlimit="10" stroke-linecap="round" stroke-linejoin="round"/>
</svg>
