<svg width="36" height="35" viewBox="0 0 36 35" fill="none" xmlns="http://www.w3.org/2000/svg">
<path fill-rule="evenodd" clip-rule="evenodd" d="M12.9093 34.9999C19.5869 34.9999 25.0002 29.5866 25.0002 22.909C25.0002 16.2314 19.5869 10.8181 12.9093 10.8181C6.23164 10.8181 0.818359 16.2314 0.818359 22.909C0.818359 29.5866 6.23164 34.9999 12.9093 34.9999ZM12.9092 32.4545C18.181 32.4545 22.4547 28.1809 22.4547 22.9091C22.4547 17.6373 18.181 13.3636 12.9092 13.3636C7.6374 13.3636 3.36376 17.6373 3.36376 22.9091C3.36376 28.1809 7.6374 32.4545 12.9092 32.4545Z" fill="#54DBA4"/>
<path fill-rule="evenodd" clip-rule="evenodd" d="M23.0911 24.1818C29.7687 24.1818 35.182 18.7685 35.182 12.0909C35.182 5.41328 29.7687 0 23.0911 0C16.4135 0 11.0002 5.41328 11.0002 12.0909C11.0002 18.7685 16.4135 24.1818 23.0911 24.1818ZM23.0911 21.6364C28.3629 21.6364 32.6365 17.3627 32.6365 12.0909C32.6365 6.8191 28.3629 2.54545 23.0911 2.54545C17.8193 2.54545 13.5456 6.8191 13.5456 12.0909C13.5456 17.3627 17.8193 21.6364 23.0911 21.6364Z" fill="#54DBA4"/>
</svg>
