<svg width="437" height="357" viewBox="0 0 437 357" fill="none" xmlns="http://www.w3.org/2000/svg">
<g opacity="0.9" filter="url(#filter0_f_212_1054)">
<path fill-rule="evenodd" clip-rule="evenodd" d="M259.212 75.329L372.901 71.2977C385.596 70.8475 396.252 80.7736 396.702 93.4682L402.983 270.611C403.433 283.305 393.507 293.961 380.813 294.412L61.75 305.725C49.0555 306.175 38.3996 296.249 37.9495 283.555L31.6681 106.412C31.218 93.7174 41.1441 83.0615 53.8386 82.6113L164.154 78.6997C164.966 53.8633 184.905 33.5577 210.11 32.6639C235.316 31.7702 256.643 50.6125 259.212 75.329Z" fill="#F8F8F8"/>
</g>
<g opacity="0.5" filter="url(#filter1_b_212_1054)">
<path fill-rule="evenodd" clip-rule="evenodd" d="M258.902 72.9338L372.822 68.8943C385.516 68.4442 396.172 78.3703 396.622 91.0648L402.84 266.401C403.29 279.096 393.364 289.752 380.669 290.202L61.6064 301.515C48.9119 301.966 38.256 292.039 37.8059 279.345L31.5886 104.009C31.1384 91.3141 41.0645 80.6582 53.7591 80.208L164.294 76.2885C166.27 52.562 185.726 33.5293 210.111 32.6647C234.495 31.8001 255.25 49.4068 258.902 72.9338Z" fill="#F8F8F8"/>
</g>
<path d="M184.037 168.439C183.129 168.475 182.272 168.416 181.468 168.262C180.664 168.108 179.957 167.849 179.348 167.483C178.74 167.117 178.252 166.64 177.885 166.051C177.518 165.463 177.318 164.746 177.285 163.903C177.259 163.264 177.351 162.657 177.56 162.082C177.779 161.498 178.068 160.953 178.428 160.446C178.798 159.93 179.215 159.459 179.681 159.032C180.156 158.595 180.632 158.205 181.11 157.861C181.598 157.517 182.064 157.225 182.51 156.984C182.964 156.743 183.361 156.556 183.699 156.422C183.685 156.311 183.671 156.2 183.658 156.089C183.644 155.969 183.629 155.826 183.613 155.659C183.597 155.493 183.575 155.299 183.548 155.077C183.521 154.855 183.487 154.583 183.446 154.26L187.746 153.156C188.01 154.89 188.259 156.473 188.492 157.902C188.725 159.332 188.927 160.563 189.098 161.596C189.278 162.628 189.422 163.439 189.529 164.029C189.645 164.619 189.713 164.932 189.733 164.968C189.884 165.259 190.096 165.459 190.37 165.569C190.652 165.669 191.03 165.71 191.503 165.691L191.808 165.679L191.983 170.072L191.58 170.088C191.191 170.104 190.74 170.084 190.227 170.031C189.715 169.986 189.175 169.845 188.609 169.608C188.212 169.438 187.861 169.243 187.555 169.023C187.258 168.793 186.968 168.503 186.685 168.152C186.215 168.236 185.758 168.301 185.314 168.346C184.88 168.391 184.454 168.422 184.037 168.439ZM183.78 164.077C183.975 164.069 184.174 164.056 184.377 164.039C184.59 164.012 184.793 163.985 184.987 163.959C184.953 163.803 184.918 163.632 184.883 163.448C184.857 163.254 184.82 163.023 184.772 162.756C184.733 162.479 184.683 162.152 184.622 161.774C184.56 161.395 184.491 160.934 184.413 160.389C184.068 160.58 183.683 160.808 183.257 161.076C182.831 161.334 182.429 161.61 182.051 161.904C181.681 162.187 181.373 162.478 181.125 162.776C180.876 163.064 180.757 163.329 180.766 163.57C180.771 163.69 180.877 163.788 181.084 163.863C181.3 163.929 181.563 163.984 181.871 164.027C182.178 164.061 182.504 164.081 182.848 164.086C183.191 164.091 183.502 164.088 183.78 164.077ZM191.243 165.702L194.065 165.589C194.742 165.563 195.454 165.488 196.201 165.365C196.957 165.243 197.726 165.087 198.508 164.898C199.289 164.709 200.074 164.492 200.863 164.247C201.651 163.993 202.415 163.726 203.156 163.446C203.906 163.166 204.619 162.873 205.293 162.567C205.978 162.262 206.606 161.958 207.179 161.657C206.599 161.541 205.951 161.372 205.237 161.149C204.523 160.927 203.799 160.71 203.067 160.498C202.334 160.285 201.622 160.11 200.93 159.97C200.246 159.821 199.636 159.761 199.098 159.792C198.756 159.815 198.425 159.902 198.106 160.054C197.796 160.197 197.506 160.375 197.236 160.59C196.975 160.795 196.738 161.018 196.525 161.259C196.321 161.49 196.144 161.71 195.994 161.92C195.845 162.121 195.726 162.293 195.639 162.436L195.522 162.635L192.152 160.876C192.495 160.175 192.914 159.499 193.408 158.849C193.901 158.188 194.444 157.605 195.037 157.099C195.629 156.583 196.253 156.169 196.909 155.855C197.574 155.541 198.245 155.375 198.922 155.357C199.423 155.347 199.921 155.387 200.417 155.479C200.922 155.57 201.428 155.694 201.935 155.85C202.443 155.997 202.956 156.176 203.475 156.388C203.993 156.59 204.517 156.801 205.045 157.022C205.584 157.26 206.178 157.492 206.827 157.717C207.486 157.941 208.167 158.137 208.87 158.304C209.582 158.47 210.302 158.6 211.029 158.691C211.766 158.783 212.482 158.815 213.177 158.787L212.617 162.917C212.408 163.018 212.171 163.139 211.908 163.279C211.653 163.41 211.426 163.531 211.226 163.641L210.872 163.836C211.095 164.077 211.371 164.266 211.702 164.401C212.041 164.536 212.384 164.634 212.73 164.695C213.085 164.746 213.42 164.774 213.736 164.78C214.052 164.786 214.307 164.785 214.502 164.778L214.974 164.759L215.149 169.152L214.676 169.171C213.786 169.206 212.944 169.161 212.15 169.034C211.366 168.908 210.643 168.709 209.982 168.438C209.331 168.158 208.746 167.814 208.229 167.408C207.711 166.992 207.279 166.517 206.933 165.983C206.033 166.465 205.096 166.934 204.121 167.39C203.145 167.846 202.132 168.263 201.079 168.639C200.026 169.005 198.929 169.309 197.787 169.549C196.655 169.789 195.473 169.934 194.24 169.983L191.418 170.095L191.243 165.702ZM202.15 174.221L204.66 171.504L207.464 174.08L204.901 176.869L202.155 174.333L199.645 177.05L196.841 174.474L199.404 171.685L202.15 174.221ZM199.823 178.38L202.199 175.807L204.787 178.196L202.41 180.769L199.823 178.38ZM214.413 164.781L217.235 164.669C217.911 164.642 218.623 164.567 219.37 164.445C220.126 164.322 220.895 164.166 221.677 163.977C222.458 163.788 223.243 163.572 224.032 163.327C224.82 163.073 225.585 162.806 226.325 162.526C227.075 162.245 227.788 161.952 228.463 161.647C229.147 161.341 229.775 161.038 230.348 160.737C229.768 160.62 229.121 160.451 228.406 160.229C227.692 160.007 226.969 159.789 226.236 159.577C225.504 159.365 224.791 159.189 224.099 159.049C223.415 158.9 222.805 158.841 222.268 158.872C221.925 158.894 221.594 158.982 221.276 159.134C220.966 159.276 220.676 159.455 220.406 159.67C220.145 159.875 219.907 160.098 219.694 160.338C219.49 160.569 219.313 160.79 219.164 161C219.014 161.201 218.895 161.373 218.808 161.515L218.691 161.715L215.321 159.955C215.664 159.255 216.083 158.579 216.577 157.928C217.071 157.268 217.614 156.685 218.206 156.178C218.798 155.663 219.422 155.248 220.078 154.934C220.743 154.62 221.414 154.454 222.091 154.437C222.592 154.426 223.091 154.467 223.586 154.558C224.091 154.65 224.597 154.774 225.105 154.93C225.612 155.077 226.125 155.256 226.644 155.467C227.162 155.669 227.686 155.881 228.215 156.101C228.753 156.34 229.347 156.571 229.997 156.796C230.655 157.021 231.336 157.216 232.039 157.383C232.751 157.55 233.471 157.679 234.199 157.771C234.936 157.862 235.652 157.894 236.347 157.867L235.787 161.996C235.577 162.098 235.341 162.218 235.077 162.359C234.822 162.49 234.595 162.61 234.395 162.72L234.041 162.915C234.264 163.157 234.541 163.346 234.871 163.481C235.211 163.616 235.553 163.714 235.899 163.774C236.254 163.825 236.589 163.854 236.905 163.86C237.221 163.866 237.476 163.865 237.671 163.857L238.143 163.838L238.318 168.231L237.845 168.25C236.956 168.285 236.114 168.24 235.32 168.114C234.535 167.987 233.812 167.788 233.152 167.518C232.5 167.237 231.915 166.894 231.398 166.487C230.88 166.072 230.448 165.597 230.102 165.063C229.202 165.544 228.265 166.013 227.29 166.469C226.315 166.926 225.301 167.342 224.248 167.718C223.195 168.085 222.098 168.388 220.957 168.629C219.824 168.869 218.642 169.013 217.409 169.062L214.587 169.174L214.413 164.781ZM221.842 153.068L218.633 150.105L221.597 146.896L224.806 149.859L221.842 153.068ZM237.582 163.861L240.918 163.728C241.317 163.712 241.756 163.676 242.237 163.62C242.717 163.554 243.163 163.449 243.575 163.302C243.996 163.156 244.341 162.952 244.609 162.69C244.886 162.419 245.016 162.075 244.999 161.658C244.99 161.436 244.908 161.11 244.752 160.68C244.604 160.24 244.409 159.756 244.165 159.227C243.93 158.689 243.662 158.128 243.36 157.546C243.068 156.964 242.776 156.409 242.486 155.882L246.384 153.75C246.667 154.324 246.946 154.935 247.222 155.583C247.508 156.23 247.766 156.888 247.997 157.557C248.228 158.225 248.417 158.895 248.564 159.567C248.721 160.229 248.811 160.866 248.835 161.478C248.881 162.627 248.707 163.614 248.312 164.437C247.927 165.25 247.383 165.926 246.68 166.465C245.977 166.994 245.143 167.389 244.179 167.65C243.215 167.921 242.177 168.078 241.065 168.122L237.756 168.254L237.582 163.861ZM243.34 172.112L240.83 174.829L238.027 172.253L240.589 169.464L243.336 172L245.845 169.283L248.649 171.859L246.086 174.648L243.34 172.112ZM259.223 157.194C259.441 157.761 259.67 158.383 259.91 159.061C260.159 159.729 260.386 160.416 260.591 161.122C260.804 161.829 260.986 162.536 261.135 163.245C261.283 163.945 261.37 164.605 261.394 165.226C261.429 166.097 261.342 166.95 261.134 167.784C260.935 168.628 260.634 169.447 260.229 170.243C259.834 171.038 259.354 171.805 258.789 172.542C258.224 173.279 257.593 173.977 256.895 174.636C256.197 175.304 255.447 175.924 254.643 176.494C253.84 177.074 253.007 177.599 252.144 178.069L249.474 174.653C250.128 174.292 250.789 173.886 251.458 173.432C252.118 172.988 252.749 172.513 253.351 172.006C253.962 171.499 254.526 170.971 255.043 170.421C255.568 169.871 256.02 169.315 256.396 168.752C256.783 168.189 257.08 167.62 257.289 167.046C257.499 166.481 257.593 165.929 257.572 165.392C257.556 165.002 257.484 164.583 257.355 164.133C257.235 163.683 257.072 163.202 256.866 162.691C256.659 162.17 256.42 161.622 256.146 161.048C255.882 160.465 255.592 159.845 255.279 159.189L259.223 157.194ZM270.61 166.948C269.452 166.994 268.463 166.876 267.644 166.593C266.826 166.319 266.151 165.919 265.619 165.392C265.088 164.866 264.692 164.236 264.43 163.504C264.178 162.762 264.035 161.956 264 161.084C263.982 160.64 263.97 160.088 263.962 159.429C263.954 158.761 263.933 157.991 263.898 157.12C263.864 156.249 263.821 155.294 263.771 154.257C263.72 153.21 263.65 152.164 263.562 151.118C263.484 150.072 263.384 149.069 263.262 148.109C263.149 147.148 263.01 146.313 262.842 145.605L266.949 144.175C267.093 144.782 267.219 145.501 267.327 146.332C267.443 147.154 267.542 148.018 267.625 148.924C267.707 149.83 267.776 150.742 267.831 151.659C267.895 152.575 267.947 153.427 267.988 154.215C268.025 154.909 268.04 155.642 268.034 156.413C268.036 157.174 268.042 157.907 268.051 158.612C268.06 159.308 268.09 159.938 268.14 160.502C268.2 161.066 268.305 161.494 268.456 161.785C268.548 161.994 268.656 162.153 268.781 162.259C268.915 162.365 269.067 162.443 269.236 162.492C269.405 162.541 269.587 162.566 269.782 162.567C269.986 162.568 270.209 162.564 270.45 162.555L270.825 162.54L271 166.933L270.61 166.948ZM270.275 162.562L273.611 162.429C274.01 162.413 274.449 162.377 274.93 162.321C275.41 162.256 275.856 162.15 276.268 162.003C276.689 161.857 277.034 161.653 277.302 161.391C277.579 161.12 277.709 160.776 277.692 160.359C277.683 160.137 277.601 159.811 277.445 159.381C277.297 158.941 277.102 158.457 276.858 157.928C276.623 157.39 276.355 156.829 276.053 156.247C275.761 155.665 275.469 155.11 275.179 154.583L279.077 152.451C279.36 153.025 279.639 153.636 279.915 154.284C280.201 154.931 280.459 155.59 280.69 156.258C280.921 156.926 281.11 157.597 281.257 158.268C281.414 158.931 281.504 159.567 281.528 160.179C281.574 161.328 281.4 162.315 281.005 163.138C280.62 163.951 280.076 164.628 279.373 165.166C278.67 165.695 277.836 166.09 276.872 166.351C275.908 166.622 274.87 166.779 273.758 166.823L270.449 166.955L270.275 162.562ZM276.184 147.971L273.674 150.689L270.87 148.113L273.433 145.324L276.179 147.86L278.689 145.143L281.493 147.719L278.93 150.508L276.184 147.971Z" fill="#26292B"/>
<path d="M115 222.663C114.879 222.668 114.751 222.724 114.617 222.832C114.482 222.939 114.359 223.076 114.25 223.243C114.14 223.405 114.05 223.585 113.979 223.783C113.913 223.98 113.883 224.172 113.89 224.357C113.898 224.552 113.949 224.712 114.042 224.839C114.139 224.96 114.259 225.057 114.402 225.131C114.548 225.204 114.711 225.258 114.888 225.292C115.071 225.322 115.25 225.343 115.427 225.354C115.524 225.355 115.631 225.356 115.747 225.356C115.863 225.356 115.982 225.356 116.102 225.355C116.227 225.35 116.35 225.348 116.471 225.348C116.591 225.343 116.705 225.338 116.812 225.334C116.791 225.163 116.749 224.979 116.685 224.782C116.626 224.58 116.551 224.379 116.459 224.179C116.368 223.978 116.265 223.787 116.151 223.606C116.037 223.42 115.914 223.258 115.784 223.119C115.657 222.976 115.527 222.863 115.394 222.78C115.261 222.697 115.129 222.658 115 222.663ZM112.148 230.435C112.824 230.273 113.43 230.068 113.968 229.819C114.511 229.575 114.978 229.306 115.37 229.012C115.762 228.718 116.077 228.408 116.315 228.083C116.557 227.758 116.714 227.436 116.785 227.118C116.41 227.132 116.043 227.135 115.685 227.126C115.328 227.117 114.987 227.085 114.665 227.028C114.347 226.975 114.052 226.894 113.778 226.784C113.509 226.67 113.273 226.517 113.071 226.325C112.872 226.129 112.714 225.889 112.596 225.606C112.478 225.323 112.411 224.982 112.396 224.584C112.385 224.329 112.403 224.061 112.447 223.781C112.492 223.501 112.56 223.227 112.651 222.958C112.747 222.685 112.867 222.428 113.01 222.185C113.154 221.938 113.322 221.72 113.514 221.532C113.705 221.338 113.92 221.184 114.157 221.068C114.393 220.951 114.651 220.888 114.929 220.877C115.647 220.848 116.315 221.142 116.934 221.758C117.157 221.986 117.357 222.247 117.536 222.542C117.719 222.831 117.876 223.145 118.005 223.484C118.139 223.817 118.243 224.168 118.318 224.536C118.398 224.905 118.445 225.279 118.46 225.659C118.484 226.252 118.43 226.809 118.297 227.329C118.169 227.854 117.978 228.34 117.721 228.786C117.47 229.232 117.163 229.637 116.802 229.999C116.441 230.366 116.04 230.691 115.601 230.973C115.162 231.255 114.691 231.494 114.189 231.69C113.686 231.891 113.168 232.046 112.634 232.156L112.148 230.435ZM130.822 226.56C130.321 226.575 129.813 226.574 129.297 226.558C128.781 226.541 128.283 226.496 127.802 226.422C127.321 226.344 126.866 226.232 126.438 226.087C126.01 225.937 125.635 225.736 125.314 225.484C124.993 225.232 124.735 224.922 124.539 224.554C124.343 224.181 124.235 223.737 124.215 223.223C124.205 222.968 124.223 222.724 124.269 222.49C124.315 222.251 124.378 222.019 124.457 221.793C124.536 221.567 124.628 221.348 124.73 221.135C124.833 220.917 124.936 220.702 125.039 220.489L126.375 221.522C126.3 221.632 126.216 221.781 126.121 221.971C126.031 222.16 125.951 222.36 125.881 222.572C125.815 222.783 125.772 222.987 125.752 223.183C125.745 223.248 125.743 223.311 125.745 223.371C125.75 223.487 125.775 223.588 125.82 223.674C125.93 223.879 126.13 224.057 126.419 224.208C126.713 224.354 127.075 224.474 127.505 224.568C127.941 224.658 128.433 224.719 128.982 224.753C129.535 224.787 130.125 224.791 130.751 224.766C131.098 224.753 131.489 224.726 131.924 224.685C132.363 224.644 132.813 224.582 133.274 224.499C133.74 224.416 134.195 224.309 134.64 224.18C135.09 224.046 135.498 223.879 135.866 223.679C135.8 223.413 135.713 223.156 135.606 222.91C135.503 222.663 135.387 222.422 135.257 222.186C135.127 221.949 134.99 221.718 134.846 221.492C134.703 221.261 134.557 221.03 134.408 220.799L135.857 219.774C135.871 219.773 135.916 219.841 135.991 219.977C136.07 220.109 136.165 220.284 136.276 220.502C136.392 220.72 136.513 220.968 136.64 221.246C136.767 221.525 136.885 221.805 136.994 222.089C137.102 222.372 137.194 222.647 137.27 222.913C137.345 223.175 137.387 223.403 137.395 223.597C137.406 223.871 137.346 224.122 137.216 224.35C137.086 224.577 136.904 224.787 136.67 224.977C136.436 225.167 136.162 225.338 135.848 225.49C135.533 225.637 135.197 225.769 134.84 225.885C134.487 225.997 134.122 226.095 133.745 226.179C133.372 226.264 133.008 226.331 132.653 226.383C132.298 226.439 131.963 226.48 131.648 226.506C131.399 226.53 131.172 226.546 130.968 226.554C130.917 226.556 130.868 226.558 130.822 226.56ZM130.534 219.498L129.4 220.727L128.157 219.585L129.291 218.35L130.534 219.498ZM133.162 219.4L132.028 220.636L130.785 219.488L131.919 218.259L133.162 219.4ZM142.378 226.101L142.1 226.112C141.159 226.149 140.436 225.941 139.931 225.488C139.426 225.034 139.152 224.331 139.109 223.376C139.103 223.228 139.098 222.984 139.094 222.646C139.09 222.302 139.078 221.885 139.058 221.394C139.047 221.102 139.032 220.789 139.014 220.456C138.996 220.118 138.975 219.775 138.952 219.428C138.929 219.076 138.901 218.727 138.869 218.38C138.841 218.028 138.809 217.691 138.773 217.367C138.737 217.039 138.697 216.735 138.653 216.453C138.609 216.167 138.562 215.916 138.512 215.7L140.236 215.109C140.297 215.376 140.357 215.703 140.414 216.091C140.471 216.474 140.524 216.885 140.574 217.324C140.624 217.763 140.665 218.211 140.697 218.669C140.734 219.123 140.76 219.551 140.776 219.954C140.786 220.2 140.799 220.462 140.814 220.739C140.83 221.013 140.842 221.254 140.85 221.462C140.857 221.638 140.861 221.805 140.863 221.963C140.869 222.116 140.873 222.264 140.874 222.408C140.879 222.552 140.883 222.693 140.884 222.832C140.889 222.971 140.895 223.113 140.9 223.256C140.902 223.293 140.903 223.33 140.905 223.367C140.911 223.534 140.934 223.682 140.971 223.81C141.013 223.939 141.08 224.045 141.172 224.13C141.263 224.21 141.377 224.265 141.513 224.297C141.653 224.329 141.814 224.341 141.995 224.334L142.307 224.321L142.378 226.101ZM142.31 224.321C142.565 224.311 142.79 224.246 142.985 224.127C143.184 224.008 143.357 223.853 143.502 223.661C143.653 223.47 143.781 223.253 143.887 223.012C143.998 222.771 144.093 222.524 144.171 222.27C144.249 222.016 144.316 221.768 144.371 221.524C144.426 221.276 144.476 221.053 144.519 220.857L146.272 221.17C146.235 221.302 146.186 221.471 146.125 221.677C146.063 221.879 146.004 222.095 145.949 222.325C145.897 222.55 145.855 222.776 145.822 223.005C145.797 223.178 145.787 223.338 145.793 223.487C145.795 223.533 145.803 223.614 145.816 223.729C145.83 223.845 145.881 223.959 145.969 224.071C146.062 224.179 146.205 224.229 146.4 224.221C146.608 224.213 146.794 224.148 146.956 224.025C147.118 223.898 147.26 223.737 147.382 223.542C147.509 223.342 147.616 223.117 147.704 222.868C147.796 222.618 147.872 222.364 147.931 222.107C147.995 221.844 148.045 221.589 148.082 221.342C148.123 221.094 148.154 220.873 148.174 220.677L149.813 220.925C149.803 221.037 149.787 221.17 149.766 221.324C149.749 221.478 149.73 221.645 149.709 221.827C149.688 222.004 149.668 222.191 149.648 222.387C149.632 222.582 149.622 222.778 149.615 222.973C149.617 223.01 149.618 223.047 149.62 223.084C149.624 223.195 149.64 223.311 149.668 223.43C149.696 223.545 149.749 223.654 149.828 223.758C149.906 223.857 150.006 223.936 150.13 223.997C150.252 224.052 150.402 224.079 150.578 224.076C150.907 224.063 151.173 223.969 151.375 223.794C151.577 223.619 151.671 223.36 151.657 223.017C151.647 222.767 151.602 222.497 151.521 222.208C151.444 221.918 151.352 221.637 151.243 221.362C151.14 221.088 151.029 220.83 150.913 220.589C150.797 220.347 150.696 220.147 150.611 219.988L152.072 219.095C152.102 219.145 152.15 219.236 152.215 219.368C152.285 219.499 152.364 219.663 152.451 219.859C152.542 220.051 152.634 220.268 152.727 220.51C152.82 220.752 152.907 221.009 152.987 221.279C153.072 221.545 153.141 221.818 153.194 222.099C153.252 222.38 153.286 222.657 153.297 222.931C153.314 223.362 153.262 223.754 153.142 224.107C153.026 224.459 152.843 224.764 152.593 225.02C152.348 225.275 152.04 225.476 151.67 225.62C151.314 225.764 150.902 225.846 150.434 225.864C150.42 225.865 150.403 225.865 150.385 225.866C150.366 225.867 150.35 225.868 150.336 225.868C150.118 225.877 149.918 225.855 149.735 225.801C149.552 225.753 149.382 225.681 149.225 225.585C149.072 225.484 148.933 225.369 148.807 225.24C148.686 225.11 148.577 224.977 148.478 224.842C148.378 224.999 148.268 225.147 148.148 225.287C148.028 225.421 147.886 225.541 147.724 225.645C147.565 225.748 147.383 225.832 147.177 225.896C146.975 225.965 146.74 226.006 146.471 226.022C146.458 226.022 146.441 226.023 146.423 226.024C146.214 226.032 146.018 226.012 145.836 225.963C145.657 225.915 145.49 225.845 145.333 225.754C145.181 225.658 145.039 225.545 144.909 225.415C144.783 225.286 144.666 225.149 144.558 225.005C144.475 225.138 144.374 225.267 144.253 225.393C144.138 225.518 143.991 225.633 143.815 225.737C143.642 225.837 143.437 225.919 143.198 225.985C142.959 226.05 142.677 226.089 142.353 226.102L142.103 226.112L142.032 224.332L142.31 224.321ZM148.163 217.44L147.029 218.669L145.786 217.527L146.92 216.292L148.163 217.44ZM150.791 217.342L149.657 218.578L148.414 217.43L149.548 216.201L150.791 217.342ZM147.124 215.469L148.166 214.342L149.3 215.39L148.259 216.517L147.124 215.469ZM157.445 220.872C157.549 221.161 157.657 221.463 157.767 221.779C157.881 222.09 157.984 222.406 158.076 222.727C158.172 223.048 158.252 223.37 158.316 223.692C158.38 224.01 158.418 224.322 158.43 224.628C158.446 225.045 158.398 225.453 158.283 225.852C158.174 226.255 158.013 226.645 157.801 227.02C157.593 227.399 157.341 227.762 157.043 228.108C156.751 228.454 156.43 228.782 156.08 229.093C155.73 229.404 155.359 229.695 154.966 229.966C154.573 230.237 154.174 230.482 153.77 230.703L152.914 229.142C153.237 228.967 153.554 228.773 153.866 228.561C154.178 228.354 154.473 228.133 154.752 227.9C155.035 227.666 155.294 227.421 155.53 227.166C155.77 226.91 155.974 226.647 156.139 226.376C156.309 226.104 156.44 225.827 156.531 225.545C156.622 225.263 156.662 224.981 156.65 224.698C156.64 224.434 156.599 224.157 156.527 223.868C156.455 223.578 156.369 223.294 156.27 223.015C156.175 222.731 156.076 222.458 155.973 222.198C155.875 221.937 155.791 221.706 155.723 221.505L157.445 220.872ZM163.377 225.266L163.099 225.277C162.158 225.315 161.435 225.107 160.93 224.654C160.425 224.2 160.151 223.496 160.108 222.542C160.102 222.394 160.097 222.15 160.093 221.811C160.089 221.468 160.077 221.051 160.057 220.56C160.046 220.268 160.031 219.955 160.013 219.622C159.995 219.284 159.974 218.941 159.951 218.594C159.928 218.242 159.9 217.893 159.868 217.546C159.84 217.194 159.808 216.857 159.772 216.533C159.736 216.205 159.696 215.9 159.652 215.619C159.608 215.333 159.561 215.082 159.511 214.866L161.235 214.275C161.296 214.542 161.356 214.869 161.413 215.257C161.47 215.639 161.523 216.05 161.573 216.489C161.623 216.928 161.664 217.377 161.696 217.835C161.733 218.289 161.759 218.717 161.775 219.12C161.785 219.366 161.798 219.627 161.813 219.905C161.829 220.178 161.841 220.419 161.849 220.628C161.856 220.804 161.86 220.971 161.862 221.129C161.868 221.281 161.872 221.43 161.873 221.574C161.878 221.717 161.882 221.859 161.883 221.998C161.888 222.137 161.894 222.278 161.9 222.422C161.901 222.459 161.902 222.496 161.904 222.533C161.911 222.7 161.933 222.848 161.97 222.976C162.012 223.104 162.079 223.211 162.171 223.295C162.262 223.375 162.376 223.431 162.512 223.463C162.652 223.494 162.813 223.507 162.994 223.499L163.306 223.487L163.377 225.266ZM163.031 223.498L163.17 223.492C163.471 223.48 163.77 223.469 164.067 223.457C164.368 223.445 164.623 223.423 164.83 223.392C164.735 223.335 164.63 223.253 164.514 223.147C164.398 223.035 164.289 222.905 164.185 222.756C164.086 222.602 163.998 222.429 163.921 222.237C163.848 222.041 163.805 221.824 163.791 221.588C163.784 221.528 163.779 221.468 163.777 221.408C163.769 221.218 163.786 221.006 163.828 220.772C163.874 220.533 163.953 220.289 164.063 220.039C164.179 219.788 164.32 219.553 164.488 219.332C164.655 219.108 164.842 218.912 165.049 218.746C165.256 218.576 165.481 218.441 165.723 218.344C165.937 218.256 166.16 218.208 166.392 218.199C166.42 218.197 166.445 218.196 166.469 218.196C166.845 218.195 167.196 218.278 167.523 218.446C167.854 218.609 168.144 218.827 168.391 219.101C168.639 219.374 168.837 219.689 168.986 220.045C169.134 220.396 169.216 220.76 169.231 221.135C169.245 221.497 169.192 221.849 169.071 222.193C168.955 222.532 168.798 222.851 168.601 223.151C168.825 223.18 169.067 223.2 169.327 223.213C169.593 223.226 169.843 223.227 170.08 223.218L170.267 223.21L170.338 224.99L170.199 224.995C169.842 225.01 169.497 225.016 169.162 225.016C168.833 225.019 168.522 225.006 168.228 224.976C167.934 224.946 167.659 224.899 167.401 224.835C167.147 224.766 166.921 224.668 166.721 224.542C166.586 224.649 166.39 224.745 166.133 224.83C165.882 224.914 165.597 224.986 165.279 225.045C164.961 225.108 164.624 225.159 164.268 225.196C163.917 225.233 163.575 225.259 163.241 225.272L163.102 225.277L163.031 223.498ZM166.518 219.955C166.398 219.983 166.261 220.037 166.106 220.117C165.956 220.193 165.814 220.299 165.68 220.434C165.551 220.564 165.441 220.724 165.351 220.913C165.266 221.102 165.228 221.324 165.239 221.579C165.242 221.663 165.286 221.77 165.37 221.901C165.454 222.028 165.563 222.156 165.698 222.285C165.833 222.41 165.986 222.526 166.158 222.636C166.329 222.74 166.504 222.812 166.681 222.852C166.818 222.777 166.949 222.681 167.074 222.564C167.204 222.448 167.317 222.323 167.414 222.189C167.511 222.051 167.586 221.911 167.641 221.769C167.7 221.623 167.727 221.485 167.722 221.355C167.715 221.174 167.669 221.005 167.583 220.846C167.503 220.682 167.402 220.537 167.281 220.412C167.16 220.287 167.03 220.185 166.893 220.107C166.759 220.024 166.634 219.974 166.518 219.955ZM167.627 215.629L166.345 217.017L164.965 215.735L166.239 214.355L167.627 215.629ZM170.273 223.21C170.527 223.2 170.752 223.135 170.947 223.016C171.147 222.897 171.319 222.742 171.465 222.55C171.615 222.359 171.743 222.142 171.85 221.901C171.961 221.66 172.055 221.413 172.133 221.159C172.212 220.905 172.278 220.657 172.334 220.413C172.389 220.165 172.438 219.943 172.481 219.746L174.234 220.059C174.197 220.191 174.148 220.36 174.087 220.566C174.025 220.768 173.967 220.984 173.911 221.214C173.859 221.439 173.817 221.665 173.785 221.894C173.759 222.067 173.749 222.227 173.755 222.376C173.757 222.422 173.765 222.503 173.779 222.618C173.793 222.734 173.844 222.848 173.932 222.96C174.024 223.068 174.168 223.118 174.362 223.11C174.571 223.102 174.756 223.037 174.918 222.914C175.08 222.787 175.222 222.626 175.345 222.431C175.471 222.231 175.578 222.006 175.666 221.757C175.758 221.507 175.834 221.253 175.893 220.996C175.957 220.733 176.007 220.478 176.044 220.231C176.085 219.983 176.116 219.762 176.136 219.566L177.775 219.814C177.765 219.926 177.75 220.059 177.728 220.213C177.711 220.367 177.692 220.534 177.672 220.716C177.651 220.893 177.63 221.08 177.61 221.276C177.595 221.471 177.584 221.667 177.578 221.862C177.579 221.899 177.581 221.936 177.582 221.973C177.587 222.084 177.603 222.2 177.631 222.319C177.659 222.434 177.712 222.543 177.79 222.647C177.868 222.746 177.969 222.826 178.092 222.886C178.215 222.941 178.364 222.968 178.541 222.965C178.87 222.952 179.135 222.858 179.337 222.683C179.539 222.508 179.633 222.249 179.619 221.906C179.609 221.656 179.564 221.386 179.483 221.097C179.406 220.807 179.314 220.526 179.206 220.251C179.102 219.977 178.992 219.719 178.875 219.478C178.759 219.237 178.658 219.036 178.573 218.877L180.034 217.984C180.064 218.034 180.112 218.125 180.178 218.257C180.248 218.388 180.326 218.552 180.413 218.748C180.504 218.94 180.596 219.157 180.689 219.399C180.783 219.641 180.869 219.898 180.95 220.168C181.035 220.434 181.103 220.708 181.156 220.989C181.214 221.269 181.248 221.546 181.259 221.82C181.276 222.251 181.224 222.643 181.104 222.996C180.988 223.348 180.805 223.653 180.555 223.909C180.31 224.164 180.003 224.365 179.632 224.509C179.276 224.653 178.864 224.735 178.396 224.753C178.382 224.754 178.366 224.754 178.347 224.755C178.329 224.756 178.312 224.757 178.299 224.757C178.081 224.766 177.88 224.744 177.697 224.691C177.514 224.642 177.344 224.57 177.187 224.474C177.035 224.373 176.896 224.258 176.77 224.129C176.649 223.999 176.539 223.866 176.441 223.731C176.34 223.888 176.23 224.036 176.11 224.176C175.99 224.31 175.849 224.43 175.686 224.534C175.528 224.637 175.345 224.721 175.139 224.785C174.937 224.854 174.702 224.895 174.434 224.911C174.42 224.911 174.404 224.912 174.385 224.913C174.177 224.921 173.981 224.901 173.798 224.852C173.62 224.804 173.452 224.734 173.295 224.643C173.143 224.547 173.001 224.434 172.871 224.304C172.745 224.175 172.628 224.038 172.521 223.894C172.438 224.027 172.336 224.156 172.216 224.282C172.1 224.407 171.954 224.522 171.777 224.626C171.604 224.726 171.399 224.808 171.16 224.874C170.921 224.939 170.64 224.978 170.315 224.991L170.065 225.001L169.994 223.221L170.273 223.21ZM189.223 221.831C188.966 222.249 188.782 222.702 188.672 223.189C188.561 223.676 188.515 224.159 188.534 224.636C188.549 225.016 188.651 225.351 188.839 225.64C189.027 225.934 189.261 226.178 189.543 226.371C189.825 226.569 190.134 226.714 190.472 226.808C190.81 226.906 191.137 226.948 191.452 226.936C191.772 226.923 192.101 226.854 192.439 226.729C192.783 226.609 193.093 226.425 193.371 226.177C193.649 225.934 193.874 225.624 194.044 225.245C194.215 224.872 194.29 224.423 194.269 223.9C194.255 223.534 194.231 223.103 194.197 222.608C194.164 222.112 194.124 221.587 194.079 221.032C194.038 220.472 193.992 219.896 193.941 219.304C193.889 218.712 193.838 218.134 193.788 217.57C193.729 216.908 193.672 216.219 193.616 215.502C193.559 214.78 193.496 214.058 193.425 213.337L195.226 212.925C195.288 213.683 195.344 214.438 195.392 215.188C195.44 215.933 195.49 216.65 195.54 217.34L195.793 220.901C195.824 221.076 195.872 221.242 195.938 221.397C196.009 221.547 196.098 221.681 196.205 221.797C196.316 221.909 196.45 221.996 196.605 222.06C196.761 222.123 196.941 222.151 197.145 222.143L197.284 222.137L197.354 223.917L197.215 223.922C196.984 223.931 196.76 223.924 196.546 223.9C196.332 223.881 196.139 223.828 195.969 223.742L195.974 223.86C195.997 224.444 195.948 224.968 195.827 225.432C195.711 225.896 195.544 226.304 195.326 226.657C195.108 227.013 194.849 227.318 194.548 227.572C194.251 227.825 193.935 228.035 193.598 228.201C193.266 228.368 192.925 228.49 192.575 228.569C192.226 228.653 191.889 228.701 191.565 228.714C191.254 228.726 190.926 228.704 190.58 228.648C190.239 228.592 189.899 228.499 189.56 228.369C189.22 228.238 188.896 228.065 188.585 227.85C188.275 227.64 187.998 227.384 187.754 227.083C187.515 226.781 187.322 226.432 187.176 226.034C187.031 225.654 186.949 225.223 186.93 224.741C186.93 224.728 186.929 224.711 186.928 224.693C186.916 224.396 186.921 224.092 186.941 223.78C186.965 223.468 187.009 223.16 187.071 222.856C187.133 222.552 187.214 222.259 187.315 221.976C187.415 221.694 187.541 221.433 187.694 221.195L189.223 221.831ZM197.143 222.143C197.482 222.129 197.773 222.055 198.019 221.92C198.264 221.78 198.477 221.605 198.659 221.393C198.846 221.182 199.006 220.945 199.139 220.685C199.277 220.424 199.406 220.164 199.526 219.904C199.645 219.63 199.776 219.358 199.918 219.087C200.061 218.817 200.225 218.574 200.411 218.358C200.598 218.137 200.813 217.957 201.058 217.817C201.303 217.672 201.59 217.594 201.919 217.581C202.216 217.569 202.489 217.605 202.738 217.687C202.992 217.766 203.219 217.882 203.42 218.036C203.626 218.186 203.807 218.364 203.964 218.572C204.12 218.774 204.252 218.996 204.359 219.238C204.466 219.475 204.548 219.723 204.604 219.98C204.666 220.238 204.701 220.494 204.711 220.749C204.721 220.985 204.709 221.215 204.676 221.44C204.648 221.663 204.599 221.881 204.528 222.093C204.449 222.319 204.341 222.525 204.205 222.711C204.073 222.898 203.919 223.059 203.744 223.196C203.568 223.328 203.377 223.434 203.171 223.511C202.965 223.589 202.749 223.633 202.522 223.642C202.327 223.649 202.12 223.632 201.9 223.59C201.685 223.552 201.465 223.496 201.239 223.421C201.14 223.383 201.029 223.339 200.907 223.288C200.784 223.233 200.658 223.173 200.531 223.108C200.403 223.043 200.275 222.977 200.147 222.907C200.023 222.833 199.906 222.762 199.797 222.692C199.445 223.068 199.062 223.361 198.648 223.573C198.239 223.784 197.761 223.9 197.214 223.922L197.075 223.928L197.004 222.148L197.143 222.143ZM200.781 221.184C200.91 221.262 201.069 221.348 201.258 221.443C201.452 221.537 201.653 221.622 201.86 221.698C202.067 221.773 202.271 221.827 202.472 221.861C202.584 221.885 202.687 221.895 202.78 221.891C202.854 221.888 202.921 221.876 202.98 221.855C203.026 221.844 203.074 221.814 203.123 221.766C203.176 221.713 203.222 221.643 203.261 221.558C203.304 221.473 203.337 221.374 203.36 221.262C203.375 221.169 203.38 221.066 203.376 220.955C203.375 220.932 203.374 220.909 203.373 220.886C203.365 220.677 203.32 220.47 203.237 220.264C203.159 220.054 203.054 219.87 202.923 219.713C202.791 219.556 202.638 219.437 202.463 219.355C202.345 219.304 202.219 219.281 202.084 219.287C202.02 219.289 201.953 219.299 201.884 219.316C201.819 219.332 201.756 219.372 201.693 219.435C201.635 219.493 201.565 219.593 201.483 219.735C201.4 219.873 201.303 220.06 201.192 220.297C201.08 220.529 200.943 220.824 200.781 221.184ZM209.794 223.422L209.516 223.433C208.575 223.471 207.852 223.263 207.346 222.809C206.841 222.356 206.567 221.652 206.525 220.698C206.519 220.549 206.514 220.306 206.509 219.967C206.505 219.624 206.493 219.207 206.474 218.716C206.462 218.424 206.447 218.111 206.429 217.777C206.411 217.439 206.391 217.097 206.368 216.75C206.344 216.398 206.317 216.048 206.284 215.702C206.256 215.35 206.224 215.012 206.188 214.689C206.152 214.361 206.112 214.056 206.069 213.775C206.025 213.489 205.978 213.238 205.927 213.021L207.651 212.431C207.713 212.698 207.772 213.025 207.829 213.412C207.886 213.795 207.94 214.206 207.99 214.645C208.04 215.084 208.081 215.533 208.113 215.991C208.149 216.444 208.176 216.873 208.192 217.276C208.202 217.521 208.214 217.783 208.23 218.061C208.245 218.334 208.257 218.575 208.266 218.784C208.273 218.96 208.277 219.127 208.279 219.284C208.285 219.437 208.288 219.586 208.289 219.73C208.295 219.873 208.298 220.015 208.299 220.154C208.305 220.293 208.31 220.434 208.316 220.578C208.317 220.615 208.319 220.652 208.32 220.689C208.327 220.856 208.349 221.004 208.387 221.132C208.429 221.26 208.496 221.367 208.587 221.451C208.679 221.531 208.792 221.587 208.928 221.619C209.069 221.65 209.229 221.662 209.41 221.655L209.723 221.643L209.794 223.422ZM209.448 221.654L210.317 221.619C210.544 221.61 210.778 221.599 211.018 221.584C211.264 221.57 211.499 221.544 211.725 221.508C211.951 221.471 212.165 221.418 212.367 221.35C212.568 221.281 212.743 221.189 212.892 221.071C213.04 220.949 213.155 220.801 213.236 220.626C213.317 220.446 213.353 220.229 213.342 219.974C213.329 219.641 213.234 219.303 213.058 218.962C212.882 218.616 212.646 218.266 212.348 217.911C212.051 217.552 211.702 217.185 211.302 216.811C210.907 216.437 210.481 216.057 210.025 215.671L210.146 214.003L215.582 211.322L216.349 212.949L211.895 215.089C212.111 215.257 212.324 215.434 212.536 215.62C212.752 215.807 212.972 216.014 213.194 216.242C213.528 216.586 213.813 216.932 214.05 217.28C214.286 217.623 214.478 217.957 214.626 218.28C214.778 218.604 214.89 218.913 214.962 219.207C215.039 219.501 215.082 219.771 215.092 220.016C215.111 220.503 215.036 220.947 214.866 221.348C214.701 221.749 214.469 222.095 214.169 222.385C213.87 222.671 213.517 222.898 213.11 223.068C212.708 223.232 212.283 223.323 211.833 223.341L209.518 223.433L209.448 221.654ZM225.344 221.83C225.098 221.84 224.85 221.833 224.598 221.811C224.351 221.788 224.113 221.744 223.883 221.679C223.653 221.614 223.436 221.53 223.232 221.426C223.033 221.318 222.856 221.186 222.701 221.03C222.551 220.873 222.43 220.69 222.338 220.48C222.246 220.27 222.195 220.031 222.184 219.762C222.173 219.475 222.213 219.2 222.305 218.936C222.396 218.672 222.524 218.424 222.686 218.19C222.848 217.956 223.039 217.737 223.259 217.534C223.478 217.33 223.71 217.144 223.954 216.977C224.197 216.805 224.444 216.651 224.694 216.516C224.948 216.376 225.19 216.255 225.418 216.153L225.285 215.1L227.029 214.655C227.035 214.696 227.048 214.788 227.068 214.932C227.087 215.07 227.11 215.236 227.136 215.43C227.167 215.624 227.199 215.831 227.231 216.053C227.263 216.27 227.292 216.475 227.318 216.669C227.349 216.858 227.374 217.024 227.393 217.167C227.413 217.306 227.426 217.391 227.431 217.423C227.525 218.014 227.606 218.496 227.677 218.869C227.752 219.242 227.815 219.539 227.865 219.759C227.916 219.975 227.957 220.129 227.988 220.221C228.024 220.308 228.05 220.365 228.065 220.392C228.115 220.492 228.172 220.576 228.235 220.643C228.297 220.705 228.369 220.756 228.45 220.794C228.53 220.828 228.624 220.852 228.731 220.867C228.838 220.876 228.963 220.878 229.107 220.873L229.246 220.867L229.317 222.647L229.178 222.652C228.932 222.657 228.7 222.657 228.482 222.652C228.268 222.651 228.06 222.62 227.858 222.558C227.661 222.501 227.472 222.404 227.29 222.268C227.108 222.131 226.933 221.929 226.764 221.662C226.502 221.71 226.255 221.747 226.024 221.775C225.793 221.803 225.566 221.821 225.344 221.83ZM226.078 219.97C226.049 219.845 226.02 219.698 225.99 219.528C225.96 219.357 225.93 219.173 225.899 218.974C225.867 218.771 225.834 218.561 225.797 218.345C225.765 218.128 225.731 217.911 225.695 217.694C225.576 217.75 225.444 217.82 225.299 217.905C225.154 217.99 225.005 218.084 224.851 218.187C224.697 218.291 224.546 218.404 224.398 218.526C224.254 218.643 224.127 218.764 224.016 218.889C223.904 219.009 223.814 219.131 223.745 219.255C223.68 219.378 223.65 219.495 223.654 219.606C223.658 219.708 223.713 219.792 223.817 219.858C223.922 219.918 224.051 219.967 224.206 220.002C224.365 220.033 224.535 220.054 224.717 220.065C224.898 220.072 225.07 220.072 225.232 220.066C225.38 220.06 225.528 220.049 225.676 220.034C225.824 220.015 225.958 219.993 226.078 219.97ZM228.964 220.878L230.375 220.822C230.945 220.8 231.517 220.721 232.092 220.587C232.667 220.448 233.231 220.277 233.784 220.074C234.338 219.867 234.874 219.639 235.393 219.391C235.912 219.138 236.401 218.886 236.86 218.636C236.669 218.621 236.468 218.582 236.257 218.521C236.05 218.455 235.836 218.38 235.614 218.296C235.392 218.207 235.166 218.114 234.935 218.016C234.703 217.919 234.473 217.833 234.242 217.759C234.012 217.68 233.779 217.617 233.545 217.57C233.316 217.519 233.092 217.498 232.875 217.507C232.703 217.513 232.54 217.552 232.385 217.623C232.234 217.69 232.092 217.774 231.956 217.877C231.826 217.975 231.707 218.082 231.6 218.198C231.498 218.313 231.409 218.421 231.334 218.522C231.264 218.617 231.209 218.698 231.17 218.765L231.104 218.865L229.684 218.162C229.834 217.85 230.026 217.55 230.261 217.262C230.5 216.97 230.761 216.711 231.045 216.486C231.328 216.257 231.62 216.073 231.921 215.936C232.226 215.794 232.52 215.717 232.803 215.706C233.039 215.697 233.277 215.715 233.515 215.761C233.758 215.803 234.002 215.863 234.247 215.941C234.496 216.02 234.745 216.109 234.995 216.211C235.25 216.312 235.509 216.416 235.773 216.521C236.047 216.64 236.347 216.758 236.672 216.875C236.996 216.988 237.33 217.088 237.672 217.177C238.014 217.261 238.356 217.328 238.697 217.38C239.042 217.426 239.37 217.443 239.68 217.431L239.449 219.139C239.276 219.22 239.11 219.308 238.951 219.402C238.792 219.492 238.629 219.58 238.46 219.666C238.561 219.857 238.706 220.004 238.896 220.108C239.085 220.212 239.283 220.287 239.489 220.335C239.7 220.382 239.901 220.409 240.091 220.415C240.287 220.422 240.44 220.422 240.551 220.418L240.829 220.407L240.9 222.186L240.622 222.197C239.713 222.234 238.938 222.107 238.295 221.816C237.652 221.526 237.18 221.097 236.879 220.529C236.421 220.779 235.945 221.023 235.453 221.261C234.962 221.499 234.45 221.714 233.92 221.907C233.389 222.095 232.833 222.252 232.253 222.377C231.678 222.502 231.076 222.577 230.445 222.602L229.034 222.658L228.964 220.878ZM234.529 224.8L235.664 223.571L236.906 224.712L235.772 225.948L234.529 224.8ZM231.901 224.897L233.036 223.662L234.279 224.81L233.144 226.038L231.901 224.897ZM235.568 226.77L234.527 227.898L233.392 226.85L234.44 225.722L235.568 226.77ZM240.548 220.418L241.959 220.362C242.529 220.339 243.102 220.261 243.676 220.127C244.251 219.988 244.815 219.817 245.369 219.614C245.922 219.406 246.458 219.178 246.978 218.93C247.497 218.678 247.986 218.426 248.445 218.176C248.254 218.16 248.053 218.122 247.841 218.061C247.634 217.995 247.42 217.92 247.199 217.836C246.977 217.747 246.751 217.654 246.519 217.556C246.288 217.459 246.057 217.373 245.827 217.298C245.596 217.219 245.364 217.157 245.13 217.11C244.901 217.059 244.677 217.038 244.459 217.046C244.288 217.053 244.124 217.092 243.969 217.163C243.819 217.23 243.676 217.314 243.541 217.417C243.41 217.515 243.292 217.622 243.185 217.737C243.083 217.853 242.994 217.961 242.919 218.061C242.849 218.157 242.794 218.238 242.755 218.305L242.689 218.405L241.269 217.702C241.419 217.39 241.611 217.09 241.846 216.802C242.085 216.509 242.346 216.251 242.629 216.026C242.913 215.797 243.205 215.613 243.506 215.476C243.811 215.334 244.105 215.257 244.388 215.246C244.624 215.237 244.861 215.255 245.1 215.301C245.343 215.343 245.587 215.403 245.831 215.481C246.08 215.559 246.33 215.649 246.58 215.751C246.834 215.852 247.094 215.955 247.358 216.061C247.632 216.18 247.931 216.298 248.256 216.415C248.581 216.527 248.914 216.628 249.257 216.716C249.599 216.8 249.94 216.868 250.281 216.919C250.627 216.966 250.955 216.983 251.265 216.971L251.033 218.679C250.86 218.76 250.694 218.848 250.536 218.942C250.377 219.032 250.213 219.12 250.045 219.205C250.145 219.396 250.29 219.544 250.48 219.648C250.67 219.751 250.868 219.827 251.074 219.875C251.285 219.922 251.485 219.949 251.676 219.955C251.871 219.961 252.024 219.962 252.136 219.958L252.414 219.947L252.484 221.726L252.206 221.737C251.298 221.773 250.522 221.646 249.88 221.356C249.237 221.066 248.765 220.637 248.464 220.069C248.005 220.319 247.53 220.563 247.038 220.801C246.546 221.038 246.035 221.254 245.504 221.447C244.973 221.635 244.418 221.791 243.838 221.917C243.263 222.041 242.66 222.116 242.03 222.142L240.619 222.198L240.548 220.418ZM245.536 212.959L244.254 214.346L242.874 213.064L244.149 211.684L245.536 212.959ZM252.133 219.958L253.613 219.899C253.831 219.89 254.065 219.869 254.314 219.836C254.568 219.798 254.8 219.736 255.01 219.649C255.224 219.557 255.398 219.431 255.531 219.273C255.668 219.114 255.732 218.907 255.722 218.653C255.717 218.532 255.685 218.364 255.625 218.148C255.566 217.932 255.489 217.694 255.395 217.433C255.301 217.172 255.191 216.903 255.064 216.625C254.941 216.347 254.813 216.087 254.678 215.847L256.252 214.99C256.378 215.25 256.505 215.526 256.633 215.818C256.76 216.11 256.875 216.411 256.975 216.723C257.08 217.03 257.167 217.34 257.235 217.653C257.303 217.966 257.343 218.273 257.355 218.574C257.376 219.111 257.295 219.572 257.111 219.955C256.926 220.338 256.665 220.655 256.327 220.905C255.993 221.15 255.597 221.336 255.137 221.461C254.683 221.585 254.194 221.658 253.67 221.679L252.203 221.737L252.133 219.958ZM254.871 223.692L253.736 224.921L252.494 223.78L253.628 222.544L254.871 223.692ZM257.499 223.595L256.364 224.83L255.121 223.682L256.256 222.454L257.499 223.595ZM262.893 216.683C262.998 216.971 263.105 217.273 263.215 217.589C263.329 217.9 263.432 218.216 263.524 218.538C263.62 218.859 263.7 219.18 263.764 219.503C263.828 219.82 263.866 220.132 263.878 220.438C263.894 220.855 263.846 221.263 263.732 221.662C263.622 222.066 263.461 222.455 263.249 222.83C263.041 223.21 262.789 223.572 262.491 223.918C262.199 224.264 261.878 224.593 261.528 224.904C261.178 225.214 260.807 225.505 260.414 225.776C260.021 226.047 259.622 226.293 259.218 226.513L258.362 224.953C258.685 224.777 259.002 224.584 259.314 224.372C259.626 224.165 259.921 223.944 260.2 223.71C260.483 223.476 260.742 223.231 260.978 222.976C261.219 222.72 261.422 222.457 261.587 222.186C261.757 221.915 261.888 221.638 261.979 221.356C262.07 221.074 262.11 220.791 262.098 220.509C262.088 220.245 262.047 219.968 261.975 219.678C261.903 219.389 261.817 219.104 261.718 218.825C261.623 218.541 261.524 218.269 261.421 218.008C261.323 217.748 261.239 217.517 261.171 217.315L262.893 216.683ZM268.825 221.077L268.547 221.088C267.606 221.125 266.883 220.917 266.378 220.464C265.873 220.011 265.599 219.307 265.556 218.352C265.55 218.204 265.545 217.961 265.541 217.622C265.537 217.279 265.525 216.861 265.505 216.37C265.494 216.078 265.479 215.766 265.461 215.432C265.443 215.094 265.422 214.751 265.399 214.404C265.376 214.052 265.348 213.703 265.316 213.356C265.288 213.005 265.256 212.667 265.22 212.344C265.184 212.016 265.144 211.711 265.1 211.429C265.056 211.143 265.009 210.892 264.959 210.676L266.683 210.085C266.744 210.352 266.804 210.679 266.861 211.067C266.918 211.45 266.971 211.861 267.021 212.3C267.071 212.739 267.112 213.187 267.144 213.646C267.181 214.099 267.207 214.527 267.223 214.93C267.233 215.176 267.246 215.438 267.262 215.716C267.277 215.989 267.289 216.23 267.297 216.438C267.304 216.614 267.308 216.781 267.31 216.939C267.316 217.092 267.32 217.24 267.321 217.384C267.327 217.528 267.33 217.669 267.331 217.808C267.336 217.947 267.342 218.089 267.348 218.232C267.349 218.27 267.351 218.307 267.352 218.344C267.359 218.511 267.381 218.658 267.418 218.787C267.461 218.915 267.527 219.021 267.619 219.106C267.71 219.186 267.824 219.242 267.96 219.273C268.1 219.305 268.261 219.317 268.442 219.31L268.754 219.297L268.825 221.077ZM268.479 219.308L269.96 219.25C270.178 219.241 270.411 219.22 270.661 219.187C270.914 219.149 271.146 219.086 271.356 218.999C271.571 218.907 271.744 218.782 271.877 218.623C272.015 218.465 272.079 218.258 272.069 218.003C272.064 217.883 272.032 217.715 271.972 217.499C271.912 217.283 271.836 217.045 271.742 216.784C271.648 216.523 271.537 216.254 271.41 215.976C271.288 215.697 271.159 215.438 271.024 215.197L272.598 214.341C272.725 214.6 272.852 214.876 272.979 215.168C273.107 215.46 273.221 215.762 273.322 216.074C273.427 216.38 273.513 216.69 273.581 217.003C273.649 217.316 273.69 217.623 273.701 217.924C273.723 218.462 273.641 218.922 273.457 219.306C273.273 219.689 273.011 220.006 272.673 220.256C272.34 220.501 271.943 220.686 271.484 220.811C271.029 220.936 270.54 221.009 270.017 221.03L268.55 221.088L268.479 219.308ZM271.306 211.942L270.171 213.17L268.928 212.029L270.062 210.794L271.306 211.942ZM273.933 211.844L272.799 213.08L271.556 211.932L272.691 210.703L273.933 211.844ZM282.755 220.523C282.287 220.542 281.863 220.499 281.483 220.393C281.107 220.292 280.783 220.135 280.51 219.923C280.242 219.707 280.029 219.439 279.873 219.12C279.721 218.801 279.637 218.436 279.62 218.023C279.585 217.143 279.943 216.21 280.692 215.224C280.821 215.061 280.936 214.922 281.038 214.806C281.145 214.686 281.242 214.578 281.331 214.481C281.264 214.433 281.198 214.385 281.131 214.336C281.064 214.283 280.977 214.212 280.872 214.124L281.943 212.703C282.134 212.839 282.383 213.036 282.69 213.293C282.998 213.55 283.371 213.899 283.811 214.341C285.027 215.625 285.655 216.772 285.695 217.782C285.713 218.218 285.656 218.603 285.525 218.937C285.399 219.267 285.209 219.549 284.953 219.782C284.702 220.01 284.391 220.185 284.02 220.306C283.649 220.432 283.228 220.505 282.755 220.523ZM284.131 217.844C284.126 217.714 284.076 217.552 283.98 217.356C283.884 217.16 283.757 216.952 283.6 216.73C283.442 216.509 283.262 216.287 283.058 216.063C282.859 215.839 282.651 215.631 282.435 215.44C282.306 215.58 282.169 215.755 282.024 215.965C281.879 216.175 281.744 216.398 281.619 216.635C281.498 216.867 281.398 217.101 281.319 217.336C281.24 217.567 281.205 217.775 281.212 217.96C281.218 218.113 281.272 218.241 281.373 218.344C281.479 218.441 281.608 218.52 281.759 218.579C281.91 218.638 282.067 218.678 282.23 218.699C282.398 218.721 282.549 218.729 282.683 218.723C282.846 218.717 283.014 218.698 283.189 218.668C283.365 218.638 283.523 218.59 283.664 218.524C283.805 218.454 283.92 218.363 284.008 218.253C284.097 218.143 284.138 218.006 284.131 217.844ZM289.876 220.241C289.297 220.264 288.745 220.156 288.221 219.916C287.701 219.677 287.207 219.335 286.739 218.889L287.703 217.41C288.14 217.782 288.546 218.049 288.919 218.211C289.292 218.368 289.645 218.44 289.978 218.426C290.141 218.42 290.312 218.399 290.491 218.364C290.675 218.324 290.857 218.273 291.035 218.21C291.214 218.148 291.382 218.076 291.542 217.995C291.705 217.91 291.846 217.821 291.963 217.728L289.533 212.464L291.153 211.71C291.24 211.911 291.336 212.125 291.443 212.353C291.549 212.581 291.664 212.827 291.785 213.091L293.697 217.227C293.768 217.382 293.841 217.526 293.916 217.657C293.996 217.784 294.083 217.894 294.18 217.988C294.281 218.077 294.393 218.147 294.516 218.197C294.643 218.243 294.787 218.263 294.95 218.257L295.109 218.25L295.18 220.03L295.02 220.036C294.728 220.048 294.475 220.035 294.26 219.997C294.05 219.963 293.864 219.913 293.704 219.845C293.543 219.772 293.4 219.687 293.276 219.59C293.151 219.489 293.031 219.38 292.915 219.264C292.699 219.439 292.478 219.587 292.25 219.708C292.023 219.828 291.783 219.926 291.531 220.001C291.279 220.076 291.016 220.13 290.744 220.164C290.471 220.203 290.182 220.228 289.876 220.241ZM294.833 218.261L294.966 218.256C295.128 218.25 295.264 218.244 295.376 218.24C295.491 218.231 295.602 218.222 295.709 218.213C295.815 218.199 295.926 218.188 296.042 218.179C296.162 218.164 296.307 218.149 296.478 218.133C296.24 217.85 296.058 217.537 295.933 217.194C295.812 216.851 295.745 216.499 295.731 216.137C295.721 215.882 295.738 215.629 295.784 215.376C295.83 215.119 295.903 214.875 296.006 214.643C296.108 214.412 296.236 214.195 296.391 213.994C296.55 213.793 296.735 213.616 296.947 213.464C296.91 213.456 296.856 213.438 296.785 213.408C296.719 213.378 296.612 213.327 296.466 213.253L297.434 211.523C297.453 211.522 297.519 211.548 297.632 211.599C297.745 211.645 297.892 211.709 298.071 211.79C298.251 211.871 298.454 211.965 298.681 212.072C298.913 212.175 299.151 212.281 299.397 212.392C299.643 212.498 299.888 212.605 300.134 212.711C300.379 212.817 300.608 212.912 300.821 212.997C301.259 213.174 301.646 213.331 301.981 213.466C302.316 213.601 302.614 213.738 302.874 213.876C303.14 214.014 303.375 214.16 303.581 214.314C303.791 214.469 303.991 214.653 304.181 214.868C304.482 215.209 304.69 215.582 304.803 215.985C304.868 216.21 304.905 216.434 304.913 216.656C304.921 216.842 304.9 217.079 304.851 217.369C304.802 217.659 304.662 217.985 304.431 218.346C304.204 218.708 303.898 219.015 303.513 219.267C303.382 219.351 303.22 219.425 303.028 219.488C302.84 219.551 302.64 219.606 302.429 219.651C302.222 219.697 302.014 219.733 301.806 219.76C301.603 219.786 301.423 219.803 301.265 219.809C301.071 219.817 300.852 219.816 300.611 219.807C300.374 219.803 300.132 219.787 299.885 219.759C299.642 219.732 299.404 219.695 299.17 219.649C298.936 219.602 298.727 219.543 298.544 219.472C298.114 219.628 297.596 219.753 296.992 219.846C296.388 219.945 295.736 220.008 295.036 220.036L294.904 220.041L294.833 218.261ZM301.688 215.566C301.706 216.002 301.651 216.433 301.524 216.861C301.402 217.283 301.208 217.674 300.944 218.032C301.023 218.039 301.1 218.043 301.174 218.044C301.249 218.046 301.32 218.045 301.39 218.043C301.687 218.031 301.959 217.988 302.206 217.913C302.458 217.833 302.675 217.734 302.856 217.615C303.037 217.497 303.178 217.361 303.278 217.209C303.379 217.056 303.426 216.897 303.419 216.73C303.414 216.581 303.361 216.43 303.262 216.276C303.168 216.122 303.041 215.974 302.883 215.832C302.724 215.685 302.537 215.549 302.323 215.423C302.109 215.292 301.882 215.176 301.641 215.074C301.653 215.152 301.664 215.235 301.672 215.323C301.68 215.406 301.685 215.487 301.688 215.566ZM298.688 214.335C298.65 214.332 298.613 214.331 298.576 214.332C298.432 214.338 298.284 214.395 298.13 214.503C297.977 214.607 297.834 214.754 297.702 214.945C297.575 215.136 297.479 215.346 297.414 215.576C297.361 215.759 297.338 215.932 297.344 216.094C297.346 216.145 297.35 216.193 297.357 216.24C297.381 216.387 297.427 216.536 297.493 216.687C297.564 216.837 297.649 216.978 297.747 217.108C297.849 217.234 297.963 217.346 298.087 217.443C298.211 217.535 298.344 217.6 298.485 217.636C298.668 217.587 298.842 217.517 299.005 217.427C299.173 217.332 299.322 217.21 299.45 217.061C299.584 216.912 299.695 216.734 299.784 216.526C299.873 216.314 299.931 216.068 299.957 215.788C299.963 215.714 299.965 215.644 299.962 215.579C299.956 215.426 299.918 215.277 299.847 215.131C299.776 214.981 299.673 214.848 299.539 214.733C299.409 214.612 299.266 214.521 299.11 214.457C298.954 214.389 298.813 214.348 298.688 214.335ZM310.105 219.437L309.827 219.448C308.886 219.485 308.163 219.277 307.658 218.824C307.153 218.371 306.879 217.667 306.836 216.712C306.83 216.564 306.825 216.321 306.821 215.982C306.817 215.639 306.805 215.221 306.785 214.73C306.774 214.438 306.759 214.126 306.741 213.792C306.723 213.454 306.702 213.111 306.679 212.764C306.656 212.412 306.628 212.063 306.596 211.716C306.568 211.365 306.536 211.027 306.5 210.704C306.464 210.375 306.424 210.071 306.38 209.789C306.336 209.503 306.289 209.252 306.239 209.036L307.963 208.445C308.024 208.712 308.084 209.039 308.141 209.427C308.198 209.81 308.251 210.221 308.301 210.66C308.351 211.099 308.392 211.547 308.424 212.006C308.461 212.459 308.487 212.887 308.503 213.29C308.513 213.536 308.526 213.798 308.541 214.076C308.557 214.349 308.569 214.59 308.577 214.798C308.584 214.974 308.588 215.141 308.59 215.299C308.596 215.452 308.6 215.6 308.601 215.744C308.606 215.888 308.61 216.029 308.611 216.168C308.616 216.307 308.622 216.449 308.628 216.592C308.629 216.629 308.63 216.667 308.632 216.704C308.639 216.87 308.661 217.018 308.698 217.147C308.74 217.275 308.807 217.381 308.899 217.466C308.99 217.546 309.104 217.602 309.24 217.633C309.38 217.665 309.541 217.677 309.722 217.67L310.034 217.657L310.105 219.437ZM310.051 217.657C310.287 217.647 310.508 217.592 310.713 217.491C310.922 217.385 311.117 217.206 311.297 216.953C311.482 216.695 311.649 216.347 311.799 215.909C311.953 215.472 312.093 214.914 312.22 214.236L313.942 214.648C313.846 215.037 313.761 215.411 313.687 215.772C313.613 216.127 313.576 216.433 313.577 216.688C313.578 216.711 313.579 216.732 313.58 216.751C313.583 216.834 313.593 216.922 313.611 217.014C313.633 217.106 313.667 217.191 313.712 217.268C313.756 217.345 313.815 217.405 313.886 217.449C313.952 217.488 314.025 217.506 314.104 217.503C314.113 217.502 314.122 217.502 314.132 217.502C314.303 217.49 314.463 217.421 314.611 217.295C314.759 217.168 314.894 217.007 315.016 216.812C315.143 216.617 315.255 216.396 315.352 216.151C315.454 215.906 315.541 215.659 315.615 215.41C315.693 215.156 315.758 214.91 315.808 214.671C315.859 214.432 315.897 214.222 315.923 214.04L317.576 214.308C317.527 214.589 317.489 214.848 317.461 215.086C317.433 215.319 317.419 215.554 317.419 215.791C317.417 215.851 317.417 215.911 317.42 215.972C317.424 216.087 317.437 216.224 317.457 216.381C317.481 216.533 317.527 216.682 317.593 216.828C317.659 216.974 317.747 217.093 317.858 217.186C317.973 217.275 318.118 217.315 318.294 217.308C318.494 217.3 318.65 217.218 318.765 217.06C318.884 216.897 318.971 216.694 319.026 216.451C319.081 216.207 319.112 215.939 319.119 215.646C319.131 215.349 319.131 215.061 319.12 214.783C319.116 214.695 319.111 214.626 319.105 214.575C319.102 214.519 319.1 214.468 319.099 214.422C319.097 214.376 319.092 214.325 319.086 214.269C319.083 214.209 319.08 214.128 319.076 214.026L320.829 213.817C320.849 213.97 320.869 214.12 320.889 214.267C320.908 214.41 320.928 214.56 320.948 214.717C320.968 214.87 320.991 215.034 321.017 215.209C321.047 215.38 321.079 215.566 321.115 215.769C321.157 216.009 321.233 216.217 321.342 216.394C321.456 216.57 321.585 216.716 321.728 216.831C321.872 216.946 322.024 217.03 322.184 217.084C322.349 217.138 322.503 217.162 322.646 217.156L322.904 217.146L322.974 218.926L322.752 218.934C322.525 218.943 322.299 218.929 322.075 218.892C321.855 218.854 321.644 218.79 321.441 218.701C321.238 218.612 321.045 218.496 320.863 218.355C320.686 218.209 320.528 218.034 320.39 217.831C320.182 218.201 319.901 218.502 319.548 218.734C319.196 218.967 318.801 219.091 318.366 219.109C317.93 219.126 317.53 219.037 317.165 218.843C316.804 218.649 316.513 218.382 316.291 218.042C316.163 218.219 316.023 218.383 315.871 218.532C315.724 218.678 315.562 218.807 315.386 218.921C315.214 219.03 315.029 219.116 314.832 219.179C314.635 219.248 314.428 219.286 314.21 219.295C314.001 219.303 313.799 219.283 313.602 219.235C313.405 219.192 313.221 219.123 313.051 219.027C312.88 218.932 312.724 218.815 312.584 218.677C312.444 218.534 312.326 218.374 312.231 218.197C312.015 218.614 311.742 218.919 311.411 219.113C311.08 219.308 310.652 219.415 310.129 219.436L309.83 219.448L309.759 217.668L310.051 217.657ZM316.472 211.4L315.337 212.629L314.095 211.488L315.229 210.252L316.472 211.4ZM319.1 211.303L317.966 212.538L316.722 211.39L317.857 210.162L319.1 211.303ZM315.433 209.43L316.474 208.302L317.609 209.35L316.568 210.478L315.433 209.43ZM322.763 217.152C323.101 217.138 323.393 217.064 323.638 216.929C323.883 216.789 324.097 216.614 324.279 216.402C324.465 216.191 324.625 215.954 324.759 215.694C324.897 215.433 325.026 215.173 325.146 214.913C325.265 214.639 325.395 214.367 325.538 214.097C325.68 213.826 325.845 213.583 326.031 213.367C326.217 213.146 326.433 212.966 326.678 212.826C326.923 212.682 327.21 212.603 327.539 212.59C327.835 212.578 328.108 212.614 328.358 212.697C328.611 212.775 328.839 212.891 329.04 213.045C329.245 213.195 329.426 213.373 329.583 213.581C329.74 213.783 329.872 214.006 329.979 214.247C330.086 214.484 330.167 214.732 330.224 214.989C330.285 215.247 330.321 215.503 330.331 215.758C330.341 215.994 330.329 216.225 330.296 216.449C330.268 216.673 330.218 216.89 330.148 217.102C330.069 217.328 329.961 217.534 329.824 217.72C329.692 217.907 329.539 218.068 329.363 218.205C329.187 218.338 328.997 218.443 328.791 218.52C328.585 218.598 328.369 218.642 328.142 218.651C327.947 218.658 327.74 218.641 327.52 218.599C327.305 218.561 327.085 218.505 326.859 218.43C326.76 218.392 326.649 218.348 326.526 218.297C326.403 218.242 326.278 218.182 326.15 218.117C326.022 218.053 325.894 217.986 325.766 217.917C325.643 217.843 325.526 217.771 325.417 217.701C325.065 218.077 324.682 218.37 324.268 218.582C323.859 218.793 323.381 218.909 322.834 218.931L322.695 218.937L322.624 217.157L322.763 217.152ZM326.401 216.193C326.529 216.271 326.688 216.358 326.878 216.452C327.072 216.547 327.272 216.631 327.48 216.707C327.687 216.782 327.891 216.837 328.092 216.87C328.204 216.894 328.307 216.904 328.399 216.9C328.473 216.897 328.54 216.885 328.6 216.864C328.646 216.853 328.693 216.823 328.742 216.775C328.796 216.722 328.842 216.653 328.88 216.567C328.923 216.482 328.957 216.383 328.98 216.271C328.995 216.178 329 216.075 328.996 215.964C328.995 215.941 328.994 215.918 328.993 215.895C328.985 215.686 328.939 215.479 328.857 215.273C328.779 215.063 328.674 214.879 328.542 214.722C328.411 214.565 328.258 214.446 328.083 214.364C327.965 214.313 327.838 214.291 327.704 214.296C327.639 214.298 327.572 214.308 327.503 214.325C327.439 214.341 327.376 214.381 327.313 214.444C327.255 214.502 327.185 214.602 327.102 214.744C327.02 214.882 326.923 215.07 326.811 215.306C326.7 215.538 326.563 215.833 326.401 216.193ZM147.238 254.957C146.992 254.966 146.744 254.96 146.492 254.938C146.245 254.915 146.007 254.871 145.777 254.806C145.547 254.741 145.33 254.656 145.126 254.553C144.927 254.445 144.75 254.313 144.595 254.157C144.445 254 144.324 253.817 144.232 253.607C144.141 253.397 144.089 253.158 144.079 252.889C144.067 252.602 144.107 252.326 144.199 252.063C144.291 251.799 144.418 251.551 144.58 251.317C144.743 251.083 144.933 250.864 145.153 250.66C145.372 250.457 145.604 250.271 145.848 250.104C146.092 249.932 146.338 249.778 146.588 249.643C146.843 249.503 147.084 249.382 147.312 249.28L147.179 248.227L148.923 247.781C148.929 247.823 148.942 247.915 148.962 248.058C148.981 248.197 149.004 248.363 149.031 248.557C149.061 248.751 149.093 248.958 149.125 249.18C149.157 249.397 149.186 249.602 149.212 249.796C149.243 249.985 149.268 250.151 149.288 250.294C149.307 250.433 149.32 250.518 149.326 250.55C149.419 251.141 149.5 251.622 149.571 251.996C149.646 252.369 149.709 252.665 149.76 252.886C149.81 253.102 149.851 253.256 149.882 253.348C149.918 253.435 149.944 253.492 149.959 253.519C150.009 253.619 150.066 253.703 150.129 253.77C150.192 253.832 150.263 253.883 150.344 253.921C150.424 253.955 150.518 253.979 150.625 253.994C150.732 254.003 150.858 254.005 151.001 254L151.14 253.994L151.211 255.773L151.072 255.779C150.826 255.784 150.594 255.784 150.376 255.779C150.162 255.778 149.954 255.747 149.752 255.685C149.555 255.628 149.366 255.531 149.184 255.395C149.002 255.258 148.827 255.056 148.659 254.789C148.396 254.836 148.149 254.874 147.918 254.902C147.687 254.93 147.46 254.948 147.238 254.957ZM147.972 253.096C147.944 252.972 147.914 252.825 147.884 252.654C147.855 252.484 147.824 252.299 147.793 252.101C147.762 251.898 147.728 251.688 147.691 251.472C147.659 251.255 147.625 251.038 147.589 250.821C147.47 250.877 147.339 250.947 147.193 251.032C147.048 251.116 146.899 251.211 146.745 251.314C146.591 251.418 146.44 251.531 146.292 251.652C146.148 251.77 146.021 251.891 145.91 252.016C145.799 252.136 145.708 252.258 145.639 252.382C145.574 252.505 145.544 252.622 145.548 252.733C145.552 252.835 145.607 252.919 145.712 252.984C145.816 253.045 145.946 253.093 146.1 253.129C146.259 253.16 146.429 253.181 146.611 253.192C146.792 253.199 146.964 253.199 147.126 253.193C147.274 253.187 147.423 253.176 147.57 253.161C147.718 253.141 147.852 253.12 147.972 253.096ZM157.058 253.759L157.129 255.538L156.99 255.544C156.54 255.562 156.157 255.505 155.841 255.374C155.525 255.242 155.254 255.067 155.027 254.849C154.881 255.05 154.66 255.209 154.363 255.328C154.071 255.442 153.743 255.529 153.378 255.59C153.014 255.655 152.638 255.698 152.249 255.718C151.864 255.743 151.51 255.762 151.186 255.774L150.928 255.785L150.858 254.005L151.115 253.995C151.657 253.973 152.112 253.925 152.481 253.85C152.849 253.771 153.144 253.666 153.366 253.537C153.593 253.407 153.754 253.25 153.849 253.065C153.943 252.875 153.986 252.66 153.976 252.419C153.97 252.262 153.932 252.054 153.861 251.797C153.79 251.536 153.687 251.201 153.55 250.793L155.241 250.246C155.309 250.447 155.362 250.626 155.401 250.782C155.444 250.934 155.478 251.088 155.503 251.245C155.532 251.397 155.558 251.563 155.579 251.743C155.604 251.918 155.631 252.128 155.659 252.373C155.679 252.521 155.72 252.68 155.783 252.849C155.845 253.013 155.928 253.166 156.031 253.305C156.138 253.44 156.266 253.554 156.413 253.645C156.56 253.732 156.729 253.772 156.919 253.764L157.058 253.759ZM153.727 247.723L152.592 248.952L151.35 247.81L152.484 246.575L153.727 247.723ZM156.355 247.625L155.22 248.861L153.977 247.713L155.112 246.484L156.355 247.625ZM156.942 253.764C157.428 253.744 157.896 253.712 158.344 253.666C158.792 253.616 159.201 253.555 159.569 253.485C159.938 253.415 160.255 253.335 160.521 253.245C160.786 253.156 160.984 253.06 161.115 252.957L160.406 252.985C159.998 253.002 159.607 252.966 159.232 252.879C158.862 252.787 158.533 252.642 158.247 252.445C157.961 252.247 157.728 251.996 157.549 251.693C157.374 251.384 157.278 251.021 157.262 250.604C157.252 250.358 157.267 250.105 157.308 249.843C157.349 249.582 157.415 249.326 157.507 249.076C157.6 248.827 157.713 248.59 157.848 248.367C157.983 248.143 158.14 247.947 158.319 247.777C158.498 247.603 158.697 247.465 158.915 247.364C159.134 247.257 159.373 247.199 159.632 247.189C159.952 247.176 160.254 247.232 160.537 247.355C160.821 247.478 161.08 247.651 161.317 247.874C161.553 248.092 161.765 248.348 161.953 248.642C162.141 248.936 162.302 249.248 162.436 249.577C162.569 249.906 162.673 250.243 162.747 250.588C162.826 250.928 162.871 251.254 162.883 251.564C162.904 252.092 162.849 252.554 162.716 252.949C162.588 253.344 162.397 253.686 162.144 253.975C161.895 254.263 161.592 254.502 161.232 254.693C160.878 254.883 160.483 255.038 160.047 255.158C159.61 255.277 159.14 255.366 158.637 255.423C158.138 255.48 157.62 255.519 157.082 255.54L156.846 255.55L156.775 253.77L156.942 253.764ZM159.704 248.982C159.68 248.979 159.657 248.977 159.634 248.978C159.541 248.982 159.436 249.023 159.319 249.102C159.201 249.181 159.089 249.292 158.984 249.436C158.878 249.579 158.794 249.74 158.731 249.919C158.669 250.093 158.641 250.264 158.647 250.431C158.648 250.44 158.648 250.449 158.648 250.458C158.655 250.625 158.698 250.76 158.776 250.864C158.854 250.963 158.957 251.038 159.084 251.089C159.216 251.139 159.366 251.172 159.534 251.189C159.706 251.205 159.888 251.214 160.078 251.216C160.203 251.216 160.333 251.213 160.467 251.208C160.532 251.205 160.632 251.201 160.766 251.196C160.905 251.186 161.046 251.173 161.189 251.158C161.141 250.993 161.073 250.789 160.984 250.547C160.9 250.299 160.796 250.062 160.67 249.835C160.55 249.603 160.407 249.405 160.243 249.239C160.083 249.074 159.904 248.988 159.704 248.982ZM160.822 244.879L159.54 246.267L158.159 244.985L159.434 243.604L160.822 244.879ZM168.018 255.106L167.74 255.117C166.8 255.154 166.077 254.946 165.571 254.493C165.066 254.039 164.792 253.336 164.749 252.381C164.744 252.233 164.739 251.989 164.734 251.651C164.73 251.307 164.718 250.89 164.699 250.399C164.687 250.107 164.672 249.794 164.654 249.461C164.636 249.123 164.616 248.78 164.593 248.433C164.569 248.081 164.542 247.732 164.509 247.385C164.481 247.033 164.449 246.696 164.413 246.372C164.377 246.044 164.337 245.74 164.293 245.458C164.25 245.172 164.202 244.921 164.152 244.705L165.876 244.114C165.938 244.381 165.997 244.708 166.054 245.096C166.111 245.479 166.165 245.89 166.215 246.329C166.265 246.768 166.306 247.216 166.338 247.674C166.374 248.128 166.401 248.556 166.417 248.959C166.426 249.205 166.439 249.467 166.455 249.744C166.47 250.018 166.482 250.259 166.49 250.467C166.497 250.643 166.502 250.81 166.503 250.968C166.509 251.121 166.513 251.269 166.514 251.413C166.52 251.557 166.523 251.698 166.524 251.837C166.53 251.976 166.535 252.118 166.541 252.261C166.542 252.298 166.544 252.335 166.545 252.372C166.552 252.539 166.574 252.687 166.612 252.815C166.654 252.944 166.721 253.05 166.812 253.135C166.904 253.215 167.017 253.27 167.153 253.302C167.294 253.334 167.454 253.346 167.635 253.339L167.948 253.326L168.018 255.106ZM167.673 253.337L169.153 253.278C169.371 253.27 169.605 253.249 169.854 253.216C170.108 253.178 170.339 253.115 170.55 253.028C170.764 252.936 170.938 252.811 171.071 252.652C171.208 252.494 171.272 252.287 171.262 252.032C171.257 251.911 171.225 251.743 171.165 251.528C171.106 251.312 171.029 251.073 170.935 250.813C170.841 250.552 170.731 250.282 170.603 250.004C170.481 249.726 170.352 249.467 170.217 249.226L171.792 248.37C171.918 248.629 172.045 248.905 172.173 249.197C172.3 249.489 172.414 249.791 172.515 250.102C172.62 250.409 172.707 250.719 172.775 251.032C172.843 251.345 172.883 251.652 172.895 251.953C172.916 252.491 172.835 252.951 172.65 253.334C172.466 253.718 172.205 254.034 171.867 254.284C171.533 254.53 171.136 254.715 170.677 254.84C170.223 254.965 169.734 255.038 169.21 255.058L167.743 255.117L167.673 253.337ZM170.411 257.071L169.276 258.3L168.033 257.159L169.168 255.923L170.411 257.071ZM173.039 256.974L171.904 258.21L170.661 257.061L171.796 255.833L173.039 256.974ZM184.265 258.979C183.82 258.996 183.383 258.981 182.954 258.933C182.525 258.885 182.121 258.799 181.74 258.675C181.359 258.551 181.006 258.382 180.682 258.167C180.358 257.957 180.076 257.697 179.837 257.386C179.601 257.075 179.411 256.712 179.264 256.295C179.122 255.878 179.041 255.401 179.019 254.864C179 254.372 179.036 253.884 179.128 253.397C179.22 252.911 179.334 252.456 179.471 252.033C179.612 251.61 179.757 251.23 179.906 250.895C180.059 250.555 180.183 250.287 180.278 250.093L181.707 251.025C181.676 251.068 181.629 251.154 181.564 251.281C181.5 251.409 181.427 251.568 181.346 251.757C181.266 251.945 181.181 252.16 181.093 252.4C181.01 252.64 180.934 252.894 180.866 253.161C180.802 253.428 180.751 253.704 180.711 253.989C180.671 254.269 180.656 254.543 180.667 254.812C180.685 255.271 180.798 255.656 181.006 255.968C181.213 256.28 181.478 256.527 181.801 256.709C182.124 256.896 182.486 257.026 182.888 257.098C183.295 257.17 183.707 257.198 184.124 257.181C184.601 257.162 185.046 257.077 185.457 256.926C185.874 256.78 186.233 256.575 186.533 256.313C186.838 256.05 187.074 255.734 187.24 255.365C187.407 255.001 187.481 254.595 187.463 254.145C187.465 254.071 187.465 253.997 187.462 253.922C187.453 253.709 187.42 253.458 187.362 253.168C187.309 252.877 187.226 252.556 187.115 252.203C187.008 251.845 186.884 251.488 186.745 251.131C186.605 250.77 186.464 250.428 186.321 250.104L187.892 249.164L188.137 249.732C188.214 249.906 188.293 250.086 188.375 250.273C188.461 250.455 188.554 250.632 188.654 250.805C188.753 250.973 188.861 251.128 188.978 251.272C189.096 251.416 189.223 251.534 189.361 251.626C189.54 251.211 189.788 250.797 190.106 250.385C190.428 249.973 190.789 249.592 191.188 249.242C191.592 248.892 192.019 248.587 192.468 248.328C192.917 248.069 193.362 247.882 193.803 247.767C194.065 247.696 194.325 247.655 194.585 247.645C194.664 247.642 194.805 247.643 195.01 247.649C195.214 247.655 195.469 247.707 195.775 247.807C196.085 247.906 196.371 248.045 196.634 248.225C196.896 248.4 197.12 248.61 197.306 248.853C197.497 249.096 197.645 249.366 197.749 249.664C197.833 249.902 197.88 250.151 197.89 250.41C197.893 250.48 197.893 250.547 197.891 250.612C197.879 250.882 197.843 251.134 197.782 251.368C197.722 251.598 197.638 251.815 197.53 252.019C197.553 252.027 197.593 252.039 197.649 252.056C197.706 252.067 197.771 252.079 197.846 252.09C197.925 252.1 198.007 252.109 198.09 252.115C198.179 252.12 198.265 252.122 198.348 252.118L198.55 252.11L198.62 253.89L198.363 253.9C198.113 253.91 197.883 253.898 197.673 253.865C197.463 253.836 197.273 253.795 197.104 253.741C196.934 253.683 196.785 253.617 196.657 253.543C196.534 253.469 196.429 253.394 196.342 253.319C196.089 253.491 195.819 253.639 195.531 253.762C195.244 253.885 194.948 253.989 194.645 254.076C194.347 254.162 194.046 254.227 193.741 254.272C193.437 254.316 193.143 254.344 192.86 254.355C192.541 254.368 192.218 254.365 191.892 254.345C191.567 254.326 191.245 254.285 190.927 254.223C190.613 254.166 190.306 254.088 190.005 253.988C189.709 253.884 189.428 253.756 189.162 253.604L189.17 253.827C189.201 254.601 189.104 255.298 188.878 255.92C188.652 256.546 188.323 257.079 187.89 257.519C187.457 257.963 186.933 258.309 186.316 258.556C185.699 258.808 185.016 258.949 184.265 258.979ZM194.214 249.512C193.874 249.623 193.53 249.773 193.18 249.964C192.835 250.154 192.507 250.373 192.197 250.622C191.891 250.871 191.616 251.14 191.373 251.428C191.129 251.716 190.946 252.011 190.823 252.313C190.95 252.345 191.092 252.379 191.252 252.414C191.415 252.445 191.586 252.473 191.763 252.498C191.94 252.519 192.12 252.538 192.301 252.554C192.488 252.565 192.666 252.567 192.838 252.56C193.032 252.552 193.254 252.532 193.504 252.499C193.753 252.461 194.006 252.409 194.263 252.343C194.525 252.277 194.782 252.193 195.033 252.09C195.284 251.983 195.507 251.858 195.7 251.715C195.899 251.568 196.059 251.399 196.182 251.209C196.304 251.014 196.367 250.795 196.371 250.554C196.37 250.531 196.37 250.51 196.369 250.491C196.361 250.292 196.291 250.116 196.16 249.964C196.028 249.806 195.856 249.683 195.644 249.594C195.431 249.501 195.197 249.445 194.941 249.427C194.867 249.421 194.79 249.419 194.711 249.422C194.54 249.429 194.374 249.459 194.214 249.512ZM204.474 251.875L204.544 253.655L204.405 253.66C203.956 253.678 203.573 253.621 203.257 253.49C202.941 253.359 202.669 253.184 202.442 252.965C202.297 253.166 202.076 253.326 201.779 253.444C201.487 253.558 201.158 253.645 200.794 253.706C200.43 253.772 200.053 253.814 199.664 253.834C199.28 253.859 198.926 253.878 198.601 253.891L198.344 253.901L198.273 252.121L198.531 252.111C199.073 252.09 199.528 252.041 199.896 251.966C200.265 251.887 200.56 251.782 200.782 251.653C201.009 251.523 201.17 251.366 201.265 251.181C201.359 250.992 201.402 250.776 201.392 250.535C201.386 250.378 201.347 250.171 201.277 249.913C201.206 249.652 201.102 249.317 200.965 248.909L202.656 248.362C202.725 248.563 202.778 248.742 202.817 248.898C202.86 249.05 202.894 249.204 202.919 249.361C202.948 249.513 202.973 249.679 202.994 249.859C203.02 250.034 203.047 250.245 203.075 250.489C203.095 250.637 203.136 250.796 203.198 250.965C203.261 251.13 203.343 251.282 203.446 251.422C203.554 251.557 203.681 251.67 203.829 251.761C203.976 251.848 204.145 251.888 204.335 251.881L204.474 251.875ZM201.012 255.856L199.877 257.084L198.634 255.943L199.769 254.708L201.012 255.856ZM203.639 255.758L202.505 256.994L201.262 255.846L202.397 254.617L203.639 255.758ZM209.856 251.661C210.21 251.694 210.593 251.706 211.006 251.699C211.131 251.699 211.256 251.696 211.382 251.691C211.669 251.68 211.99 251.653 212.346 251.611C212.707 251.569 213.082 251.498 213.473 251.399C213.868 251.3 214.222 251.172 214.536 251.016C214.85 250.855 215.107 250.664 215.307 250.442C215.512 250.216 215.631 249.953 215.666 249.655C215.62 249.443 215.523 249.259 215.372 249.103C215.222 248.942 215.043 248.814 214.835 248.72C214.632 248.622 214.415 248.556 214.187 248.523C214.066 248.51 213.947 248.505 213.831 248.51C213.734 248.513 213.637 248.524 213.54 248.542C213.098 248.639 212.693 248.785 212.325 248.98C211.962 249.176 211.627 249.409 211.323 249.681C211.022 249.953 210.752 250.259 210.51 250.598C210.268 250.932 210.05 251.287 209.856 251.661ZM204.191 251.886L204.385 251.879C204.724 251.865 205.004 251.805 205.228 251.699C205.451 251.588 205.635 251.444 205.781 251.266C205.927 251.089 206.042 250.884 206.126 250.654C206.214 250.423 206.288 250.181 206.348 249.928C206.407 249.675 206.462 249.417 206.512 249.155C206.566 248.889 206.635 248.631 206.718 248.381L208.352 248.853C208.305 248.966 208.265 249.072 208.232 249.171C208.199 249.265 208.172 249.361 208.153 249.459C208.134 249.557 208.119 249.66 208.11 249.767C208.105 249.874 208.105 249.993 208.11 250.122C208.113 250.206 208.124 250.294 208.141 250.386C208.159 250.473 208.181 250.56 208.207 250.648C208.238 250.73 208.274 250.81 208.314 250.887C208.354 250.96 208.399 251.023 208.447 251.077C208.524 250.916 208.617 250.736 208.725 250.537C208.833 250.333 208.959 250.119 209.103 249.895C209.248 249.671 209.408 249.442 209.584 249.207C209.765 248.968 209.962 248.735 210.176 248.509C210.431 248.262 210.698 248.035 210.978 247.829C211.262 247.618 211.554 247.435 211.854 247.279C212.159 247.123 212.474 246.999 212.8 246.908C213.126 246.816 213.458 246.763 213.796 246.75C214.227 246.732 214.645 246.795 215.05 246.937C215.454 247.078 215.811 247.282 216.118 247.548C216.431 247.815 216.68 248.13 216.866 248.493C217.028 248.826 217.116 249.184 217.131 249.569C217.133 249.611 217.135 249.652 217.136 249.694C217.115 250.331 216.938 250.897 216.605 251.393L217.905 251.341L217.976 253.121L216.085 253.196C215.589 253.216 215.186 253.218 214.874 253.202C214.567 253.191 214.31 253.15 214.103 253.08C213.617 253.229 213.129 253.334 212.64 253.396C212.155 253.461 211.695 253.503 211.259 253.52C210.624 253.545 210.088 253.541 209.651 253.507C209.213 253.474 208.842 253.412 208.536 253.322C208.236 253.232 207.983 253.114 207.777 252.969C207.572 252.824 207.384 252.653 207.214 252.455C206.868 252.864 206.471 253.16 206.024 253.345C205.581 253.53 205.07 253.634 204.491 253.657L204.261 253.666L204.191 251.886ZM217.633 251.352L219.044 251.296C219.614 251.273 220.187 251.195 220.761 251.061C221.336 250.922 221.9 250.751 222.454 250.548C223.007 250.34 223.543 250.113 224.063 249.864C224.582 249.612 225.071 249.36 225.53 249.11C225.339 249.094 225.137 249.056 224.926 248.995C224.719 248.929 224.505 248.854 224.284 248.77C224.062 248.681 223.836 248.588 223.604 248.49C223.373 248.393 223.142 248.307 222.912 248.232C222.681 248.153 222.449 248.091 222.215 248.044C221.986 247.993 221.762 247.972 221.544 247.98C221.373 247.987 221.209 248.026 221.054 248.097C220.904 248.164 220.761 248.248 220.626 248.351C220.495 248.449 220.376 248.556 220.27 248.672C220.168 248.787 220.079 248.895 220.004 248.995C219.934 249.091 219.879 249.172 219.84 249.239L219.774 249.339L218.354 248.636C218.504 248.324 218.696 248.024 218.931 247.736C219.17 247.443 219.431 247.185 219.714 246.96C219.998 246.731 220.29 246.547 220.591 246.41C220.896 246.268 221.19 246.191 221.473 246.18C221.709 246.171 221.946 246.189 222.185 246.235C222.428 246.277 222.672 246.337 222.916 246.415C223.165 246.493 223.415 246.583 223.665 246.685C223.919 246.786 224.179 246.889 224.443 246.995C224.717 247.114 225.016 247.232 225.341 247.349C225.666 247.462 225.999 247.562 226.342 247.651C226.684 247.734 227.025 247.802 227.366 247.853C227.712 247.9 228.04 247.917 228.35 247.905L228.118 249.613C227.945 249.694 227.779 249.782 227.621 249.876C227.462 249.966 227.298 250.054 227.13 250.139C227.23 250.33 227.375 250.478 227.565 250.582C227.755 250.686 227.953 250.761 228.159 250.809C228.37 250.856 228.57 250.883 228.761 250.889C228.956 250.895 229.109 250.896 229.221 250.892L229.499 250.881L229.569 252.66L229.291 252.671C228.383 252.707 227.607 252.58 226.965 252.29C226.322 252 225.85 251.571 225.549 251.003C225.09 251.253 224.615 251.497 224.123 251.735C223.631 251.973 223.12 252.188 222.589 252.381C222.058 252.569 221.503 252.725 220.923 252.851C220.348 252.976 219.745 253.051 219.115 253.076L217.704 253.132L217.633 251.352ZM222.621 243.893L221.339 245.28L219.959 243.998L221.234 242.618L222.621 243.893ZM229.218 250.892L230.698 250.833C230.916 250.824 231.15 250.804 231.399 250.77C231.653 250.733 231.885 250.67 232.095 250.583C232.309 250.491 232.483 250.365 232.616 250.207C232.753 250.048 232.817 249.842 232.807 249.587C232.802 249.466 232.77 249.298 232.71 249.082C232.651 248.867 232.574 248.628 232.48 248.367C232.386 248.107 232.276 247.837 232.149 247.559C232.026 247.281 231.898 247.021 231.763 246.781L233.337 245.925C233.463 246.184 233.59 246.46 233.718 246.752C233.845 247.044 233.96 247.346 234.06 247.657C234.165 247.964 234.252 248.274 234.32 248.587C234.388 248.9 234.428 249.207 234.44 249.508C234.461 250.045 234.38 250.506 234.196 250.889C234.011 251.272 233.75 251.589 233.412 251.839C233.078 252.085 232.682 252.27 232.222 252.395C231.768 252.52 231.279 252.592 230.755 252.613L229.288 252.671L229.218 250.892ZM232.044 243.525L230.909 244.754L229.667 243.613L230.801 242.377L232.044 243.525ZM234.672 243.428L233.537 244.663L232.294 243.515L233.429 242.287L234.672 243.428ZM249.441 245.668C249.647 245.613 249.86 245.577 250.077 245.559C250.137 245.552 250.197 245.547 250.257 245.545C250.41 245.539 250.578 245.544 250.759 245.56C250.946 245.575 251.142 245.612 251.348 245.668C251.559 245.725 251.762 245.8 251.956 245.895L251.39 247.588C251.145 247.491 250.892 247.429 250.631 247.403C250.519 247.393 250.41 247.39 250.303 247.395C250.15 247.401 249.998 247.421 249.846 247.455C249.689 247.475 249.522 247.528 249.344 247.614C249.166 247.7 248.99 247.809 248.814 247.941C248.643 248.069 248.477 248.217 248.316 248.386C248.161 248.55 248.024 248.725 247.906 248.91C247.788 249.091 247.693 249.278 247.622 249.472C247.555 249.66 247.525 249.842 247.532 250.018C247.54 250.217 247.592 250.373 247.69 250.485C247.792 250.593 247.923 250.68 248.083 250.748C248.248 250.811 248.436 250.862 248.646 250.9C248.856 250.933 249.076 250.976 249.306 251.027C249.586 251.081 249.87 251.144 250.155 251.216C250.441 251.288 250.701 251.394 250.934 251.533C251.167 251.668 251.355 251.85 251.499 252.081C251.623 252.285 251.691 252.54 251.703 252.846C251.705 252.888 251.704 252.932 251.701 252.978C251.693 253.466 251.599 253.899 251.419 254.278C251.239 254.661 251 254.995 250.7 255.281C250.4 255.567 250.055 255.808 249.663 256.004C249.272 256.205 248.861 256.37 248.43 256.499C247.999 256.627 247.562 256.724 247.119 256.788C246.676 256.852 246.253 256.892 245.849 256.908C245.034 256.94 244.283 256.861 243.598 256.67C242.918 256.479 242.337 256.177 241.856 255.764C241.376 255.357 241.019 254.837 240.785 254.206C240.629 253.794 240.542 253.336 240.522 252.831C240.511 252.562 240.518 252.283 240.544 251.994C240.569 251.687 240.608 251.375 240.66 251.057C240.712 250.739 240.77 250.433 240.832 250.138C240.895 249.839 240.96 249.555 241.028 249.288C241.097 249.021 241.159 248.786 241.216 248.584C241.273 248.382 241.322 248.218 241.364 248.091C241.405 247.964 241.43 247.891 241.438 247.872L242.992 248.43C242.895 248.782 242.806 249.113 242.725 249.422C242.645 249.727 242.573 250.027 242.511 250.322C242.448 250.617 242.392 250.914 242.344 251.213C242.3 251.507 242.264 251.819 242.235 252.15C242.223 252.304 242.219 252.452 242.225 252.596C242.238 252.925 242.314 253.249 242.452 253.569C242.594 253.893 242.826 254.173 243.146 254.411C243.472 254.654 243.859 254.829 244.309 254.936C244.759 255.043 245.248 255.087 245.776 255.066C246.393 255.041 246.963 254.97 247.487 254.852C248.017 254.738 248.473 254.594 248.856 254.421C249.243 254.248 249.549 254.057 249.773 253.849C250.001 253.645 250.125 253.438 250.145 253.228C250.139 253.187 250.093 253.149 250.008 253.115C249.923 253.082 249.818 253.049 249.691 253.017C249.565 252.989 249.424 252.96 249.27 252.929C249.12 252.902 248.975 252.873 248.835 252.842C248.442 252.76 248.076 252.663 247.737 252.551C247.399 252.444 247.103 252.296 246.849 252.106C246.596 251.916 246.393 251.672 246.242 251.371C246.091 251.071 246.006 250.689 245.988 250.226C245.991 249.715 246.077 249.215 246.248 248.725C246.419 248.236 246.657 247.788 246.961 247.381C247.269 246.97 247.633 246.614 248.053 246.314C248.473 246.015 248.935 245.799 249.441 245.668ZM256.933 251.573L256.655 251.584C255.714 251.622 254.991 251.414 254.486 250.96C253.98 250.507 253.706 249.803 253.664 248.849C253.658 248.7 253.653 248.457 253.649 248.118C253.644 247.775 253.632 247.358 253.613 246.866C253.601 246.574 253.586 246.262 253.569 245.928C253.55 245.59 253.53 245.248 253.507 244.9C253.484 244.549 253.456 244.199 253.423 243.852C253.396 243.501 253.364 243.163 253.327 242.84C253.291 242.512 253.251 242.207 253.208 241.926C253.164 241.64 253.117 241.388 253.066 241.172L254.79 240.582C254.852 240.848 254.911 241.176 254.969 241.563C255.026 241.946 255.079 242.357 255.129 242.796C255.179 243.235 255.22 243.684 255.252 244.142C255.289 244.595 255.315 245.023 255.331 245.427C255.341 245.672 255.353 245.934 255.369 246.212C255.385 246.485 255.396 246.726 255.405 246.934C255.412 247.111 255.416 247.277 255.418 247.435C255.424 247.588 255.427 247.736 255.428 247.88C255.434 248.024 255.437 248.165 255.438 248.305C255.444 248.444 255.449 248.585 255.455 248.729C255.457 248.766 255.458 248.803 255.46 248.84C255.466 249.007 255.488 249.154 255.526 249.283C255.568 249.411 255.635 249.517 255.727 249.602C255.818 249.682 255.932 249.738 256.067 249.77C256.208 249.801 256.368 249.813 256.549 249.806L256.862 249.794L256.933 251.573ZM256.587 249.805L256.719 249.799C256.881 249.793 257.018 249.787 257.129 249.783C257.245 249.774 257.356 249.765 257.462 249.756C257.568 249.742 257.679 249.731 257.795 249.722C257.915 249.708 258.061 249.693 258.232 249.677C257.993 249.394 257.811 249.081 257.686 248.737C257.566 248.394 257.498 248.042 257.484 247.68C257.474 247.425 257.492 247.172 257.537 246.919C257.583 246.662 257.657 246.418 257.759 246.186C257.861 245.955 257.989 245.739 258.144 245.538C258.303 245.336 258.489 245.16 258.701 245.007C258.663 244.999 258.609 244.981 258.538 244.951C258.472 244.921 258.366 244.87 258.219 244.797L259.187 243.066C259.206 243.066 259.272 243.091 259.385 243.142C259.499 243.189 259.645 243.252 259.825 243.334C260.004 243.415 260.208 243.509 260.435 243.616C260.666 243.718 260.905 243.824 261.15 243.935C261.396 244.042 261.642 244.148 261.887 244.254C262.133 244.36 262.362 244.456 262.574 244.54C263.013 244.718 263.399 244.874 263.734 245.009C264.069 245.144 264.367 245.281 264.628 245.419C264.893 245.557 265.129 245.703 265.334 245.858C265.545 246.012 265.745 246.196 265.934 246.412C266.236 246.752 266.443 247.125 266.557 247.529C266.621 247.754 266.658 247.977 266.667 248.2C266.674 248.385 266.653 248.623 266.605 248.912C266.556 249.202 266.415 249.528 266.184 249.89C265.957 250.251 265.651 250.558 265.267 250.81C265.135 250.894 264.974 250.968 264.781 251.032C264.593 251.095 264.394 251.149 264.182 251.195C263.975 251.24 263.767 251.276 263.56 251.303C263.356 251.329 263.176 251.346 263.019 251.352C262.824 251.36 262.606 251.359 262.364 251.35C262.127 251.346 261.885 251.33 261.638 251.303C261.396 251.275 261.157 251.238 260.924 251.192C260.69 251.145 260.481 251.086 260.297 251.015C259.867 251.171 259.35 251.296 258.745 251.39C258.141 251.488 257.489 251.551 256.79 251.579L256.658 251.584L256.587 249.805ZM263.442 247.109C263.459 247.545 263.404 247.977 263.277 248.404C263.155 248.827 262.962 249.217 262.697 249.576C262.776 249.582 262.853 249.586 262.928 249.587C263.002 249.589 263.074 249.589 263.143 249.586C263.44 249.574 263.712 249.531 263.96 249.456C264.212 249.376 264.428 249.277 264.609 249.159C264.79 249.04 264.931 248.904 265.032 248.752C265.132 248.599 265.179 248.44 265.173 248.273C265.167 248.125 265.114 247.974 265.016 247.82C264.921 247.666 264.795 247.517 264.636 247.375C264.477 247.228 264.29 247.092 264.077 246.966C263.863 246.835 263.635 246.719 263.394 246.617C263.407 246.695 263.417 246.779 263.425 246.866C263.433 246.95 263.439 247.031 263.442 247.109ZM260.441 245.878C260.404 245.875 260.367 245.874 260.329 245.875C260.186 245.881 260.037 245.938 259.884 246.046C259.73 246.15 259.587 246.297 259.456 246.488C259.329 246.679 259.233 246.889 259.167 247.119C259.114 247.302 259.091 247.475 259.098 247.637C259.1 247.688 259.104 247.737 259.11 247.783C259.135 247.93 259.18 248.079 259.246 248.23C259.317 248.38 259.402 248.521 259.5 248.651C259.602 248.777 259.716 248.889 259.84 248.986C259.965 249.079 260.097 249.143 260.238 249.179C260.422 249.13 260.595 249.06 260.759 248.97C260.927 248.876 261.075 248.754 261.204 248.605C261.337 248.455 261.448 248.277 261.537 248.069C261.627 247.857 261.684 247.611 261.71 247.331C261.716 247.257 261.718 247.187 261.716 247.122C261.71 246.969 261.671 246.82 261.6 246.674C261.529 246.524 261.427 246.391 261.292 246.276C261.162 246.156 261.019 246.064 260.864 246C260.708 245.932 260.567 245.892 260.441 245.878ZM288.195 250.331C287.811 250.346 287.46 250.328 287.142 250.275C286.829 250.223 286.542 250.132 286.282 250.003C286.021 249.87 285.787 249.698 285.579 249.488C285.371 249.274 285.184 249.014 285.019 248.71C283.791 249.937 281.908 250.602 279.368 250.703C277.918 250.751 276.71 250.62 275.746 250.31C274.787 249.996 274.068 249.484 273.59 248.774C273.381 248.434 273.233 248.078 273.144 247.706C273.077 247.434 273.038 247.162 273.028 246.889C273.023 246.782 273.023 246.608 273.028 246.367C273.037 246.125 273.092 245.821 273.193 245.455C273.295 245.084 273.434 244.733 273.611 244.401L274.986 245.189C274.86 245.417 274.758 245.643 274.679 245.869C274.6 246.095 274.553 246.32 274.539 246.543C274.533 246.627 274.531 246.711 274.535 246.794C274.54 246.933 274.563 247.092 274.602 247.272C274.647 247.451 274.743 247.647 274.89 247.859C275.029 248.072 275.233 248.249 275.503 248.392C275.773 248.534 276.098 248.646 276.477 248.729C276.861 248.811 277.29 248.866 277.765 248.894C278.239 248.921 278.75 248.924 279.297 248.902C279.793 248.883 280.262 248.845 280.706 248.791C281.149 248.736 281.559 248.662 281.936 248.568C282.317 248.469 282.661 248.351 282.966 248.213C283.272 248.071 283.532 247.903 283.747 247.709C283.945 247.543 284.102 247.354 284.219 247.14C284.335 246.927 284.431 246.705 284.505 246.474C284.58 246.239 284.64 246 284.686 245.757C284.732 245.514 284.783 245.28 284.839 245.055L286.455 245.422C286.376 245.671 286.317 245.924 286.276 246.181C286.239 246.415 286.225 246.641 286.233 246.858C286.234 246.882 286.237 246.958 286.242 247.088C286.247 247.213 286.286 247.378 286.36 247.584C286.433 247.786 286.544 247.962 286.694 248.114C286.844 248.261 287.036 248.374 287.271 248.453C287.511 248.532 287.8 248.564 288.139 248.551L288.389 248.541L288.46 250.321L288.195 250.331ZM279.539 243.602L278.404 244.83L277.161 243.689L278.296 242.453L279.539 243.602ZM282.167 243.504L281.032 244.74L279.789 243.592L280.924 242.363L282.167 243.504ZM288.109 248.552L289.228 248.508C289.446 248.499 289.668 248.479 289.894 248.446C290.124 248.409 290.331 248.348 290.513 248.262C290.695 248.171 290.841 248.047 290.951 247.889C291.065 247.732 291.117 247.525 291.107 247.27C291.102 247.15 291.07 246.982 291.011 246.766C290.951 246.55 290.874 246.312 290.78 246.051C290.686 245.79 290.576 245.521 290.449 245.243C290.326 244.964 290.198 244.705 290.063 244.464L291.637 243.608C291.763 243.868 291.89 244.144 292.018 244.435C292.146 244.727 292.26 245.029 292.36 245.341C292.465 245.648 292.552 245.958 292.62 246.27C292.688 246.583 292.728 246.89 292.74 247.192C292.761 247.711 292.691 248.161 292.529 248.544C292.368 248.921 292.135 249.237 291.829 249.49C291.523 249.739 291.153 249.928 290.717 250.057C290.286 250.19 289.808 250.267 289.285 250.288L288.18 250.332L288.109 248.552ZM291.849 252.449L290.567 253.836L289.187 252.554L290.462 251.174L291.849 252.449ZM293.853 253.239C294.528 253.078 295.135 252.873 295.673 252.624C296.216 252.379 296.683 252.11 297.075 251.816C297.467 251.522 297.782 251.213 298.02 250.888C298.262 250.562 298.419 250.24 298.49 249.922C298.114 249.937 297.748 249.94 297.39 249.931C297.032 249.922 296.692 249.889 296.37 249.832C296.052 249.78 295.756 249.699 295.483 249.589C295.214 249.474 294.978 249.321 294.775 249.13C294.577 248.933 294.419 248.694 294.301 248.411C294.183 248.128 294.116 247.787 294.1 247.388C294.09 247.133 294.108 246.866 294.152 246.585C294.197 246.305 294.265 246.031 294.356 245.763C294.452 245.49 294.572 245.232 294.715 244.99C294.859 244.743 295.026 244.525 295.218 244.336C295.41 244.143 295.625 243.988 295.861 243.872C296.098 243.756 296.355 243.692 296.634 243.681C297.352 243.653 298.02 243.946 298.639 244.562C298.842 244.772 299.028 245.009 299.196 245.271C299.364 245.534 299.512 245.816 299.64 246.117C299.768 246.418 299.874 246.734 299.957 247.065C300.044 247.391 300.104 247.728 300.136 248.074L300.602 248.056L300.672 249.835L300.061 249.86C299.93 250.552 299.688 251.179 299.335 251.74C298.981 252.307 298.549 252.804 298.036 253.233C297.529 253.662 296.958 254.021 296.325 254.311C295.691 254.6 295.029 254.817 294.339 254.96L293.853 253.239ZM296.705 245.468C296.584 245.472 296.456 245.529 296.321 245.636C296.186 245.743 296.064 245.881 295.955 246.047C295.845 246.21 295.755 246.39 295.684 246.587C295.617 246.785 295.588 246.976 295.595 247.162C295.603 247.356 295.653 247.517 295.747 247.643C295.844 247.769 295.964 247.869 296.107 247.942C296.253 248.015 296.416 248.069 296.593 248.104C296.776 248.134 296.955 248.152 297.132 248.159C297.229 248.164 297.336 248.167 297.452 248.167C297.568 248.162 297.686 248.16 297.807 248.16C297.932 248.16 298.055 248.157 298.176 248.152C298.296 248.147 298.41 248.143 298.516 248.139C298.496 247.968 298.453 247.784 298.39 247.587C298.331 247.385 298.256 247.184 298.164 246.983C298.073 246.782 297.97 246.592 297.856 246.41C297.742 246.225 297.619 246.063 297.488 245.924C297.362 245.78 297.232 245.667 297.099 245.584C296.966 245.501 296.834 245.462 296.705 245.468ZM300.318 248.067L301.437 248.023C301.655 248.014 301.877 247.994 302.103 247.961C302.334 247.924 302.54 247.863 302.722 247.777C302.904 247.686 303.05 247.562 303.16 247.404C303.274 247.246 303.327 247.04 303.316 246.785C303.312 246.665 303.279 246.497 303.22 246.281C303.16 246.065 303.083 245.827 302.989 245.566C302.896 245.305 302.785 245.036 302.658 244.758C302.536 244.479 302.407 244.22 302.272 243.979L303.846 243.123C303.973 243.383 304.1 243.658 304.227 243.95C304.355 244.242 304.469 244.544 304.569 244.856C304.674 245.163 304.761 245.472 304.829 245.785C304.897 246.098 304.937 246.405 304.949 246.707C304.97 247.226 304.9 247.676 304.738 248.059C304.577 248.436 304.344 248.752 304.038 249.005C303.732 249.254 303.362 249.443 302.926 249.572C302.495 249.705 302.018 249.782 301.494 249.803L300.389 249.847L300.318 248.067ZM303.586 240.773L302.304 242.161L300.924 240.879L302.198 239.499L303.586 240.773Z" fill="#5D6569"/>
<circle cx="211.404" cy="83.9846" r="30.4199" transform="rotate(-2.27519 211.404 83.9846)" fill="#FFCC21"/>
<path d="M224.333 81.0001V89.0001C224.333 89.2934 224.333 89.5868 224.307 89.8668C223.213 88.5201 221.547 87.6667 219.667 87.6667C218.253 87.6667 216.947 88.1601 215.92 88.9867C214.533 90.0801 213.667 91.7734 213.667 93.6667C213.667 95.5467 214.52 97.2134 215.867 98.3067C215.587 98.3334 215.293 98.3334 215 98.3334H207C200.333 98.3334 197.667 95.6667 197.667 89.0001V81.0001C197.667 74.3334 200.333 71.6667 207 71.6667H215C221.667 71.6667 224.333 74.3334 224.333 81.0001Z" stroke="white" stroke-width="3" stroke-linecap="round" stroke-linejoin="round"/>
<path d="M198.36 78.48H223.64" stroke="white" stroke-width="3" stroke-linecap="round" stroke-linejoin="round"/>
<path d="M206.36 71.8132V78.2932" stroke="white" stroke-width="3" stroke-linecap="round" stroke-linejoin="round"/>
<path d="M215.64 71.8132V77.6933" stroke="white" stroke-width="3" stroke-linecap="round" stroke-linejoin="round"/>
<path d="M225.667 93.6667C225.667 95.4667 224.867 97.0668 223.627 98.1734C222.56 99.0934 221.187 99.6667 219.667 99.6667C218.227 99.6667 216.893 99.1601 215.867 98.3067C214.52 97.2134 213.667 95.5467 213.667 93.6667C213.667 91.7734 214.533 90.0801 215.92 88.9867C216.947 88.1601 218.253 87.6667 219.667 87.6667C221.547 87.6667 223.213 88.5201 224.307 89.8668C225.16 90.8934 225.667 92.2267 225.667 93.6667Z" stroke="white" stroke-width="3" stroke-miterlimit="10" stroke-linecap="round" stroke-linejoin="round"/>
<path d="M220.04 91.7869V94.0402L218.173 95.1602" stroke="white" stroke-width="3" stroke-miterlimit="10" stroke-linecap="round" stroke-linejoin="round"/>
<defs>
<filter id="filter0_f_212_1054" x="29.6534" y="30.6335" width="375.345" height="277.106" filterUnits="userSpaceOnUse" color-interpolation-filters="sRGB">
<feFlood flood-opacity="0" result="BackgroundImageFix"/>
<feBlend mode="normal" in="SourceGraphic" in2="BackgroundImageFix" result="shape"/>
<feGaussianBlur stdDeviation="1" result="effect1_foregroundBlur_212_1054"/>
</filter>
<filter id="filter1_b_212_1054" x="-468.426" y="-467.366" width="1371.28" height="1268.9" filterUnits="userSpaceOnUse" color-interpolation-filters="sRGB">
<feFlood flood-opacity="0" result="BackgroundImageFix"/>
<feGaussianBlur in="BackgroundImageFix" stdDeviation="250"/>
<feComposite in2="SourceAlpha" operator="in" result="effect1_backgroundBlur_212_1054"/>
<feBlend mode="normal" in="SourceGraphic" in2="effect1_backgroundBlur_212_1054" result="shape"/>
</filter>
</defs>
</svg>
