<svg width="24" height="25" viewBox="0 0 24 25" fill="none" xmlns="http://www.w3.org/2000/svg">
    <g clip-path="url(#clip0_10_111)">
        <path d="M12.0001 6.875C11.209 6.875 10.4356 7.1096 9.77781 7.54912C9.12002 7.98865 8.60733 8.61336 8.30458 9.34427C8.00182 10.0752 7.92261 10.8794 8.07695 11.6554C8.23129 12.4313 8.61226 13.144 9.17167 13.7034C9.73108 14.2628 10.4438 14.6438 11.2197 14.7981C11.9957 14.9525 12.7999 14.8733 13.5308 14.5705C14.2617 14.2678 14.8864 13.7551 15.326 13.0973C15.7655 12.4395 16.0001 11.6661 16.0001 10.875C16.0001 9.81413 15.5787 8.79672 14.8285 8.04657C14.0784 7.29643 13.061 6.875 12.0001 6.875ZM12.0001 12.875C11.6045 12.875 11.2179 12.7577 10.889 12.5379C10.5601 12.3182 10.3037 12.0058 10.1523 11.6404C10.001 11.2749 9.96135 10.8728 10.0385 10.4848C10.1157 10.0969 10.3062 9.74049 10.5859 9.46079C10.8656 9.18108 11.222 8.9906 11.6099 8.91343C11.9979 8.83626 12.4 8.87587 12.7655 9.02724C13.1309 9.17862 13.4433 9.43496 13.663 9.76386C13.8828 10.0928 14.0001 10.4794 14.0001 10.875C14.0001 11.4054 13.7894 11.9141 13.4143 12.2892C13.0392 12.6643 12.5305 12.875 12.0001 12.875Z" fill="#666666"/>
        <path d="M11.9999 24.8751C11.1579 24.8794 10.327 24.6819 9.57698 24.2991C8.82694 23.9163 8.17951 23.3594 7.68892 22.675C3.87792 17.418 1.94492 13.466 1.94492 10.928C1.94492 8.2613 3.00428 5.70377 4.88996 3.81809C6.77564 1.93241 9.33316 0.873047 11.9999 0.873047C14.6667 0.873047 17.2242 1.93241 19.1099 3.81809C20.9956 5.70377 22.0549 8.2613 22.0549 10.928C22.0549 13.466 20.1219 17.418 16.3109 22.675C15.8203 23.3594 15.1729 23.9163 14.4229 24.2991C13.6728 24.6819 12.842 24.8794 11.9999 24.8751ZM11.9999 3.05605C9.91233 3.05843 7.91093 3.88877 6.43479 5.36492C4.95864 6.84106 4.1283 8.84246 4.12592 10.93C4.12592 12.94 6.01892 16.657 9.45492 21.396C9.74661 21.7978 10.1293 22.1248 10.5716 22.3503C11.014 22.5758 11.5034 22.6933 11.9999 22.6933C12.4964 22.6933 12.9859 22.5758 13.4282 22.3503C13.8705 22.1248 14.2532 21.7978 14.5449 21.396C17.9809 16.657 19.8739 12.94 19.8739 10.93C19.8715 8.84246 19.0412 6.84106 17.565 5.36492C16.0889 3.88877 14.0875 3.05843 11.9999 3.05605Z" fill="#666666"/>
    </g>
    <defs>
        <clipPath id="clip0_10_111">
            <rect width="24" height="24" fill="white" transform="translate(0 0.875)"/>
        </clipPath>
    </defs>
</svg>
