<svg width="24" height="25" viewBox="0 0 24 25" fill="none" xmlns="http://www.w3.org/2000/svg">
    <g clip-path="url(#clip0_10_116)">
        <path d="M19 1.875H5C3.67441 1.87659 2.40356 2.40388 1.46622 3.34122C0.528882 4.27856 0.00158786 5.54941 0 6.875L0 18.875C0.00158786 20.2006 0.528882 21.4714 1.46622 22.4088C2.40356 23.3461 3.67441 23.8734 5 23.875H19C20.3256 23.8734 21.5964 23.3461 22.5338 22.4088C23.4711 21.4714 23.9984 20.2006 24 18.875V6.875C23.9984 5.54941 23.4711 4.27856 22.5338 3.34122C21.5964 2.40388 20.3256 1.87659 19 1.875ZM5 3.875H19C19.5988 3.87618 20.1835 4.05651 20.679 4.3928C21.1744 4.72909 21.5579 5.20595 21.78 5.762L14.122 13.421C13.5584 13.9823 12.7954 14.2975 12 14.2975C11.2046 14.2975 10.4416 13.9823 9.878 13.421L2.22 5.762C2.44215 5.20595 2.82561 4.72909 3.32105 4.3928C3.81648 4.05651 4.40121 3.87618 5 3.875ZM19 21.875H5C4.20435 21.875 3.44129 21.5589 2.87868 20.9963C2.31607 20.4337 2 19.6706 2 18.875V8.375L8.464 14.835C9.40263 15.7713 10.6743 16.297 12 16.297C13.3257 16.297 14.5974 15.7713 15.536 14.835L22 8.375V18.875C22 19.6706 21.6839 20.4337 21.1213 20.9963C20.5587 21.5589 19.7956 21.875 19 21.875Z" fill="#666666"/>
    </g>
    <defs>
        <clipPath id="clip0_10_116">
            <rect width="24" height="24" fill="white" transform="translate(0 0.875)"/>
        </clipPath>
    </defs>
</svg>
