<svg width="1256" height="1008" viewBox="0 0 1256 1008" fill="none" xmlns="http://www.w3.org/2000/svg">
<g opacity="0.5" filter="url(#filter0_f_212_1017)">
<path fill-rule="evenodd" clip-rule="evenodd" d="M684.41 349.434L736.965 361.046C749.368 363.787 757.202 376.063 754.461 388.467L732.166 489.373C729.425 501.776 717.148 509.609 704.745 506.869L518.946 465.816C506.542 463.075 498.709 450.799 501.45 438.395L523.745 337.489C526.486 325.086 538.762 317.252 551.166 319.993L609.138 332.802C614.848 313.53 634.584 301.684 654.514 306.087C674.444 310.491 687.351 329.55 684.41 349.434Z" fill="#F5F7FB"/>
</g>
<g opacity="0.9" filter="url(#filter1_f_212_1017)">
<path fill-rule="evenodd" clip-rule="evenodd" d="M684.41 349.434L736.965 361.046C749.368 363.787 757.202 376.063 754.461 388.467L732.166 489.373C729.425 501.776 717.148 509.609 704.745 506.869L518.946 465.816C506.542 463.075 498.709 450.799 501.45 438.395L523.745 337.489C526.486 325.086 538.762 317.252 551.166 319.993L609.138 332.802C614.848 313.53 634.584 301.684 654.514 306.087C674.444 310.491 687.351 329.55 684.41 349.434Z" fill="#F8F8F8"/>
</g>
<path d="M603.936 401.432C603.467 401.328 603.047 401.197 602.679 401.038C602.31 400.879 601.982 400.685 601.694 400.455C601.412 400.227 601.171 399.96 600.972 399.655C600.773 399.344 600.612 398.987 600.487 398.586C599.531 399.093 598.446 399.384 597.23 399.46C596.02 399.537 594.653 399.407 593.13 399.071C591.149 398.633 589.561 398.054 588.367 397.333C587.174 396.606 586.403 395.717 586.053 394.666C585.938 394.326 585.884 393.952 585.891 393.544C585.898 393.136 585.967 392.703 586.098 392.245C586.235 391.788 586.434 391.319 586.695 390.836C586.962 390.349 587.299 389.86 587.705 389.367L589.467 390.986C589.305 391.181 589.144 391.398 588.985 391.636C588.826 391.868 588.69 392.108 588.576 392.356C588.469 392.6 588.388 392.843 588.335 393.086C588.288 393.325 588.295 393.55 588.355 393.759C588.455 394.113 588.669 394.422 588.997 394.684C589.33 394.948 589.739 395.181 590.223 395.383C590.712 395.586 591.257 395.766 591.858 395.922C592.46 396.073 593.084 396.22 593.729 396.362C594.323 396.494 594.891 396.598 595.432 396.676C595.974 396.748 596.478 396.789 596.946 396.797C597.42 396.801 597.854 396.769 598.249 396.702C598.651 396.63 599.005 396.516 599.313 396.358C599.594 396.218 599.836 396.049 600.04 395.851C600.244 395.653 600.428 395.438 600.592 395.207C600.757 394.97 600.905 394.718 601.035 394.45C601.171 394.183 601.305 393.913 601.437 393.639L603.681 394.768L602.935 396.491C602.827 396.74 602.779 396.982 602.793 397.216C602.806 397.451 602.88 397.669 603.013 397.87C603.148 398.066 603.341 398.243 603.591 398.399C603.849 398.551 604.161 398.667 604.529 398.749L604.835 398.816L604.242 401.499L603.936 401.432ZM595.839 390.158L593.89 391.402L592.605 389.399L594.597 388.121L595.854 390.09L597.803 388.847L599.088 390.849L597.096 392.128L595.839 390.158ZM604.493 398.741L605.639 398.994C605.877 399.046 606.142 399.084 606.433 399.107C606.731 399.131 607.011 399.128 607.273 399.097C607.542 399.061 607.775 398.988 607.971 398.877C608.175 398.762 608.301 398.594 608.35 398.373C608.38 398.237 608.385 398.027 608.364 397.744C608.345 397.454 608.307 397.131 608.249 396.774C608.193 396.411 608.122 396.031 608.038 395.632C607.954 395.234 607.866 394.852 607.775 394.488L610.469 393.818C610.549 394.21 610.621 394.624 610.685 395.059C610.755 395.496 610.806 395.935 610.839 396.376C610.873 396.817 610.88 397.252 610.863 397.681C610.852 398.106 610.805 398.506 610.723 398.879C610.573 399.558 610.331 400.117 609.997 400.553C609.663 400.99 609.257 401.322 608.779 401.549C608.303 401.77 607.765 401.892 607.167 401.914C606.568 401.936 605.929 401.872 605.25 401.722L603.9 401.424L604.493 398.741ZM605.614 406.683L604.146 404.381L606.447 402.913L607.916 405.214L605.614 406.683ZM609.627 406.225C610.461 406.242 611.232 406.202 611.943 406.104C612.652 406.011 613.286 405.869 613.845 405.678C614.408 405.494 614.888 405.27 615.284 405.008C615.686 404.746 615.993 404.458 616.205 404.143C615.962 404.089 615.706 404.026 615.437 403.955C615.166 403.889 614.944 403.831 614.771 403.781C614.221 403.612 613.735 403.392 613.314 403.121C612.892 402.855 612.546 402.541 612.276 402.179C612.012 401.812 611.836 401.399 611.748 400.94C611.659 400.481 611.675 399.98 611.795 399.437C611.871 399.091 611.986 398.746 612.14 398.4C612.294 398.054 612.477 397.723 612.689 397.408C612.907 397.094 613.151 396.807 613.422 396.546C613.699 396.286 613.994 396.069 614.305 395.895C614.617 395.72 614.943 395.602 615.283 395.541C615.63 395.475 615.985 395.482 616.347 395.562C616.777 395.657 617.156 395.824 617.483 396.063C617.812 396.296 618.097 396.578 618.338 396.911C618.585 397.244 618.784 397.618 618.936 398.031C619.095 398.44 619.214 398.87 619.292 399.321C619.378 399.767 619.425 400.223 619.435 400.689C619.452 401.149 619.437 401.597 619.388 402.032L619.753 402.112L619.16 404.795L618.617 404.675C618.212 405.459 617.692 406.133 617.056 406.699C616.425 407.272 615.717 407.736 614.932 408.091C614.147 408.446 613.305 408.697 612.406 408.842C611.513 408.989 610.604 409.032 609.68 408.97L609.627 406.225ZM615.752 398.254C615.638 398.205 615.493 398.217 615.317 398.291C615.141 398.359 614.968 398.47 614.798 398.622C614.629 398.769 614.476 398.94 614.338 399.135C614.199 399.33 614.111 399.527 614.073 399.726C614.036 399.92 614.064 400.092 614.155 400.243C614.246 400.394 614.376 400.532 614.544 400.659C614.713 400.779 614.91 400.885 615.133 400.976C615.362 401.068 615.591 401.148 615.819 401.216C616.047 401.285 616.263 401.341 616.467 401.386L616.994 401.503C616.986 401.133 616.959 400.774 616.911 400.425C616.869 400.077 616.8 399.759 616.703 399.47C616.607 399.182 616.481 398.932 616.326 398.719C616.171 398.507 615.98 398.352 615.752 398.254ZM619.407 402.036L620.553 402.289C620.791 402.342 621.055 402.379 621.347 402.402C621.645 402.426 621.924 402.423 622.187 402.392C622.456 402.356 622.689 402.283 622.885 402.172C623.089 402.057 623.215 401.889 623.264 401.668C623.294 401.532 623.299 401.322 623.278 401.039C623.259 400.75 623.22 400.427 623.163 400.069C623.106 399.707 623.036 399.326 622.952 398.928C622.868 398.529 622.78 398.147 622.688 397.783L625.383 397.114C625.463 397.505 625.535 397.919 625.599 398.355C625.669 398.792 625.72 399.23 625.753 399.671C625.786 400.112 625.794 400.547 625.776 400.976C625.766 401.402 625.719 401.801 625.636 402.174C625.486 402.854 625.244 403.412 624.91 403.849C624.576 404.285 624.171 404.617 623.693 404.844C623.217 405.065 622.679 405.187 622.081 405.209C621.482 405.231 620.843 405.167 620.164 405.017L618.814 404.719L619.407 402.036ZM623.627 395.791L622.159 393.489L624.46 392.021L625.929 394.322L623.627 395.791ZM650.566 411.735C650.096 411.631 649.677 411.5 649.308 411.341C648.939 411.182 648.611 410.988 648.323 410.758C648.041 410.53 647.801 410.263 647.601 409.957C647.402 409.646 647.241 409.29 647.116 408.889C646.161 409.396 645.075 409.687 643.859 409.763C642.649 409.84 641.282 409.71 639.76 409.374C637.778 408.936 636.191 408.357 634.996 407.636C633.803 406.909 633.032 406.02 632.682 404.969C632.567 404.629 632.514 404.255 632.521 403.847C632.528 403.439 632.597 403.006 632.727 402.548C632.864 402.091 633.063 401.622 633.324 401.139C633.592 400.652 633.928 400.162 634.334 399.67L636.096 401.289C635.934 401.484 635.773 401.701 635.614 401.939C635.456 402.171 635.319 402.411 635.205 402.659C635.098 402.903 635.018 403.146 634.964 403.389C634.917 403.628 634.924 403.853 634.984 404.062C635.084 404.416 635.298 404.725 635.626 404.987C635.96 405.251 636.368 405.484 636.852 405.686C637.341 405.889 637.887 406.069 638.487 406.225C639.089 406.376 639.713 406.523 640.358 406.665C640.952 406.796 641.52 406.901 642.061 406.979C642.603 407.051 643.108 407.092 643.575 407.1C644.049 407.104 644.483 407.072 644.878 407.005C645.28 406.933 645.635 406.819 645.943 406.661C646.223 406.521 646.465 406.352 646.669 406.154C646.873 405.956 647.057 405.741 647.221 405.51C647.386 405.273 647.534 405.021 647.664 404.753C647.801 404.486 647.934 404.216 648.066 403.942L650.31 405.07L649.565 406.794C649.456 407.043 649.409 407.285 649.422 407.519C649.436 407.754 649.509 407.972 649.643 408.173C649.777 408.369 649.97 408.546 650.22 408.702C650.478 408.854 650.79 408.97 651.158 409.052L651.464 409.119L650.871 411.802L650.566 411.735ZM642.468 400.461L640.519 401.705L639.234 399.702L641.226 398.424L642.483 400.393L644.432 399.15L645.717 401.152L643.725 402.431L642.468 400.461ZM651.419 409.109C651.629 409.155 651.881 409.211 652.175 409.276C652.476 409.337 652.795 409.398 653.132 409.461C653.475 409.519 653.825 409.572 654.182 409.622C654.54 409.671 654.883 409.702 655.213 409.716C655.548 409.73 655.858 409.725 656.142 409.699C656.427 409.672 656.668 409.616 656.866 409.529C656.108 409.439 655.421 409.308 654.806 409.136C654.197 408.966 653.688 408.729 653.28 408.425C652.878 408.122 652.594 407.742 652.428 407.284C652.269 406.821 652.262 406.25 652.406 405.569C652.475 405.258 652.577 404.945 652.712 404.63C652.848 404.31 653.013 404.005 653.208 403.716C653.409 403.422 653.635 403.154 653.884 402.912C654.134 402.665 654.405 402.461 654.696 402.299C654.993 402.139 655.305 402.03 655.632 401.972C655.967 401.909 656.312 401.917 656.669 401.996C657.116 402.095 657.505 402.27 657.835 402.521C658.171 402.773 658.454 403.079 658.683 403.438C658.92 403.793 659.106 404.188 659.241 404.621C659.383 405.056 659.48 405.502 659.533 405.96C659.587 406.417 659.601 406.874 659.577 407.332C659.554 407.79 659.497 408.222 659.406 408.63C659.256 409.309 659.029 409.879 658.726 410.341C658.428 410.803 658.069 411.175 657.651 411.457C657.232 411.738 656.763 411.943 656.242 412.071C655.727 412.195 655.176 412.26 654.587 412.267C654.003 412.274 653.395 412.232 652.762 412.14C652.128 412.053 651.486 411.938 650.835 411.794L650.529 411.727L651.122 409.043L651.419 409.109ZM656.055 404.692C655.926 404.658 655.782 404.667 655.621 404.721C655.468 404.77 655.32 404.85 655.177 404.961C655.033 405.072 654.903 405.206 654.785 405.364C654.672 405.524 654.596 405.694 654.556 405.875C654.519 406.045 654.539 406.195 654.617 406.325C654.701 406.456 654.818 406.571 654.968 406.67C655.119 406.768 655.293 406.854 655.49 406.927C655.695 406.996 655.895 407.055 656.092 407.105C656.296 407.15 656.486 407.189 656.663 407.222C656.841 407.25 656.985 407.27 657.095 407.282C657.1 407.016 657.089 406.743 657.062 406.464C657.04 406.186 656.991 405.926 656.914 405.683C656.837 405.441 656.729 405.23 656.591 405.051C656.452 404.872 656.274 404.752 656.055 404.692ZM656.792 401.115L655.324 398.813L657.625 397.345L659.094 399.646L656.792 401.115ZM663.939 414.69C663.232 414.533 662.653 414.304 662.203 414.003C661.752 413.708 661.408 413.358 661.17 412.956C660.932 412.553 660.793 412.109 660.752 411.625C660.717 411.137 660.758 410.626 660.876 410.094C660.936 409.823 661.016 409.487 661.116 409.088C661.218 408.683 661.327 408.214 661.445 407.682C661.562 407.15 661.688 406.566 661.823 405.931C661.958 405.29 662.083 404.647 662.196 404.001C662.314 403.356 662.413 402.734 662.492 402.134C662.577 401.535 662.625 401.009 662.637 400.554L665.346 400.342C665.337 400.732 665.299 401.187 665.232 401.706C665.171 402.221 665.094 402.759 665 403.32C664.906 403.881 664.802 404.443 664.69 405.006C664.583 405.57 664.479 406.093 664.379 406.576C664.29 407.002 664.183 407.447 664.057 407.912C663.937 408.372 663.824 408.816 663.718 409.244C663.613 409.666 663.53 410.052 663.471 410.401C663.417 410.751 663.413 411.026 663.458 411.226C663.48 411.367 663.52 411.48 663.579 411.564C663.643 411.65 663.723 411.721 663.817 411.777C663.911 411.834 664.017 411.878 664.135 411.91C664.258 411.943 664.394 411.976 664.541 412.008L664.77 412.059L664.177 414.742L663.939 414.69ZM664.434 411.985L666.472 412.435C666.715 412.489 666.986 412.537 667.286 412.579C667.586 412.616 667.873 412.623 668.145 412.6C668.423 412.578 668.664 412.51 668.867 412.394C669.078 412.275 669.211 412.087 669.267 411.833C669.297 411.697 669.299 411.487 669.273 411.202C669.254 410.913 669.213 410.589 669.149 410.23C669.093 409.868 669.02 409.486 668.93 409.087C668.846 408.688 668.758 408.306 668.667 407.942L671.361 407.273C671.441 407.664 671.513 408.078 671.577 408.514C671.647 408.951 671.698 409.389 671.731 409.83C671.765 410.271 671.772 410.706 671.755 411.136C671.744 411.561 671.697 411.96 671.615 412.334C671.46 413.035 671.197 413.604 670.828 414.039C670.466 414.469 670.03 414.791 669.519 415.005C669.01 415.213 668.444 415.32 667.819 415.324C667.194 415.334 666.541 415.264 665.862 415.114L663.841 414.668L664.434 411.985ZM666.603 417.887L664.654 419.131L663.369 417.128L665.361 415.85L666.618 417.819L668.567 416.576L669.852 418.579L667.86 419.857L666.603 417.887ZM678.575 411.396C678.616 411.773 678.655 412.185 678.693 412.633C678.738 413.076 678.766 413.528 678.777 413.987C678.794 414.448 678.791 414.905 678.768 415.357C678.747 415.803 678.694 416.216 678.61 416.595C678.493 417.127 678.305 417.629 678.046 418.1C677.792 418.579 677.479 419.026 677.108 419.443C676.743 419.861 676.331 420.248 675.872 420.603C675.414 420.959 674.921 421.281 674.395 421.568C673.867 421.861 673.315 422.116 672.738 422.333C672.161 422.556 671.574 422.741 670.977 422.888L669.906 420.398C670.359 420.285 670.824 420.144 671.3 419.976C671.769 419.813 672.226 419.626 672.671 419.415C673.121 419.206 673.545 418.976 673.945 418.726C674.35 418.477 674.711 418.213 675.029 417.932C675.352 417.653 675.622 417.357 675.84 417.043C676.056 416.735 676.201 416.416 676.273 416.088C676.326 415.85 676.349 415.585 676.342 415.293C676.341 415.002 676.319 414.685 676.276 414.343C676.234 413.995 676.176 413.626 676.102 413.236C676.035 412.841 675.959 412.421 675.873 411.974L678.575 411.396ZM680.886 414.275C681.09 414.481 681.333 414.695 681.617 414.918C681.905 415.142 682.203 415.356 682.508 415.56C682.82 415.759 683.126 415.934 683.425 416.083C683.725 416.232 683.99 416.333 684.222 416.384C684.353 416.413 684.533 416.441 684.765 416.468C685.002 416.497 685.238 416.504 685.472 416.491C685.714 416.473 685.93 416.423 686.12 416.34C686.316 416.259 686.441 416.123 686.495 415.933C686.549 415.714 686.537 415.45 686.456 415.141C686.382 414.834 686.259 414.504 686.087 414.151C685.923 413.794 685.719 413.428 685.475 413.054C685.238 412.675 684.987 412.308 684.721 411.952C684.456 411.591 684.187 411.252 683.912 410.936C683.639 410.615 683.383 410.336 683.144 410.099L685.141 408.198C685.605 408.704 686.052 409.257 686.484 409.857C686.922 410.453 687.309 411.067 687.644 411.699C687.985 412.332 688.26 412.972 688.467 413.617C688.682 414.258 688.799 414.884 688.818 415.494C688.827 415.668 688.822 415.842 688.801 416.015C688.782 416.183 688.755 416.343 688.722 416.496C688.605 417.023 688.396 417.484 688.095 417.881C687.795 418.272 687.425 418.588 686.986 418.829C686.554 419.066 686.064 419.216 685.515 419.279C684.967 419.342 684.387 419.306 683.776 419.171C683.731 419.161 683.686 419.148 683.642 419.132C683.597 419.122 683.551 419.112 683.506 419.102C683.116 419.016 682.723 418.884 682.329 418.708C681.939 418.539 681.558 418.342 681.186 418.117C680.819 417.894 680.467 417.65 680.127 417.385C679.794 417.121 679.488 416.855 679.209 416.585L680.886 414.275Z" fill="#26292B"/>
<path d="M569.322 423.159C569.018 423.088 568.746 422.999 568.508 422.89C568.274 422.782 568.069 422.649 567.892 422.493C567.716 422.332 567.57 422.148 567.451 421.939C567.334 421.726 567.243 421.483 567.179 421.209C565.954 421.909 564.336 422.027 562.323 421.564C561.176 421.292 560.257 420.931 559.568 420.482C558.883 420.031 558.429 419.476 558.206 418.817C558.115 418.506 558.074 418.195 558.084 417.884C558.09 417.658 558.118 417.436 558.168 417.219C558.187 417.135 558.224 416.998 558.279 416.81C558.338 416.622 558.446 416.396 558.604 416.131C558.763 415.862 558.947 415.616 559.157 415.394L560.066 416.305C559.919 416.457 559.79 416.613 559.68 416.773C559.57 416.933 559.485 417.099 559.426 417.271C559.403 417.336 559.385 417.401 559.369 417.467C559.344 417.577 559.328 417.707 559.32 417.856C559.317 418.006 559.35 418.18 559.421 418.378C559.484 418.574 559.606 418.757 559.787 418.926C559.969 419.096 560.199 419.253 560.479 419.399C560.762 419.545 561.087 419.68 561.453 419.803C561.819 419.926 562.219 420.037 562.652 420.137C563.045 420.228 563.421 420.299 563.78 420.351C564.14 420.403 564.477 420.432 564.792 420.439C565.112 420.443 565.407 420.424 565.676 420.381C565.945 420.335 566.185 420.259 566.395 420.153C566.586 420.065 566.749 419.95 566.887 419.808C567.024 419.665 567.146 419.512 567.254 419.347C567.362 419.179 567.46 419.004 567.548 418.823C567.636 418.642 567.726 418.47 567.818 418.305L569.007 418.939C568.892 419.117 568.791 419.303 568.704 419.495C568.625 419.671 568.566 419.844 568.526 420.017C568.522 420.035 568.508 420.096 568.484 420.199C568.462 420.298 568.457 420.436 568.47 420.613C568.484 420.787 568.534 420.949 568.619 421.1C568.705 421.247 568.832 421.377 568.999 421.489C569.17 421.602 569.39 421.689 569.658 421.751L569.856 421.797L569.532 423.207L569.322 423.159ZM563.974 416.034L562.822 416.754L562.092 415.594L563.245 414.868L563.974 416.034ZM566.055 416.519L564.902 417.245L564.173 416.079L565.325 415.359L566.055 416.519ZM569.635 421.746L570.362 421.913C570.415 421.682 570.5 421.431 570.616 421.16C570.737 420.89 570.88 420.621 571.046 420.354C571.212 420.083 571.397 419.826 571.6 419.583C571.808 419.336 572.025 419.125 572.251 418.949C572.477 418.773 572.708 418.643 572.944 418.558C573.18 418.473 573.412 418.455 573.641 418.504C573.648 418.506 573.656 418.507 573.663 418.509C573.828 418.547 573.978 418.62 574.111 418.728C574.249 418.834 574.37 418.966 574.472 419.125C574.575 419.284 574.656 419.461 574.715 419.656C574.778 419.852 574.819 420.055 574.836 420.264C574.854 420.473 574.849 420.681 574.82 420.887C574.811 420.946 574.799 421.006 574.785 421.064C574.752 421.208 574.707 421.346 574.649 421.48C574.53 421.746 574.372 422.004 574.175 422.252C573.983 422.502 573.757 422.724 573.5 422.92C573.246 423.113 572.966 423.271 572.66 423.394C572.353 423.516 572.03 423.583 571.691 423.594C571.709 423.687 571.742 423.811 571.791 423.965C571.84 424.123 571.894 424.284 571.953 424.449C572.015 424.614 572.077 424.773 572.138 424.927C572.203 425.081 572.26 425.202 572.31 425.291C572.316 425.246 572.324 425.201 572.335 425.157C572.377 424.974 572.449 424.786 572.552 424.593C572.653 424.403 572.785 424.217 572.947 424.034C573.112 423.856 573.296 423.697 573.498 423.558C573.704 423.419 573.915 423.308 574.132 423.222C574.353 423.134 574.575 423.077 574.798 423.051C575.024 423.026 575.24 423.037 575.445 423.084L575.556 423.109L575.231 424.52L575.093 424.488C574.917 424.447 574.734 424.453 574.544 424.506C574.356 424.564 574.179 424.652 574.012 424.772C573.846 424.893 573.7 425.037 573.576 425.206C573.456 425.375 573.374 425.554 573.331 425.741C573.312 425.825 573.298 425.903 573.289 425.975C573.283 426.051 573.285 426.125 573.296 426.197C573.305 426.272 573.325 426.348 573.354 426.425C573.382 426.501 573.421 426.583 573.471 426.672L572.35 427.533C572.043 427.219 571.771 426.899 571.533 426.574C571.294 426.252 571.088 425.92 570.915 425.579C570.746 425.238 570.609 424.886 570.503 424.521C570.398 424.156 570.327 423.777 570.29 423.381L569.31 423.156L569.635 421.746ZM573.629 421.024C573.635 420.999 573.641 420.971 573.648 420.942C573.67 420.846 573.682 420.743 573.685 420.631C573.688 420.516 573.676 420.399 573.649 420.281C573.622 420.162 573.582 420.053 573.528 419.951C573.474 419.85 573.408 419.765 573.331 419.697C573.245 419.704 573.143 419.752 573.025 419.841C572.913 419.927 572.796 420.04 572.675 420.178C572.554 420.317 572.433 420.474 572.311 420.651C572.194 420.825 572.085 421.005 571.984 421.191C571.884 421.372 571.798 421.552 571.727 421.729C571.67 421.874 571.628 422.006 571.601 422.123C571.594 422.152 571.587 422.182 571.581 422.211L571.592 422.214C571.786 422.259 571.989 422.259 572.2 422.215C572.415 422.172 572.619 422.095 572.81 421.984C573.002 421.874 573.171 421.737 573.317 421.573C573.464 421.406 573.568 421.223 573.629 421.024ZM575.338 423.059L576.533 423.335C576.988 423.439 577.461 423.504 577.95 423.528C578.444 423.549 578.94 423.543 579.439 423.511C579.938 423.475 580.431 423.417 580.918 423.335C581.404 423.254 581.868 423.162 582.31 423.059C582.01 422.916 581.737 422.757 581.492 422.58C581.247 422.4 581.016 422.227 580.799 422.061C580.582 421.895 580.371 421.746 580.166 421.614C579.961 421.481 579.748 421.39 579.527 421.339C579.399 421.309 579.272 421.305 579.147 421.327C579.027 421.345 578.911 421.379 578.8 421.426C578.688 421.474 578.584 421.531 578.487 421.598C578.394 421.666 578.309 421.733 578.232 421.8C578.159 421.865 578.097 421.924 578.046 421.978C577.995 422.032 577.959 422.07 577.939 422.092L576.964 421.085C577.14 420.893 577.338 420.715 577.557 420.549C577.778 420.379 578.012 420.238 578.258 420.124C578.509 420.008 578.769 419.931 579.037 419.892C579.306 419.849 579.578 419.86 579.853 419.923C580.136 419.988 580.408 420.092 580.669 420.233C580.932 420.371 581.185 420.53 581.43 420.71C581.679 420.887 581.926 421.074 582.171 421.269C582.416 421.465 582.664 421.653 582.916 421.835C583.173 422.014 583.435 422.177 583.703 422.324C583.971 422.467 584.256 422.575 584.556 422.648L584.113 424.042C583.542 424.17 582.946 424.307 582.325 424.454C581.703 424.601 581.06 424.722 580.397 424.816C579.734 424.907 579.052 424.957 578.35 424.965C577.652 424.971 576.939 424.897 576.208 424.745L575.013 424.469L575.338 423.059ZM580.205 427.539L578.904 428.353L578.095 427.053L579.39 426.243L580.205 427.539ZM591.018 432.146C590.452 432.016 589.958 431.813 589.534 431.538C589.11 431.262 588.77 430.929 588.512 430.537C588.258 430.146 588.093 429.702 588.018 429.205C587.942 428.712 587.97 428.181 588.101 427.612C588.235 427.028 588.453 426.469 588.754 425.935C589.059 425.402 589.441 424.918 589.901 424.482L590.804 425.52C590.717 425.596 590.603 425.713 590.463 425.87C590.326 426.028 590.186 426.215 590.044 426.429C589.902 426.644 589.766 426.88 589.637 427.136C589.512 427.393 589.418 427.66 589.355 427.935C589.279 428.262 589.279 428.575 589.353 428.874C589.431 429.175 589.565 429.447 589.756 429.692C589.946 429.941 590.183 430.154 590.467 430.332C590.754 430.514 591.069 430.648 591.413 430.735C591.431 430.739 591.449 430.744 591.468 430.748C591.725 430.807 591.982 430.839 592.24 430.845C592.501 430.854 592.755 430.834 593.003 430.782C593.249 430.735 593.481 430.661 593.698 430.56C593.914 430.459 594.107 430.335 594.276 430.188C594.445 430.042 594.589 429.874 594.706 429.684C594.801 429.52 594.871 429.343 594.915 429.152C594.922 429.123 594.929 429.092 594.937 429.059C594.968 428.888 594.982 428.694 594.978 428.477C594.978 428.256 594.968 428.032 594.948 427.802C594.927 427.573 594.899 427.349 594.865 427.128C594.835 426.905 594.804 426.706 594.77 426.532C594.737 426.358 594.707 426.218 594.682 426.111C594.656 426.005 594.641 425.951 594.638 425.95L596.098 425.527C596.106 425.544 596.121 425.612 596.144 425.729C596.168 425.847 596.192 425.999 596.219 426.187C596.245 426.375 596.271 426.59 596.297 426.831C596.323 427.069 596.34 427.321 596.349 427.586C596.362 427.848 596.363 428.113 596.351 428.381C596.344 428.65 596.318 428.903 596.275 429.141C596.26 429.222 596.244 429.302 596.226 429.379C596.168 429.632 596.08 429.896 595.962 430.171C595.844 430.449 595.679 430.72 595.467 430.985C595.259 431.25 595.011 431.483 594.721 431.683C594.431 431.883 594.102 432.037 593.733 432.145C593.366 432.258 592.957 432.317 592.503 432.32C592.049 432.328 591.554 432.27 591.018 432.146ZM594.138 424.948L592.837 425.762L592.028 424.462L593.323 423.652L594.138 424.948ZM600.172 430.264L599.951 430.214C599.206 430.042 598.684 429.724 598.384 429.261C598.085 428.798 598.021 428.187 598.191 427.43C598.218 427.313 598.266 427.121 598.335 426.854C598.405 426.584 598.485 426.255 598.575 425.866C598.628 425.634 598.683 425.386 598.741 425.121C598.799 424.852 598.856 424.579 598.912 424.302C598.969 424.021 599.022 423.741 599.07 423.462C599.124 423.181 599.171 422.909 599.212 422.648C599.253 422.383 599.287 422.136 599.313 421.906C599.34 421.672 599.356 421.465 599.363 421.285L600.841 421.19C600.832 421.413 600.809 421.682 600.771 421.998C600.734 422.31 600.688 422.644 600.633 422.999C600.578 423.353 600.515 423.714 600.442 424.08C600.374 424.443 600.303 424.785 600.229 425.104C600.184 425.299 600.138 425.506 600.091 425.728C600.045 425.945 600.003 426.136 599.965 426.302C599.933 426.441 599.901 426.573 599.868 426.697C599.84 426.818 599.811 426.935 599.781 427.048C599.755 427.162 599.728 427.274 599.699 427.383C599.673 427.493 599.647 427.605 599.621 427.719C599.614 427.748 599.608 427.778 599.601 427.807C599.57 427.939 599.556 428.06 599.558 428.168C599.564 428.278 599.594 428.376 599.647 428.462C599.702 428.544 599.779 428.612 599.879 428.666C599.982 428.72 600.105 428.764 600.249 428.797L600.496 428.854L600.172 430.264ZM600.278 428.804L600.967 428.963C601.147 429.004 601.333 429.045 601.524 429.085C601.72 429.127 601.91 429.157 602.095 429.176C602.28 429.196 602.459 429.2 602.631 429.19C602.804 429.179 602.961 429.144 603.103 429.084C603.245 429.02 603.367 428.928 603.468 428.808C603.57 428.685 603.644 428.522 603.69 428.32C603.751 428.055 603.749 427.771 603.684 427.466C603.62 427.157 603.509 426.832 603.352 426.49C603.196 426.145 603.001 425.783 602.767 425.404C602.537 425.026 602.284 424.638 602.009 424.238L602.461 422.956L607.294 422.016L607.549 423.455L603.6 424.181C603.733 424.358 603.862 424.543 603.988 424.734C604.118 424.927 604.246 425.136 604.372 425.362C604.56 425.703 604.709 426.035 604.821 426.359C604.933 426.678 605.012 426.981 605.058 427.266C605.108 427.552 605.13 427.818 605.124 428.064C605.121 428.311 605.097 428.532 605.052 428.726C604.964 429.112 604.81 429.444 604.591 429.722C604.376 430.001 604.12 430.223 603.823 430.386C603.527 430.546 603.202 430.649 602.847 430.695C602.497 430.738 602.144 430.719 601.788 430.637L599.954 430.214L600.278 428.804ZM607.155 421.462L602.496 422.349L602.696 421.658L607.041 420.85L607.155 421.462ZM608.551 432.195C608.092 432.089 607.683 431.886 607.323 431.587C606.966 431.288 606.652 430.914 606.38 430.465L607.453 429.511C607.716 429.897 607.976 430.193 608.234 430.399C608.493 430.602 608.755 430.733 609.019 430.794C609.147 430.824 609.286 430.844 609.434 430.855C609.587 430.863 609.74 430.862 609.893 430.851C610.047 430.84 610.194 430.82 610.336 430.79C610.483 430.758 610.612 430.719 610.724 430.671L609.943 426.025L611.374 425.78C611.4 425.956 611.43 426.145 611.465 426.346C611.499 426.548 611.536 426.765 611.575 426.998L612.19 430.649C612.213 430.786 612.24 430.914 612.27 431.033C612.305 431.149 612.351 431.254 612.406 431.348C612.466 431.44 612.539 431.518 612.624 431.584C612.714 431.647 612.823 431.694 612.952 431.723L613.079 431.753L612.754 433.163L612.627 433.134C612.396 433.08 612.2 433.016 612.04 432.94C611.882 432.869 611.747 432.79 611.636 432.702C611.526 432.611 611.432 432.514 611.355 432.411C611.279 432.305 611.208 432.194 611.142 432.078C610.935 432.17 610.73 432.238 610.526 432.284C610.322 432.33 610.113 432.355 609.899 432.36C609.686 432.365 609.468 432.352 609.247 432.32C609.026 432.292 608.794 432.25 608.551 432.195ZM616.963 432.647L616.639 434.058L616.529 434.032C616.172 433.95 615.881 433.823 615.654 433.651C615.43 433.479 615.253 433.284 615.122 433.064C614.82 433.215 614.476 433.298 614.09 433.314C613.707 433.33 613.257 433.279 612.739 433.159L612.535 433.112L612.86 431.702L613.064 431.749C613.626 431.879 614.07 431.88 614.397 431.755C614.728 431.626 614.938 431.369 615.027 430.983C615.055 430.858 615.069 430.682 615.068 430.453C615.067 430.221 615.057 429.931 615.036 429.582L616.479 429.514C616.489 429.687 616.493 429.84 616.489 429.974C616.489 430.106 616.484 430.238 616.473 430.371C616.466 430.501 616.451 430.641 616.428 430.79C616.41 430.937 616.386 431.109 616.356 431.307C616.34 431.427 616.327 431.557 616.318 431.698C616.313 431.836 616.325 431.969 616.354 432.095C616.384 432.218 616.436 432.329 616.51 432.427C616.588 432.522 616.703 432.587 616.853 432.622L616.963 432.647ZM616.76 427.613L615.459 428.426L614.651 427.127L615.945 426.317L616.76 427.613ZM616.745 432.597L617.631 432.801C617.804 432.841 617.982 432.873 618.167 432.896C618.355 432.916 618.53 432.912 618.691 432.883C618.854 432.851 618.994 432.785 619.114 432.685C619.238 432.585 619.322 432.435 619.369 432.233C619.391 432.137 619.402 431.999 619.401 431.817C619.4 431.635 619.391 431.432 619.373 431.207C619.355 430.983 619.326 430.748 619.286 430.503C619.25 430.259 619.204 430.028 619.15 429.81L620.567 429.475C620.61 429.706 620.651 429.949 620.689 430.205C620.726 430.461 620.751 430.722 620.764 430.988C620.78 431.251 620.782 431.512 620.769 431.772C620.755 432.032 620.721 432.281 620.666 432.52C620.571 432.931 620.42 433.27 620.212 433.535C620.005 433.797 619.754 433.994 619.46 434.127C619.168 434.257 618.837 434.326 618.467 434.334C618.101 434.346 617.711 434.304 617.296 434.209L616.42 434.007L616.745 432.597ZM620.865 427.578L619.564 428.392L618.755 427.092L620.05 426.282L620.865 427.578ZM624.691 426.684C624.621 427.407 624.531 428.092 624.421 428.739C624.311 429.383 624.19 430.01 624.057 430.621C623.945 431.141 623.836 431.621 623.731 432.06C623.63 432.501 623.531 432.911 623.436 433.292C623.342 433.668 623.249 434.02 623.158 434.347C623.068 434.67 622.983 434.974 622.902 435.257L621.408 435.145C621.765 433.951 622.05 432.889 622.264 431.96C622.35 431.586 622.425 431.234 622.49 430.904C622.634 430.145 622.763 429.43 622.879 428.761C622.995 428.088 623.092 427.441 623.169 426.821L624.691 426.684ZM627.376 432.674C627.397 432.922 627.416 433.182 627.435 433.453C627.458 433.721 627.471 433.991 627.475 434.262C627.481 434.535 627.475 434.804 627.457 435.07C627.439 435.333 627.402 435.585 627.346 435.828C627.27 436.158 627.144 436.468 626.97 436.756C626.798 437.049 626.589 437.32 626.342 437.569C626.098 437.822 625.822 438.052 625.516 438.26C625.212 438.468 624.89 438.657 624.55 438.826C624.209 438.995 623.856 439.144 623.49 439.272C623.124 439.401 622.759 439.508 622.395 439.594L622.058 438.188C622.348 438.12 622.638 438.036 622.928 437.936C623.217 437.841 623.495 437.731 623.763 437.607C624.035 437.484 624.291 437.348 624.531 437.198C624.774 437.049 624.989 436.886 625.177 436.709C625.368 436.532 625.53 436.343 625.661 436.142C625.793 435.94 625.884 435.727 625.936 435.503C625.984 435.294 626.011 435.068 626.017 434.826C626.022 434.583 626.016 434.342 625.998 434.102C625.984 433.859 625.965 433.625 625.939 433.398C625.918 433.173 625.902 432.974 625.891 432.801L627.376 432.674ZM635.12 442.096C634.488 441.951 633.923 441.737 633.423 441.456C632.922 441.178 632.519 440.838 632.214 440.435C631.908 440.036 631.714 439.577 631.632 439.06C631.563 438.653 631.583 438.215 631.691 437.745C631.72 437.62 631.755 437.493 631.796 437.363C631.877 437.115 631.966 436.863 632.063 436.607C632.165 436.352 632.282 436.087 632.415 435.812C632.552 435.534 632.712 435.244 632.893 434.942C633.075 434.64 633.289 434.318 633.534 433.976L634.548 434.761C634.311 435.1 634.106 435.419 633.933 435.715C633.761 436.008 633.615 436.284 633.494 436.542C633.376 436.801 633.279 437.047 633.202 437.281C633.125 437.515 633.061 437.742 633.01 437.962C632.949 438.226 632.927 438.471 632.945 438.695C632.967 438.921 633.012 439.128 633.08 439.318C633.179 439.546 633.324 439.736 633.517 439.888C633.709 440.045 633.919 440.174 634.147 440.277C634.378 440.381 634.609 440.463 634.839 440.523C635.071 440.589 635.274 440.641 635.446 440.681C635.549 440.704 635.699 440.731 635.897 440.761C636.099 440.792 636.32 440.816 636.56 440.833C636.803 440.85 637.054 440.858 637.314 440.856C637.574 440.854 637.813 440.831 638.031 440.789C638.254 440.747 638.441 440.682 638.593 440.593C638.748 440.506 638.844 440.383 638.88 440.225C638.886 440.199 638.863 440.151 638.809 440.081C638.759 440.015 638.684 439.936 638.585 439.844C638.49 439.752 638.376 439.652 638.243 439.544C638.108 439.44 637.962 439.335 637.805 439.229C637.571 439.086 637.334 438.966 637.093 438.868C636.853 438.77 636.615 438.67 636.379 438.57L636.883 437.236L641.257 438.243L640.932 439.653L639.902 439.416C640.007 439.63 640.064 439.828 640.072 440.012C640.083 440.2 640.075 440.361 640.048 440.494C639.959 440.813 639.81 441.083 639.601 441.301C639.391 441.524 639.145 441.703 638.862 441.839C638.583 441.979 638.277 442.081 637.945 442.144C637.613 442.21 637.279 442.249 636.944 442.261C636.609 442.273 636.283 442.262 635.966 442.227C635.652 442.197 635.37 442.154 635.12 442.096ZM641.042 438.194L641.147 438.218C641.275 438.248 641.383 438.272 641.472 438.293C641.564 438.31 641.653 438.327 641.739 438.343C641.825 438.355 641.914 438.37 642.007 438.387C642.104 438.402 642.221 438.421 642.359 438.445C642.232 438.172 642.156 437.888 642.132 437.592C642.111 437.297 642.133 437.007 642.199 436.72C642.246 436.518 642.314 436.323 642.404 436.135C642.494 435.943 642.604 435.768 642.734 435.608C642.863 435.448 643.01 435.306 643.174 435.182C643.342 435.058 643.525 434.959 643.724 434.885C643.696 434.871 643.658 434.845 643.609 434.806C643.563 434.769 643.491 434.705 643.391 434.617L644.52 433.467C644.535 433.471 644.581 433.505 644.659 433.569C644.738 433.63 644.839 433.711 644.963 433.813C645.086 433.915 645.226 434.032 645.381 434.164C645.54 434.294 645.705 434.429 645.874 434.568C646.043 434.704 646.213 434.84 646.383 434.975C646.553 435.111 646.712 435.235 646.86 435.346C647.166 435.579 647.436 435.784 647.67 435.962C647.903 436.139 648.107 436.31 648.282 436.474C648.461 436.639 648.614 436.804 648.743 436.969C648.875 437.135 648.992 437.322 649.094 437.531C649.258 437.863 649.341 438.199 649.344 438.54C649.346 438.73 649.327 438.913 649.287 439.089C649.253 439.236 649.186 439.418 649.086 439.635C648.985 439.851 648.806 440.077 648.547 440.311C648.292 440.546 647.986 440.721 647.631 440.837C647.51 440.875 647.368 440.898 647.203 440.906C647.043 440.916 646.874 440.916 646.699 440.906C646.527 440.898 646.356 440.882 646.188 440.858C646.023 440.836 645.878 440.81 645.753 440.781C645.599 440.746 645.428 440.699 645.241 440.64C645.056 440.586 644.869 440.522 644.682 440.447C644.497 440.374 644.319 440.294 644.145 440.208C643.972 440.121 643.821 440.031 643.692 439.935C643.321 439.966 642.889 439.953 642.395 439.898C641.901 439.846 641.376 439.756 640.822 439.628L640.717 439.604L641.042 438.194ZM646.991 437.546C646.912 437.891 646.777 438.217 646.586 438.525C646.4 438.83 646.165 439.095 645.881 439.32C645.942 439.342 646.001 439.361 646.059 439.378C646.117 439.396 646.173 439.411 646.228 439.423C646.463 439.477 646.686 439.502 646.896 439.496C647.111 439.487 647.302 439.456 647.469 439.402C647.636 439.347 647.775 439.271 647.887 439.173C647.998 439.075 648.069 438.96 648.1 438.828C648.127 438.71 648.118 438.581 648.073 438.439C648.032 438.298 647.965 438.155 647.871 438.009C647.777 437.86 647.66 437.713 647.52 437.569C647.38 437.421 647.226 437.281 647.06 437.15C647.052 437.214 647.043 437.281 647.03 437.352C647.019 437.419 647.006 437.483 646.991 437.546ZM644.902 435.939C644.874 435.929 644.845 435.92 644.815 435.913C644.702 435.887 644.573 435.9 644.429 435.952C644.287 436.001 644.144 436.085 644 436.207C643.859 436.329 643.739 436.474 643.639 436.64C643.558 436.772 643.503 436.903 643.473 437.031C643.464 437.072 643.457 437.111 643.452 437.148C643.44 437.269 643.443 437.396 643.463 437.528C643.487 437.661 643.523 437.789 643.572 437.912C643.625 438.033 643.69 438.145 643.767 438.247C643.845 438.346 643.935 438.425 644.038 438.484C644.192 438.484 644.343 438.467 644.491 438.431C644.643 438.393 644.785 438.329 644.918 438.24C645.054 438.151 645.179 438.035 645.294 437.891C645.409 437.744 645.506 437.563 645.587 437.35C645.607 437.293 645.624 437.238 645.636 437.187C645.664 437.066 645.665 436.941 645.641 436.811C645.617 436.678 645.565 436.552 645.485 436.433C645.408 436.311 645.316 436.209 645.207 436.126C645.1 436.039 644.998 435.977 644.902 435.939ZM650.656 439.614C650.775 439.734 650.921 439.862 651.095 439.999C651.272 440.136 651.457 440.266 651.649 440.388C651.845 440.51 652.039 440.618 652.229 440.713C652.424 440.808 652.599 440.873 652.753 440.909C652.815 440.923 652.893 440.939 652.985 440.956C653.078 440.974 653.177 440.989 653.282 441.002C653.389 441.011 653.496 441.014 653.605 441.012C653.714 441.006 653.815 440.989 653.907 440.96C654.003 440.928 654.085 440.881 654.154 440.82C654.223 440.754 654.272 440.667 654.301 440.558C654.303 440.55 654.304 440.545 654.305 440.541C654.339 440.394 654.335 440.219 654.292 440.016C654.255 439.81 654.188 439.59 654.091 439.355C653.995 439.116 653.877 438.873 653.737 438.624C653.597 438.375 653.448 438.134 653.289 437.9C653.131 437.663 652.968 437.441 652.798 437.236C652.634 437.028 652.476 436.849 652.325 436.698L653.426 435.67C653.71 435.979 653.983 436.316 654.243 436.681C654.506 437.048 654.738 437.428 654.937 437.822C655.141 438.213 655.303 438.61 655.423 439.012C655.546 439.416 655.61 439.809 655.615 440.193C655.614 440.414 655.592 440.619 655.548 440.81C655.506 440.994 655.42 441.206 655.291 441.447C655.166 441.689 654.955 441.907 654.659 442.102C654.363 442.293 654.017 442.412 653.619 442.46C653.277 442.501 652.917 442.478 652.539 442.391C652.477 442.376 652.413 442.36 652.347 442.341C652.105 442.285 651.865 442.204 651.626 442.099C651.386 441.998 651.155 441.879 650.931 441.742C650.711 441.606 650.501 441.461 650.3 441.307C650.105 441.149 649.925 440.99 649.761 440.829L650.656 439.614ZM671.918 446.791C671.613 446.72 671.342 446.631 671.104 446.522C670.87 446.414 670.664 446.282 670.488 446.125C670.312 445.965 670.165 445.78 670.047 445.571C669.93 445.358 669.839 445.115 669.774 444.841C668.55 445.541 666.931 445.659 664.919 445.196C663.771 444.924 662.853 444.563 662.164 444.115C661.479 443.663 661.025 443.108 660.801 442.449C660.711 442.138 660.67 441.828 660.68 441.517C660.686 441.29 660.714 441.068 660.763 440.851C660.783 440.767 660.82 440.631 660.875 440.442C660.934 440.255 661.042 440.028 661.2 439.763C661.358 439.494 661.543 439.248 661.752 439.026L662.662 439.937C662.515 440.089 662.386 440.245 662.276 440.405C662.165 440.565 662.081 440.731 662.022 440.903C661.999 440.968 661.98 441.033 661.965 441.099C661.94 441.209 661.923 441.339 661.916 441.488C661.912 441.638 661.946 441.812 662.016 442.01C662.079 442.206 662.201 442.389 662.383 442.558C662.564 442.728 662.795 442.885 663.074 443.031C663.358 443.177 663.683 443.312 664.049 443.435C664.415 443.558 664.814 443.67 665.248 443.769C665.641 443.86 666.017 443.931 666.376 443.983C666.735 444.035 667.073 444.064 667.388 444.071C667.708 444.075 668.002 444.056 668.271 444.013C668.541 443.967 668.781 443.891 668.991 443.785C669.181 443.697 669.345 443.582 669.482 443.44C669.62 443.297 669.742 443.144 669.849 442.979C669.958 442.811 670.056 442.636 670.144 442.455C670.232 442.275 670.322 442.102 670.414 441.938L671.602 442.571C671.488 442.749 671.387 442.935 671.3 443.128C671.221 443.303 671.162 443.477 671.122 443.649C671.118 443.668 671.104 443.728 671.08 443.831C671.057 443.93 671.052 444.068 671.066 444.245C671.08 444.419 671.13 444.581 671.215 444.732C671.301 444.879 671.427 445.009 671.595 445.121C671.766 445.234 671.986 445.321 672.254 445.383L672.452 445.429L672.127 446.839L671.918 446.791ZM666.57 439.666L665.418 440.386L664.687 439.226L665.841 438.5L666.57 439.666ZM668.651 440.151L667.497 440.877L666.768 439.711L667.92 438.991L668.651 440.151ZM672.23 445.378L673.117 445.582C673.29 445.622 673.468 445.653 673.652 445.676C673.841 445.697 674.016 445.692 674.177 445.664C674.339 445.632 674.48 445.565 674.6 445.465C674.723 445.366 674.808 445.216 674.855 445.014C674.877 444.918 674.887 444.779 674.887 444.598C674.886 444.416 674.877 444.213 674.859 443.988C674.841 443.763 674.812 443.529 674.772 443.283C674.735 443.039 674.69 442.808 674.635 442.591L676.052 442.256C676.096 442.487 676.137 442.73 676.174 442.986C676.212 443.242 676.237 443.503 676.249 443.769C676.266 444.032 676.268 444.293 676.254 444.553C676.241 444.813 676.206 445.062 676.151 445.301C676.057 445.712 675.905 446.05 675.697 446.316C675.49 446.577 675.24 446.775 674.946 446.908C674.653 447.038 674.322 447.107 673.953 447.114C673.587 447.127 673.196 447.085 672.781 446.99L671.905 446.788L672.23 445.378ZM674.33 449.231L673.029 450.045L672.22 448.745L673.514 447.936L674.33 449.231ZM675.731 450.279C676.296 450.297 676.815 450.266 677.29 450.186C677.767 450.11 678.191 449.999 678.561 449.852C678.932 449.705 679.245 449.53 679.5 449.326C679.76 449.123 679.951 448.904 680.075 448.67C679.778 448.601 679.49 448.525 679.211 448.442C678.933 448.358 678.673 448.26 678.432 448.146C678.195 448.037 677.98 447.911 677.789 447.766C677.603 447.619 677.451 447.448 677.333 447.255C677.219 447.059 677.147 446.837 677.115 446.59C677.083 446.343 677.103 446.061 677.176 445.746C677.222 445.544 677.293 445.337 677.388 445.127C677.483 444.917 677.594 444.717 677.723 444.526C677.857 444.333 678.006 444.156 678.17 443.997C678.335 443.834 678.513 443.699 678.704 443.592C678.896 443.481 679.097 443.406 679.307 443.365C679.518 443.325 679.733 443.33 679.953 443.381C680.523 443.512 680.984 443.885 681.337 444.5C681.452 444.708 681.547 444.933 681.623 445.175C681.698 445.416 681.754 445.669 681.79 445.933C681.826 446.196 681.841 446.466 681.835 446.743C681.834 447.018 681.809 447.294 681.76 447.573L682.129 447.658L681.805 449.068L681.32 448.956C681.07 449.471 680.746 449.911 680.349 450.276C679.951 450.644 679.505 450.942 679.012 451.168C678.523 451.396 677.999 451.556 677.44 451.647C676.882 451.739 676.316 451.767 675.745 451.732L675.731 450.279ZM679.627 444.796C679.532 444.774 679.42 444.791 679.291 444.847C679.162 444.902 679.037 444.983 678.916 445.091C678.795 445.194 678.686 445.316 678.588 445.456C678.494 445.597 678.43 445.74 678.396 445.887C678.36 446.042 678.366 446.178 678.412 446.297C678.461 446.417 678.534 446.521 678.63 446.608C678.729 446.697 678.845 446.774 678.977 446.839C679.114 446.901 679.25 446.954 679.387 446.997C679.463 447.022 679.546 447.047 679.637 447.072C679.729 447.093 679.822 447.117 679.916 447.142C680.015 447.169 680.112 447.193 680.207 447.215C680.303 447.237 680.393 447.258 680.477 447.277C680.497 447.139 680.504 446.986 680.496 446.818C680.493 446.647 680.477 446.473 680.448 446.296C680.419 446.119 680.379 445.948 680.329 445.782C680.279 445.612 680.217 445.458 680.144 445.322C680.076 445.182 679.999 445.066 679.912 444.972C679.825 444.879 679.73 444.82 679.627 444.796ZM681.905 447.606L682.791 447.81C682.964 447.85 683.142 447.882 683.326 447.905C683.515 447.925 683.69 447.921 683.851 447.892C684.013 447.86 684.154 447.794 684.274 447.694C684.397 447.595 684.482 447.444 684.529 447.242C684.551 447.147 684.562 447.008 684.561 446.826C684.56 446.644 684.551 446.441 684.533 446.216C684.515 445.992 684.486 445.757 684.446 445.512C684.41 445.268 684.364 445.037 684.31 444.819L685.727 444.484C685.77 444.715 685.811 444.958 685.849 445.214C685.886 445.471 685.911 445.731 685.924 445.997C685.94 446.26 685.942 446.522 685.928 446.781C685.915 447.041 685.881 447.291 685.826 447.529C685.731 447.94 685.58 448.279 685.372 448.544C685.164 448.806 684.914 449.003 684.62 449.137C684.328 449.266 683.997 449.335 683.627 449.343C683.261 449.355 682.87 449.314 682.456 449.218L681.58 449.016L681.905 447.606ZM686.025 442.587L684.724 443.401L683.915 442.101L685.209 441.291L686.025 442.587ZM597.504 448.369C597.524 448.617 597.543 448.877 597.562 449.148C597.585 449.416 597.599 449.686 597.602 449.958C597.609 450.23 597.603 450.499 597.584 450.765C597.566 451.028 597.529 451.281 597.473 451.523C597.397 451.853 597.272 452.163 597.097 452.451C596.925 452.744 596.716 453.015 596.469 453.264C596.225 453.517 595.95 453.747 595.643 453.955C595.34 454.164 595.018 454.352 594.677 454.521C594.337 454.69 593.983 454.839 593.617 454.968C593.251 455.096 592.886 455.203 592.522 455.29L592.185 453.884C592.475 453.815 592.765 453.731 593.055 453.632C593.344 453.536 593.623 453.426 593.891 453.302C594.163 453.179 594.418 453.043 594.658 452.893C594.901 452.744 595.116 452.581 595.304 452.404C595.496 452.227 595.657 452.038 595.789 451.837C595.92 451.635 596.012 451.422 596.063 451.198C596.111 450.989 596.138 450.763 596.144 450.521C596.149 450.278 596.143 450.037 596.125 449.797C596.111 449.554 596.092 449.32 596.067 449.093C596.045 448.868 596.029 448.669 596.019 448.497L597.504 448.369ZM601.215 453.081L600.995 453.03C600.249 452.858 599.727 452.541 599.428 452.078C599.128 451.614 599.064 451.004 599.235 450.247C599.262 450.129 599.31 449.937 599.379 449.671C599.449 449.401 599.528 449.071 599.618 448.682C599.671 448.451 599.727 448.202 599.784 447.937C599.842 447.668 599.899 447.395 599.955 447.118C600.012 446.837 600.065 446.558 600.114 446.279C600.167 445.997 600.214 445.726 600.255 445.464C600.297 445.2 600.33 444.952 600.356 444.722C600.383 444.489 600.4 444.282 600.406 444.102L601.884 444.007C601.875 444.229 601.852 444.498 601.814 444.814C601.777 445.127 601.731 445.46 601.676 445.815C601.622 446.17 601.558 446.53 601.485 446.896C601.417 447.26 601.346 447.601 601.273 447.92C601.228 448.115 601.182 448.323 601.135 448.544C601.089 448.762 601.046 448.953 601.008 449.118C600.976 449.258 600.944 449.389 600.911 449.513C600.884 449.635 600.855 449.752 600.825 449.865C600.799 449.979 600.771 450.09 600.742 450.199C600.716 450.31 600.691 450.422 600.664 450.535C600.658 450.565 600.651 450.594 600.644 450.624C600.614 450.756 600.599 450.876 600.602 450.985C600.607 451.094 600.637 451.192 600.691 451.278C600.745 451.36 600.822 451.428 600.922 451.482C601.025 451.537 601.149 451.581 601.292 451.614L601.54 451.671L601.215 453.081ZM601.322 451.621L602.208 451.825C602.381 451.865 602.559 451.896 602.744 451.919C602.932 451.939 603.107 451.935 603.268 451.907C603.431 451.874 603.571 451.808 603.691 451.708C603.815 451.609 603.9 451.458 603.946 451.256C603.968 451.161 603.979 451.022 603.978 450.84C603.977 450.659 603.968 450.455 603.95 450.231C603.932 450.006 603.903 449.771 603.863 449.526C603.827 449.282 603.781 449.051 603.727 448.834L605.144 448.499C605.187 448.729 605.228 448.973 605.266 449.229C605.303 449.485 605.328 449.746 605.341 450.012C605.357 450.275 605.359 450.536 605.346 450.796C605.332 451.056 605.298 451.305 605.243 451.544C605.148 451.955 604.997 452.293 604.789 452.558C604.582 452.82 604.331 453.018 604.037 453.151C603.745 453.281 603.414 453.35 603.045 453.357C602.678 453.37 602.288 453.328 601.873 453.232L600.997 453.031L601.322 451.621ZM603.421 455.474L602.12 456.288L601.312 454.988L602.606 454.178L603.421 455.474ZM621.534 457.761C621.229 457.691 620.957 457.601 620.72 457.492C620.485 457.384 620.28 457.252 620.103 457.095C619.928 456.935 619.781 456.75 619.663 456.541C619.545 456.329 619.454 456.085 619.39 455.811C618.165 456.512 616.547 456.63 614.535 456.166C613.387 455.894 612.469 455.534 611.779 455.085C611.094 454.633 610.64 454.078 610.417 453.42C610.326 453.109 610.286 452.798 610.295 452.487C610.301 452.26 610.329 452.038 610.379 451.822C610.398 451.737 610.436 451.601 610.491 451.413C610.549 451.225 610.658 450.999 610.815 450.733C610.974 450.464 611.158 450.219 611.368 449.996L612.277 450.908C612.13 451.059 612.002 451.215 611.891 451.376C611.781 451.536 611.696 451.702 611.637 451.874C611.615 451.938 611.596 452.004 611.581 452.07C611.555 452.18 611.539 452.309 611.532 452.459C611.528 452.609 611.561 452.782 611.632 452.98C611.695 453.177 611.817 453.36 611.998 453.529C612.18 453.698 612.41 453.856 612.69 454.001C612.973 454.148 613.298 454.283 613.664 454.406C614.03 454.529 614.43 454.64 614.863 454.74C615.256 454.83 615.632 454.901 615.992 454.953C616.351 455.005 616.688 455.034 617.004 455.041C617.324 455.046 617.618 455.026 617.887 454.984C618.157 454.938 618.397 454.862 618.607 454.755C618.797 454.668 618.961 454.553 619.098 454.41C619.235 454.268 619.357 454.114 619.465 453.95C619.573 453.781 619.672 453.607 619.76 453.426C619.848 453.245 619.938 453.072 620.03 452.908L621.218 453.541C621.103 453.72 621.003 453.905 620.916 454.098C620.837 454.273 620.777 454.447 620.738 454.62C620.733 454.638 620.719 454.699 620.696 454.801C620.673 454.901 620.668 455.039 620.681 455.216C620.696 455.389 620.745 455.551 620.83 455.702C620.916 455.85 621.043 455.98 621.21 456.092C621.382 456.205 621.601 456.292 621.869 456.354L622.068 456.399L621.743 457.809L621.534 457.761ZM616.185 450.636L615.033 451.357L614.303 450.197L615.456 449.471L616.185 450.636ZM618.266 451.121L617.113 451.847L616.384 450.682L617.536 449.961L618.266 451.121ZM621.978 456.379C622.364 456.467 622.737 456.542 623.098 456.602C623.46 456.658 623.793 456.698 624.097 456.722C624.401 456.745 624.667 456.75 624.894 456.737C625.121 456.724 625.297 456.691 625.421 456.638L624.86 456.509C624.537 456.434 624.237 456.323 623.962 456.174C623.692 456.023 623.465 455.84 623.283 455.624C623.101 455.408 622.972 455.161 622.896 454.885C622.825 454.606 622.828 454.301 622.904 453.97C622.949 453.776 623.015 453.58 623.103 453.384C623.191 453.188 623.297 453.001 623.423 452.825C623.548 452.649 623.688 452.488 623.842 452.342C623.995 452.195 624.16 452.075 624.337 451.98C624.514 451.882 624.699 451.816 624.893 451.783C625.087 451.747 625.286 451.752 625.492 451.8C625.745 451.858 625.97 451.966 626.166 452.123C626.362 452.28 626.528 452.471 626.666 452.696C626.804 452.918 626.916 453.164 627 453.435C627.085 453.706 627.145 453.984 627.179 454.271C627.214 454.557 627.223 454.843 627.207 455.13C627.196 455.413 627.162 455.678 627.106 455.924C627.009 456.343 626.867 456.693 626.678 456.974C626.493 457.256 626.271 457.483 626.011 457.656C625.754 457.829 625.465 457.951 625.143 458.024C624.824 458.098 624.481 458.135 624.114 458.135C623.746 458.135 623.359 458.104 622.952 458.041C622.549 457.98 622.134 457.899 621.708 457.801L621.521 457.758L621.846 456.348L621.978 456.379ZM625.165 453.221C625.147 453.213 625.129 453.207 625.111 453.203C625.037 453.186 624.946 453.196 624.837 453.232C624.728 453.269 624.617 453.332 624.503 453.422C624.39 453.512 624.29 453.62 624.202 453.747C624.116 453.87 624.058 453.998 624.027 454.13C624.025 454.138 624.024 454.145 624.022 454.152C623.992 454.285 623.996 454.4 624.035 454.498C624.075 454.592 624.14 454.673 624.229 454.739C624.322 454.807 624.432 454.865 624.56 454.914C624.692 454.964 624.832 455.01 624.981 455.052C625.079 455.078 625.181 455.104 625.288 455.128C625.339 455.14 625.418 455.158 625.525 455.183C625.636 455.205 625.749 455.225 625.864 455.244C625.862 455.104 625.852 454.93 625.834 454.721C625.821 454.509 625.79 454.301 625.74 454.096C625.695 453.888 625.626 453.702 625.533 453.537C625.443 453.374 625.32 453.268 625.165 453.221ZM626.918 450.243L625.617 451.057L624.808 449.757L626.103 448.947L626.918 450.243ZM630.374 459.797L630.154 459.747C629.409 459.575 628.886 459.258 628.587 458.794C628.288 458.331 628.223 457.721 628.394 456.963C628.421 456.846 628.469 456.654 628.538 456.387C628.608 456.117 628.688 455.788 628.777 455.399C628.831 455.167 628.886 454.919 628.943 454.654C629.001 454.385 629.058 454.112 629.114 453.835C629.171 453.554 629.224 453.274 629.273 452.995C629.326 452.714 629.373 452.442 629.414 452.181C629.456 451.916 629.49 451.669 629.516 451.439C629.542 451.205 629.559 450.998 629.566 450.818L631.043 450.724C631.035 450.946 631.011 451.215 630.973 451.531C630.936 451.843 630.89 452.177 630.836 452.532C630.781 452.886 630.717 453.247 630.645 453.613C630.576 453.976 630.505 454.318 630.432 454.637C630.387 454.832 630.341 455.04 630.294 455.261C630.248 455.478 630.206 455.67 630.168 455.835C630.135 455.974 630.103 456.106 630.071 456.23C630.043 456.351 630.014 456.468 629.984 456.581C629.958 456.695 629.93 456.807 629.901 456.916C629.876 457.026 629.85 457.138 629.824 457.252C629.817 457.281 629.81 457.311 629.803 457.34C629.773 457.472 629.759 457.593 629.761 457.702C629.766 457.811 629.796 457.909 629.85 457.995C629.904 458.077 629.982 458.145 630.081 458.199C630.185 458.254 630.308 458.297 630.451 458.33L630.699 458.387L630.374 459.797ZM630.481 458.337L631.654 458.607C631.827 458.647 632.014 458.681 632.217 458.708C632.424 458.733 632.619 458.733 632.802 458.71C632.99 458.683 633.153 458.622 633.291 458.526C633.433 458.431 633.527 458.283 633.574 458.081C633.596 457.985 633.606 457.847 633.606 457.665C633.605 457.483 633.596 457.28 633.578 457.055C633.56 456.831 633.531 456.596 633.491 456.351C633.454 456.107 633.409 455.876 633.354 455.658L634.771 455.323C634.815 455.554 634.856 455.797 634.893 456.053C634.931 456.309 634.956 456.57 634.968 456.836C634.985 457.099 634.987 457.36 634.973 457.62C634.96 457.88 634.925 458.129 634.87 458.368C634.772 458.794 634.61 459.138 634.384 459.399C634.157 459.66 633.885 459.852 633.566 459.976C633.252 460.097 632.902 460.157 632.515 460.157C632.132 460.158 631.733 460.111 631.318 460.015L630.156 459.747L630.481 458.337ZM631.83 461.85L630.678 462.57L629.947 461.41L631.1 460.684L631.83 461.85ZM633.91 462.335L632.757 463.061L632.028 461.895L633.18 461.175L633.91 462.335ZM639.616 458.069C639.636 458.317 639.655 458.577 639.674 458.848C639.697 459.116 639.711 459.386 639.714 459.658C639.721 459.93 639.715 460.199 639.696 460.466C639.678 460.728 639.641 460.981 639.585 461.223C639.509 461.554 639.384 461.863 639.209 462.152C639.037 462.445 638.828 462.715 638.581 462.964C638.337 463.217 638.062 463.448 637.755 463.655C637.452 463.864 637.13 464.053 636.789 464.222C636.449 464.391 636.095 464.539 635.729 464.668C635.363 464.796 634.998 464.903 634.634 464.99L634.297 463.584C634.587 463.515 634.877 463.431 635.167 463.332C635.456 463.236 635.735 463.126 636.003 463.002C636.275 462.879 636.53 462.743 636.77 462.593C637.013 462.444 637.228 462.281 637.416 462.104C637.608 461.928 637.769 461.739 637.901 461.537C638.032 461.335 638.124 461.122 638.175 460.898C638.224 460.689 638.25 460.463 638.256 460.221C638.262 459.979 638.255 459.737 638.237 459.497C638.223 459.254 638.204 459.02 638.179 458.794C638.157 458.568 638.141 458.369 638.131 458.197L639.616 458.069ZM641.22 460.016C641.34 460.137 641.486 460.265 641.659 460.402C641.837 460.539 642.021 460.669 642.214 460.79C642.41 460.913 642.603 461.021 642.794 461.116C642.989 461.211 643.163 461.276 643.318 461.311C643.38 461.326 643.458 461.342 643.55 461.359C643.643 461.377 643.742 461.392 643.847 461.404C643.953 461.413 644.061 461.417 644.17 461.415C644.279 461.409 644.38 461.392 644.472 461.363C644.568 461.331 644.65 461.284 644.719 461.222C644.788 461.157 644.837 461.07 644.866 460.96C644.868 460.953 644.869 460.948 644.87 460.944C644.903 460.797 644.899 460.622 644.857 460.419C644.82 460.213 644.752 459.993 644.656 459.758C644.56 459.519 644.442 459.276 644.302 459.027C644.162 458.778 644.013 458.537 643.854 458.303C643.696 458.065 643.532 457.844 643.363 457.639C643.198 457.431 643.041 457.251 642.89 457.101L643.991 456.072C644.275 456.381 644.548 456.719 644.808 457.084C645.071 457.45 645.303 457.83 645.502 458.224C645.706 458.615 645.868 459.012 645.987 459.415C646.111 459.819 646.175 460.212 646.179 460.596C646.179 460.816 646.157 461.022 646.113 461.213C646.07 461.396 645.985 461.609 645.856 461.85C645.731 462.092 645.52 462.31 645.224 462.505C644.928 462.696 644.582 462.815 644.184 462.862C643.842 462.904 643.482 462.881 643.104 462.793C643.041 462.779 642.978 462.762 642.912 462.744C642.67 462.688 642.429 462.607 642.191 462.502C641.951 462.4 641.72 462.281 641.496 462.145C641.276 462.009 641.066 461.864 640.865 461.709C640.669 461.552 640.49 461.393 640.326 461.231L641.22 460.016Z" fill="#5D6569"/>
<circle cx="646.394" cy="345.906" r="23.6848" transform="rotate(12.4595 646.394 345.906)" fill="#FF6984"/>
<path d="M650.636 335.008L649.658 338.41" stroke="white" stroke-width="3" stroke-linecap="round" stroke-linejoin="round"/>
<path d="M645.498 352.876L644.679 355.721" stroke="white" stroke-width="3" stroke-linecap="round" stroke-linejoin="round"/>
<path d="M646.603 349.031L648.552 342.255" stroke="white" stroke-width="3" stroke-linecap="round" stroke-linejoin="round"/>
<path fill-rule="evenodd" clip-rule="evenodd" d="M657.217 351.399C653.769 350.408 655.28 345.152 658.728 346.143C660.48 340.054 661.105 337.88 648.932 334.379C636.758 330.878 636.133 333.051 634.382 339.141C637.83 340.133 636.318 345.389 632.87 344.397C631.118 350.488 630.493 352.662 642.666 356.163C654.84 359.664 655.465 357.49 657.217 351.399Z" stroke="white" stroke-width="3" stroke-linecap="round" stroke-linejoin="round"/>
<defs>
<filter id="filter0_f_212_1017" x="0.902985" y="-194.831" width="1254.1" height="1202.25" filterUnits="userSpaceOnUse" color-interpolation-filters="sRGB">
<feFlood flood-opacity="0" result="BackgroundImageFix"/>
<feBlend mode="normal" in="SourceGraphic" in2="BackgroundImageFix" result="shape"/>
<feGaussianBlur stdDeviation="250" result="effect1_foregroundBlur_212_1017"/>
</filter>
<filter id="filter1_f_212_1017" x="498.903" y="303.169" width="258.105" height="206.247" filterUnits="userSpaceOnUse" color-interpolation-filters="sRGB">
<feFlood flood-opacity="0" result="BackgroundImageFix"/>
<feBlend mode="normal" in="SourceGraphic" in2="BackgroundImageFix" result="shape"/>
<feGaussianBlur stdDeviation="1" result="effect1_foregroundBlur_212_1017"/>
</filter>
</defs>
</svg>
