<svg xmlns="http://www.w3.org/2000/svg" width="254.104" height="202.246" viewBox="0 0 254.104 202.246">
    <g id="nobat" transform="translate(-500.903 -305.169)">
        <g id="Group_1" data-name="Group 1" opacity="0.5">
            <path id="Path_1" data-name="Path 1" d="M684.41,349.434l52.555,11.612a23,23,0,0,1,17.5,27.421L732.166,489.373a23,23,0,0,1-27.421,17.5l-185.8-41.053a23,23,0,0,1-17.5-27.421l22.295-100.906a23,23,0,0,1,27.421-17.5L609.138,332.8a38.643,38.643,0,0,1,75.272,16.632Z" fill="#f5f7fb" fill-rule="evenodd"/>
        </g>
        <g id="Group_2" data-name="Group 2" opacity="0.9">
            <path id="Path_2" data-name="Path 2" d="M684.41,349.434l52.555,11.612a23,23,0,0,1,17.5,27.421L732.166,489.373a23,23,0,0,1-27.421,17.5l-185.8-41.053a23,23,0,0,1-17.5-27.421l22.295-100.906a23,23,0,0,1,27.421-17.5L609.138,332.8a38.643,38.643,0,0,1,75.272,16.632Z" fill="#f8f8f8" fill-rule="evenodd"/>
        </g>
        <path id="Path_3" data-name="Path 3" d="M603.936,401.432a7,7,0,0,1-1.257-.394,4.284,4.284,0,0,1-.985-.583,3.442,3.442,0,0,1-.722-.8,4.408,4.408,0,0,1-.485-1.069,7.921,7.921,0,0,1-3.257.874,14.828,14.828,0,0,1-4.1-.389,15.956,15.956,0,0,1-4.763-1.738,5.034,5.034,0,0,1-2.314-2.667,3.3,3.3,0,0,1-.162-1.122,5.046,5.046,0,0,1,.207-1.3,7.512,7.512,0,0,1,.6-1.409,9.537,9.537,0,0,1,1.01-1.469l1.762,1.619a7.8,7.8,0,0,0-.482.65,4.872,4.872,0,0,0-.409.72,3.873,3.873,0,0,0-.241.73,1.42,1.42,0,0,0,.02.673,1.806,1.806,0,0,0,.642.925,5.17,5.17,0,0,0,1.226.7,12.39,12.39,0,0,0,1.635.539q.9.227,1.871.44.891.2,1.7.314a13.272,13.272,0,0,0,1.514.121,7.432,7.432,0,0,0,1.3-.1,3.778,3.778,0,0,0,1.064-.344,2.873,2.873,0,0,0,.727-.507,4.633,4.633,0,0,0,.552-.644,5.591,5.591,0,0,0,.443-.757q.2-.4.4-.811l2.244,1.129-.746,1.723a1.577,1.577,0,0,0-.142.725,1.3,1.3,0,0,0,.22.654,1.924,1.924,0,0,0,.578.529,3.22,3.22,0,0,0,.938.35l.306.067-.593,2.683Zm-8.1-11.274L593.89,391.4l-1.285-2,1.992-1.278,1.257,1.969,1.949-1.243,1.285,2-1.992,1.279Zm8.654,8.583,1.146.253a5.919,5.919,0,0,0,.794.113,4.249,4.249,0,0,0,.84-.01,1.923,1.923,0,0,0,.7-.22.742.742,0,0,0,.379-.5,2.368,2.368,0,0,0,.014-.629q-.029-.435-.115-.97t-.211-1.142q-.126-.6-.263-1.144l2.694-.67q.12.588.216,1.241t.154,1.317a11.188,11.188,0,0,1,.024,1.3,6.346,6.346,0,0,1-.14,1.2,4.215,4.215,0,0,1-.726,1.674,3.3,3.3,0,0,1-1.218,1,4.157,4.157,0,0,1-1.612.365,7.6,7.6,0,0,1-1.917-.192l-1.35-.3Zm1.121,7.942-1.468-2.3,2.3-1.468,1.469,2.3Zm4.013-.458a14.788,14.788,0,0,0,2.316-.121,9.865,9.865,0,0,0,1.9-.426,5.956,5.956,0,0,0,1.439-.67,3.175,3.175,0,0,0,.921-.865q-.365-.081-.768-.188t-.666-.174a5.855,5.855,0,0,1-1.457-.66,3.811,3.811,0,0,1-1.038-.942,3.091,3.091,0,0,1-.528-1.239,3.686,3.686,0,0,1,.047-1.5,5.392,5.392,0,0,1,.345-1.037,6.524,6.524,0,0,1,.549-.992,5.725,5.725,0,0,1,.733-.862,4.5,4.5,0,0,1,.883-.651,3.111,3.111,0,0,1,.978-.354,2.618,2.618,0,0,1,1.064.021,3,3,0,0,1,1.136.5,3.66,3.66,0,0,1,.855.848,4.443,4.443,0,0,1,.6,1.12,6.7,6.7,0,0,1,.356,1.29,8.134,8.134,0,0,1,.143,1.368,9.013,9.013,0,0,1-.047,1.343l.365.08-.593,2.683-.543-.12a6.95,6.95,0,0,1-1.561,2.024,8.11,8.11,0,0,1-2.124,1.392,9.945,9.945,0,0,1-2.526.751,11.847,11.847,0,0,1-2.726.128Zm6.125-7.971a.556.556,0,0,0-.435.037,1.716,1.716,0,0,0-.519.331,2.882,2.882,0,0,0-.46.513,1.505,1.505,0,0,0-.265.591.71.71,0,0,0,.082.517,1.5,1.5,0,0,0,.389.416,2.922,2.922,0,0,0,.589.317q.344.138.686.24c.228.069.444.125.648.17l.527.117a9.4,9.4,0,0,0-.083-1.078,4.81,4.81,0,0,0-.208-.955,2.737,2.737,0,0,0-.377-.751A1.377,1.377,0,0,0,615.752,398.254Zm3.655,3.782,1.146.253a5.743,5.743,0,0,0,.794.113,4.252,4.252,0,0,0,.84-.01,1.923,1.923,0,0,0,.7-.22.742.742,0,0,0,.379-.5,2.368,2.368,0,0,0,.014-.629c-.019-.289-.058-.612-.115-.97s-.127-.743-.211-1.141-.172-.781-.264-1.145l2.7-.669q.12.586.216,1.241t.154,1.316a11.186,11.186,0,0,1,.023,1.305,6.176,6.176,0,0,1-.14,1.2,4.218,4.218,0,0,1-.726,1.675,3.3,3.3,0,0,1-1.217.995,4.156,4.156,0,0,1-1.612.365,7.6,7.6,0,0,1-1.917-.192l-1.35-.3Zm4.22-6.245-1.468-2.3,2.3-1.468,1.469,2.3Zm26.939,15.944a7.007,7.007,0,0,1-1.258-.394,4.284,4.284,0,0,1-.985-.583,3.448,3.448,0,0,1-.722-.8,4.4,4.4,0,0,1-.485-1.068,7.917,7.917,0,0,1-3.257.874,14.818,14.818,0,0,1-4.1-.389A15.963,15.963,0,0,1,635,407.636a5.034,5.034,0,0,1-2.314-2.667,3.3,3.3,0,0,1-.161-1.122,5.088,5.088,0,0,1,.206-1.3,7.516,7.516,0,0,1,.6-1.409,9.562,9.562,0,0,1,1.01-1.469l1.762,1.619a7.789,7.789,0,0,0-.482.65,4.954,4.954,0,0,0-.409.72,3.949,3.949,0,0,0-.241.73,1.42,1.42,0,0,0,.02.673,1.805,1.805,0,0,0,.642.925,5.19,5.19,0,0,0,1.226.7,12.442,12.442,0,0,0,1.635.539q.9.227,1.871.44.891.2,1.7.314a13.291,13.291,0,0,0,1.514.121,7.434,7.434,0,0,0,1.3-.1,3.784,3.784,0,0,0,1.065-.344,2.885,2.885,0,0,0,.726-.507,4.637,4.637,0,0,0,.552-.644,5.6,5.6,0,0,0,.443-.757c.137-.267.27-.537.4-.811l2.244,1.128-.745,1.724a1.578,1.578,0,0,0-.143.725,1.3,1.3,0,0,0,.221.654,1.908,1.908,0,0,0,.577.529,3.22,3.22,0,0,0,.938.35l.306.067-.593,2.683Zm-8.1-11.274-1.949,1.244-1.285-2,1.992-1.278,1.257,1.969,1.949-1.243,1.285,2-1.992,1.279Zm8.951,8.648.756.167c.3.061.62.122.957.185s.693.111,1.05.161.7.08,1.031.094a7.027,7.027,0,0,0,.929-.017,2.358,2.358,0,0,0,.724-.17,13.644,13.644,0,0,1-2.06-.393,4.6,4.6,0,0,1-1.526-.711,2.451,2.451,0,0,1-.852-1.141,3.237,3.237,0,0,1-.022-1.715,5.3,5.3,0,0,1,.306-.939,5.424,5.424,0,0,1,.5-.914,5.253,5.253,0,0,1,.676-.8,3.746,3.746,0,0,1,.812-.613,3.106,3.106,0,0,1,.936-.327,2.561,2.561,0,0,1,1.037.024,2.953,2.953,0,0,1,1.166.525,3.468,3.468,0,0,1,.848.917,4.566,4.566,0,0,1,.558,1.183,6.838,6.838,0,0,1,.292,1.339,8.074,8.074,0,0,1,.044,1.372,7.737,7.737,0,0,1-.171,1.3,5.108,5.108,0,0,1-.68,1.711,3.826,3.826,0,0,1-1.075,1.116,4.384,4.384,0,0,1-1.409.614,7.431,7.431,0,0,1-1.655.2,11.714,11.714,0,0,1-1.825-.127q-.951-.131-1.927-.346l-.306-.067.593-2.684Zm4.636-4.417a.749.749,0,0,0-.434.029,1.442,1.442,0,0,0-.444.24,2.059,2.059,0,0,0-.392.4,1.4,1.4,0,0,0-.229.511.6.6,0,0,0,.061.45,1.18,1.18,0,0,0,.351.345,2.645,2.645,0,0,0,.522.257c.205.069.405.128.6.178s.394.084.571.117.322.048.432.06a7.112,7.112,0,0,0-.033-.818,3.488,3.488,0,0,0-.148-.781,2.038,2.038,0,0,0-.323-.632A1,1,0,0,0,656.055,404.692Zm.737-3.577-1.468-2.3,2.3-1.468,1.469,2.3Zm7.147,13.575A5.1,5.1,0,0,1,662.2,414a3.218,3.218,0,0,1-1.033-1.047,3.1,3.1,0,0,1-.418-1.331,5.3,5.3,0,0,1,.124-1.531q.09-.406.24-1.006t.329-1.406q.176-.8.378-1.751T662.2,404q.177-.968.3-1.867a14.036,14.036,0,0,0,.145-1.58l2.709-.212a13.215,13.215,0,0,1-.114,1.364q-.091.773-.232,1.614t-.31,1.686q-.16.846-.311,1.57-.134.639-.322,1.336t-.339,1.332q-.158.633-.247,1.157a2.323,2.323,0,0,0-.013.825.8.8,0,0,0,.121.338.811.811,0,0,0,.238.213,1.231,1.231,0,0,0,.318.133c.123.033.259.066.406.1l.229.051-.593,2.683Zm.495-2.705,2.038.45q.365.081.814.144a4.161,4.161,0,0,0,.859.021,1.711,1.711,0,0,0,.722-.206.812.812,0,0,0,.4-.561,2.253,2.253,0,0,0,.006-.631,8.911,8.911,0,0,0-.124-.972c-.056-.362-.129-.744-.219-1.143s-.172-.781-.263-1.145l2.694-.669q.12.586.216,1.241t.154,1.316a11.215,11.215,0,0,1,.024,1.306,6.351,6.351,0,0,1-.14,1.2,3.887,3.887,0,0,1-.787,1.7,3.413,3.413,0,0,1-1.309.966,4.531,4.531,0,0,1-1.7.319,8.444,8.444,0,0,1-1.957-.21l-2.021-.446Zm2.169,5.9-1.949,1.244-1.285-2,1.992-1.278,1.257,1.969,1.949-1.243,1.285,2-1.992,1.278Zm11.972-6.491q.062.566.118,1.237t.084,1.354q.026.691-.009,1.37a7.321,7.321,0,0,1-.158,1.238,5.607,5.607,0,0,1-.564,1.505,6.83,6.83,0,0,1-.938,1.343,8.706,8.706,0,0,1-1.236,1.16,10.941,10.941,0,0,1-1.477.965,12.418,12.418,0,0,1-1.657.765,14.492,14.492,0,0,1-1.761.555l-1.071-2.49q.68-.17,1.394-.422a13.687,13.687,0,0,0,1.371-.561,11.7,11.7,0,0,0,1.274-.689,7.8,7.8,0,0,0,1.084-.794,4.788,4.788,0,0,0,.811-.889,2.653,2.653,0,0,0,.433-.955,3.3,3.3,0,0,0,.069-.8,7.874,7.874,0,0,0-.066-.95q-.063-.522-.174-1.107t-.229-1.262Zm2.311,2.879a7.874,7.874,0,0,0,.731.643c.288.224.586.438.891.642a10.045,10.045,0,0,0,.917.523,3.562,3.562,0,0,0,.8.3c.131.029.311.057.543.084a3.988,3.988,0,0,0,.707.023,1.976,1.976,0,0,0,.648-.151.606.606,0,0,0,.375-.407,1.619,1.619,0,0,0-.039-.792,4.91,4.91,0,0,0-.369-.99,8.544,8.544,0,0,0-.612-1.1q-.355-.568-.754-1.1t-.809-1.016q-.41-.482-.768-.837l2-1.9a18.089,18.089,0,0,1,1.343,1.659,14.868,14.868,0,0,1,1.16,1.842,11.373,11.373,0,0,1,.823,1.918,6.53,6.53,0,0,1,.351,1.877,3.021,3.021,0,0,1-.017.521c-.019.168-.046.328-.079.481a3.425,3.425,0,0,1-1.736,2.333,3.966,3.966,0,0,1-1.471.45,5.254,5.254,0,0,1-1.739-.108,1.066,1.066,0,0,1-.134-.039l-.136-.03a6.124,6.124,0,0,1-1.177-.394,9.529,9.529,0,0,1-1.143-.591,11.076,11.076,0,0,1-1.059-.732q-.5-.4-.918-.8Z" fill="#26292b"/>
        <path id="Path_4" data-name="Path 4" d="M569.322,423.159a4.316,4.316,0,0,1-.814-.269,2.525,2.525,0,0,1-.616-.4,2.258,2.258,0,0,1-.441-.554,2.858,2.858,0,0,1-.272-.73,6.649,6.649,0,0,1-4.856.355,8.781,8.781,0,0,1-2.755-1.082,3.238,3.238,0,0,1-1.362-1.665,2.965,2.965,0,0,1-.122-.933,3.352,3.352,0,0,1,.084-.665c.019-.084.056-.221.111-.409a3.338,3.338,0,0,1,.325-.679,4.115,4.115,0,0,1,.553-.737l.909.911a3.653,3.653,0,0,0-.386.468,2.055,2.055,0,0,0-.254.5,1.98,1.98,0,0,0-.057.2,2.346,2.346,0,0,0-.049.389,1.483,1.483,0,0,0,.1.522,1.3,1.3,0,0,0,.366.548,3.12,3.12,0,0,0,.692.473,6.979,6.979,0,0,0,.974.4q.549.184,1.2.334.59.137,1.128.214a8.4,8.4,0,0,0,1.012.088,5.209,5.209,0,0,0,.884-.058,2.54,2.54,0,0,0,.719-.228,1.627,1.627,0,0,0,.492-.345,3.192,3.192,0,0,0,.367-.461,5.056,5.056,0,0,0,.294-.524c.088-.181.178-.353.27-.518l1.189.634a4.285,4.285,0,0,0-.3.556,2.826,2.826,0,0,0-.178.522l-.042.182a1.5,1.5,0,0,0-.014.414,1.173,1.173,0,0,0,.149.487,1.209,1.209,0,0,0,.38.389,2.019,2.019,0,0,0,.659.262l.2.046-.324,1.41Zm-5.348-7.125-1.152.72-.73-1.16,1.153-.726Zm2.081.485-1.153.726-.729-1.166,1.152-.72Zm3.58,5.227.727.167a4.479,4.479,0,0,1,.254-.753,6.766,6.766,0,0,1,.43-.806,6.479,6.479,0,0,1,.554-.771,4.35,4.35,0,0,1,.651-.634,2.521,2.521,0,0,1,.693-.391,1.249,1.249,0,0,1,.7-.054l.022.005a1.092,1.092,0,0,1,.448.219,1.552,1.552,0,0,1,.361.4,2.076,2.076,0,0,1,.243.531,2.7,2.7,0,0,1,.121.608,2.76,2.76,0,0,1-.016.623c-.009.059-.021.119-.035.177a2.379,2.379,0,0,1-.136.416,3.688,3.688,0,0,1-1.989,1.914,2.854,2.854,0,0,1-.969.2,3.443,3.443,0,0,0,.1.371q.074.237.162.484t.185.478a3.752,3.752,0,0,0,.172.364,1.2,1.2,0,0,1,.025-.134,2.288,2.288,0,0,1,.217-.564,2.907,2.907,0,0,1,.4-.559,3.217,3.217,0,0,1,1.185-.812,2.615,2.615,0,0,1,.666-.171,1.93,1.93,0,0,1,.647.033l.111.025-.325,1.411-.138-.032a1.092,1.092,0,0,0-.549.018,1.83,1.83,0,0,0-.532.266,1.994,1.994,0,0,0-.436.434,1.5,1.5,0,0,0-.245.535q-.028.126-.042.234a.962.962,0,0,0,.007.222.979.979,0,0,0,.058.228,1.738,1.738,0,0,0,.117.247l-1.121.861a8.879,8.879,0,0,1-.817-.959,6.932,6.932,0,0,1-.618-.995,6.388,6.388,0,0,1-.412-1.058,6.2,6.2,0,0,1-.213-1.14l-.98-.225Zm3.994-.722c.006-.025.012-.053.019-.082a1.578,1.578,0,0,0,.037-.311,1.4,1.4,0,0,0-.036-.35,1.326,1.326,0,0,0-.121-.33.9.9,0,0,0-.2-.254.629.629,0,0,0-.306.144,2.518,2.518,0,0,0-.35.337,5.3,5.3,0,0,0-.364.473q-.176.261-.327.54a4.841,4.841,0,0,0-.257.538,2.833,2.833,0,0,0-.126.394c-.007.029-.014.059-.02.088l.011,0a1.4,1.4,0,0,0,.608,0,1.981,1.981,0,0,0,.61-.231,2.016,2.016,0,0,0,.507-.411A1.485,1.485,0,0,0,573.629,421.024Zm1.709,2.035,1.2.276a8.144,8.144,0,0,0,1.417.193,13.97,13.97,0,0,0,1.489-.017q.748-.054,1.479-.176t1.392-.276a5.251,5.251,0,0,1-.818-.479q-.367-.27-.693-.519t-.633-.447a1.991,1.991,0,0,0-.639-.275.938.938,0,0,0-.38-.012,1.436,1.436,0,0,0-.347.1,1.786,1.786,0,0,0-.313.172c-.093.068-.178.135-.255.2s-.135.124-.186.178l-.107.114-.975-1.007a4.436,4.436,0,0,1,.593-.536,3.694,3.694,0,0,1,.7-.425,2.815,2.815,0,0,1,.779-.232,2.122,2.122,0,0,1,.816.031,3.236,3.236,0,0,1,.816.31,5.964,5.964,0,0,1,.761.477q.374.266.741.559t.745.566a8.672,8.672,0,0,0,.787.489,3.627,3.627,0,0,0,.853.324l-.443,1.394q-.856.192-1.788.412t-1.928.362a16.412,16.412,0,0,1-2.047.149,10.073,10.073,0,0,1-2.142-.22l-1.2-.276Zm4.867,4.48-1.3.814-.809-1.3,1.3-.81Zm10.813,4.607a4.59,4.59,0,0,1-1.484-.608,3.463,3.463,0,0,1-1.022-1,3.324,3.324,0,0,1-.494-1.332,4.214,4.214,0,0,1,.083-1.593,6.244,6.244,0,0,1,.653-1.677,6.317,6.317,0,0,1,1.147-1.453l.9,1.038a4.2,4.2,0,0,0-.341.35,5.485,5.485,0,0,0-.419.559,6.987,6.987,0,0,0-.407.707,3.728,3.728,0,0,0-.282.8,1.987,1.987,0,0,0,0,.939,2.222,2.222,0,0,0,.4.818,2.658,2.658,0,0,0,.711.64,3.231,3.231,0,0,0,.946.4l.055.013a3.837,3.837,0,0,0,.772.1,3.169,3.169,0,0,0,.763-.063,2.955,2.955,0,0,0,.7-.222,2.467,2.467,0,0,0,.578-.372,2.16,2.16,0,0,0,.43-.5,1.909,1.909,0,0,0,.209-.532l.022-.093a2.974,2.974,0,0,0,.041-.582c0-.221-.01-.445-.03-.675s-.049-.453-.083-.674-.061-.422-.095-.6-.063-.314-.088-.421a1.3,1.3,0,0,0-.044-.161l1.46-.423a1.645,1.645,0,0,1,.046.2c.024.118.048.27.075.458s.052.4.078.644.043.49.052.755.014.527,0,.8a5.008,5.008,0,0,1-.076.76c-.015.081-.031.161-.049.238a4.648,4.648,0,0,1-.264.792,3.485,3.485,0,0,1-.495.814,3.369,3.369,0,0,1-1.734,1.16,4.262,4.262,0,0,1-1.23.175A6.139,6.139,0,0,1,591.018,432.146Zm3.12-7.2-1.3.814-.809-1.3,1.295-.81Zm6.034,5.316-.221-.05a2.408,2.408,0,0,1-1.567-.953,2.345,2.345,0,0,1-.193-1.831q.041-.176.144-.576t.24-.988q.079-.348.166-.745t.171-.819q.086-.422.158-.84c.054-.281.1-.553.142-.814s.075-.512.1-.742.043-.441.05-.621l1.478-.1q-.014.334-.07.808t-.138,1q-.082.531-.191,1.081t-.213,1.024c-.045.2-.091.4-.138.624s-.088.408-.126.574c-.032.139-.064.271-.1.395s-.057.238-.087.351-.053.226-.082.335-.052.222-.078.336c-.007.029-.013.059-.02.088a1.475,1.475,0,0,0-.043.361.616.616,0,0,0,.089.294.636.636,0,0,0,.232.2,1.532,1.532,0,0,0,.37.131l.247.057Zm.106-1.46.689.159q.27.061.557.122a5.3,5.3,0,0,0,.571.091,3.234,3.234,0,0,0,.536.014,1.438,1.438,0,0,0,.472-.106,1.02,1.02,0,0,0,.365-.276,1.156,1.156,0,0,0,.222-.488,1.955,1.955,0,0,0-.006-.854,4.585,4.585,0,0,0-.332-.976,9.655,9.655,0,0,0-.585-1.086q-.345-.567-.758-1.166l.452-1.282,4.833-.94.255,1.439-3.949.726c.133.177.262.362.388.553s.258.4.384.628a6.4,6.4,0,0,1,.449,1,5.3,5.3,0,0,1,.237.907,4.075,4.075,0,0,1,.066.8,3.117,3.117,0,0,1-.072.662,2.508,2.508,0,0,1-1.229,1.66,2.785,2.785,0,0,1-.976.309,3.035,3.035,0,0,1-1.059-.058l-1.834-.423Zm6.877-7.342-4.659.887.2-.691,4.345-.808Zm1.4,10.733a2.927,2.927,0,0,1-1.228-.608,4.457,4.457,0,0,1-.943-1.122l1.073-.954a4.04,4.04,0,0,0,.781.888,2.013,2.013,0,0,0,.785.4,2.706,2.706,0,0,0,.415.061,3.7,3.7,0,0,0,.459,0,3.265,3.265,0,0,0,.443-.061,2.148,2.148,0,0,0,.388-.119l-.781-4.646,1.431-.245c.026.176.056.365.091.566s.071.419.11.652l.615,3.651c.023.137.05.265.08.384a1.452,1.452,0,0,0,.136.315.962.962,0,0,0,.218.236.916.916,0,0,0,.328.139l.127.03-.325,1.41-.127-.029a2.946,2.946,0,0,1-.587-.194,1.907,1.907,0,0,1-.4-.238,1.707,1.707,0,0,1-.281-.291,3.774,3.774,0,0,1-.213-.333,3.3,3.3,0,0,1-.616.206,3.18,3.18,0,0,1-.627.076,3.91,3.91,0,0,1-.652-.04Q608.915,432.278,608.551,432.2Zm8.412.452-.324,1.411-.11-.026a2.274,2.274,0,0,1-.875-.381,2.086,2.086,0,0,1-.532-.587,2.514,2.514,0,0,1-1.032.25,5.137,5.137,0,0,1-1.351-.155l-.2-.047.325-1.41.2.047a2.34,2.34,0,0,0,1.333.006,1.01,1.01,0,0,0,.63-.772,2.506,2.506,0,0,0,.041-.53c0-.232-.011-.522-.032-.871l1.443-.068c.01.173.014.326.01.46s-.005.264-.016.4-.022.27-.045.419-.042.319-.072.517c-.016.12-.029.25-.038.391a1.522,1.522,0,0,0,.036.4.9.9,0,0,0,.156.332.606.606,0,0,0,.343.2Zm-.2-5.034-1.3.813-.808-1.3,1.294-.81Zm-.015,4.984.886.2a5.25,5.25,0,0,0,.536.1,1.852,1.852,0,0,0,.524-.013.925.925,0,0,0,.423-.2.784.784,0,0,0,.255-.452,1.93,1.93,0,0,0,.032-.416q0-.273-.028-.61t-.087-.7c-.036-.244-.082-.475-.136-.693l1.417-.335q.064.346.122.73t.075.783a7.063,7.063,0,0,1,.005.784,4.376,4.376,0,0,1-.1.748,2.554,2.554,0,0,1-.454,1.015,2,2,0,0,1-.752.592,2.557,2.557,0,0,1-.993.207,4.582,4.582,0,0,1-1.171-.125l-.876-.2Zm4.12-5.019-1.3.814-.809-1.3,1.295-.81Zm3.826-.894q-.105,1.085-.27,2.055t-.364,1.882q-.168.78-.326,1.439t-.3,1.232q-.141.564-.278,1.055c-.09.323-.175.627-.256.91l-1.494-.112q.535-1.791.856-3.185.129-.561.226-1.056.216-1.139.389-2.143t.29-1.94Zm2.685,5.99c.021.248.04.508.059.779s.036.538.04.809,0,.542-.018.808a4.835,4.835,0,0,1-.111.758,3.155,3.155,0,0,1-.376.928,4.094,4.094,0,0,1-.628.813,5.214,5.214,0,0,1-.826.691,8.067,8.067,0,0,1-.966.566,9.287,9.287,0,0,1-1.06.446,10.679,10.679,0,0,1-1.095.322l-.337-1.406a8.894,8.894,0,0,0,.87-.252,7.751,7.751,0,0,0,.835-.329,6.5,6.5,0,0,0,.768-.409,3.95,3.95,0,0,0,.646-.489,3.037,3.037,0,0,0,.484-.567,1.978,1.978,0,0,0,.275-.639,3.4,3.4,0,0,0,.081-.677q.007-.364-.019-.724c-.014-.243-.033-.477-.059-.7s-.037-.424-.048-.6Zm7.744,9.422a6.335,6.335,0,0,1-1.7-.64,3.8,3.8,0,0,1-1.209-1.021,2.993,2.993,0,0,1-.582-1.375,3.347,3.347,0,0,1,.059-1.315c.029-.125.064-.252.105-.382q.121-.372.267-.756t.352-.795q.206-.417.478-.87t.641-.966l1.014.785c-.237.339-.442.658-.615.954s-.318.569-.439.827a7.249,7.249,0,0,0-.292.739q-.116.351-.192.681a2.409,2.409,0,0,0-.065.733,2.583,2.583,0,0,0,.135.623,1.445,1.445,0,0,0,.437.57,2.828,2.828,0,0,0,.63.389,4.38,4.38,0,0,0,.692.246c.232.066.435.118.607.158.1.023.253.05.451.08s.423.055.663.072.494.025.754.023a3.954,3.954,0,0,0,.717-.067,1.748,1.748,0,0,0,.562-.2.553.553,0,0,0,.287-.368c.006-.026-.017-.074-.071-.144a1.978,1.978,0,0,0-.224-.237q-.143-.138-.342-.3t-.438-.315a4.913,4.913,0,0,0-.712-.361c-.24-.1-.478-.2-.714-.3l.5-1.334,4.374,1.007-.325,1.41-1.03-.237a1.514,1.514,0,0,1,.17.6,1.9,1.9,0,0,1-.024.482,1.871,1.871,0,0,1-.447.807,2.479,2.479,0,0,1-.739.538,3.483,3.483,0,0,1-.917.305,6.284,6.284,0,0,1-1,.117,6.71,6.71,0,0,1-.978-.034A6.513,6.513,0,0,1,635.12,442.1Zm5.922-3.9.1.024.325.075.267.05c.086.012.175.027.268.044s.214.034.352.058a2.482,2.482,0,0,1-.227-.853,2.936,2.936,0,0,1,.067-.872,2.843,2.843,0,0,1,.205-.585,2.543,2.543,0,0,1,.33-.527,2.5,2.5,0,0,1,.44-.426,2.229,2.229,0,0,1,.55-.3.725.725,0,0,1-.115-.079c-.046-.037-.118-.1-.218-.189l1.129-1.15a.771.771,0,0,1,.139.1c.079.061.18.142.3.244s.263.219.418.351l.493.4.509.407q.255.2.477.371l.81.616a7.767,7.767,0,0,1,.612.512,4.165,4.165,0,0,1,.461.495,3.041,3.041,0,0,1,.351.562,2.3,2.3,0,0,1,.25,1.009,2.354,2.354,0,0,1-.057.549,2.959,2.959,0,0,1-.2.546,2.218,2.218,0,0,1-.539.676,2.459,2.459,0,0,1-.916.526,1.71,1.71,0,0,1-.428.069,4.244,4.244,0,0,1-.5,0c-.172-.008-.343-.024-.511-.048s-.31-.048-.435-.077c-.154-.035-.325-.082-.512-.141s-.372-.118-.559-.193-.363-.153-.537-.239a3.061,3.061,0,0,1-.453-.273,6.786,6.786,0,0,1-1.3-.037,13.1,13.1,0,0,1-1.573-.27l-.105-.024Zm5.949-.648a3.2,3.2,0,0,1-.405.979,3,3,0,0,1-.705.8c.061.022.12.041.178.058s.114.033.169.045a2.651,2.651,0,0,0,.668.073,2.158,2.158,0,0,0,.573-.094,1.191,1.191,0,0,0,.418-.229.654.654,0,0,0,.213-.345.733.733,0,0,0-.027-.389,1.646,1.646,0,0,0-.2-.43,2.708,2.708,0,0,0-.351-.44,4.3,4.3,0,0,0-.46-.419c-.008.064-.017.131-.03.2S647.006,437.483,646.991,437.546Zm-2.089-1.607a.8.8,0,0,0-.087-.026.684.684,0,0,0-.386.039,1.352,1.352,0,0,0-.429.255,1.788,1.788,0,0,0-.361.433,1.331,1.331,0,0,0-.166.391q-.014.061-.021.117a1.524,1.524,0,0,0,.011.38,1.986,1.986,0,0,0,.109.384,1.657,1.657,0,0,0,.2.335.935.935,0,0,0,.271.237,1.909,1.909,0,0,0,.453-.053,1.353,1.353,0,0,0,.427-.191,1.615,1.615,0,0,0,.376-.349,2.064,2.064,0,0,0,.293-.541,1.613,1.613,0,0,0,.049-.163.914.914,0,0,0,.005-.376.986.986,0,0,0-.156-.378,1.154,1.154,0,0,0-.278-.307A1.184,1.184,0,0,0,644.9,435.939Zm5.754,3.675a4.83,4.83,0,0,0,.439.385q.266.205.554.389c.2.122.39.23.58.325a2.543,2.543,0,0,0,.524.2c.062.014.14.03.232.047s.192.033.3.046a3.154,3.154,0,0,0,.323.01,1.227,1.227,0,0,0,.3-.052.7.7,0,0,0,.247-.14.548.548,0,0,0,.147-.262l0-.017a1.222,1.222,0,0,0-.013-.525,3.25,3.25,0,0,0-.2-.661,6.239,6.239,0,0,0-.354-.731q-.21-.373-.448-.724a7.929,7.929,0,0,0-.491-.664,6.128,6.128,0,0,0-.473-.538l1.1-1.028a10.465,10.465,0,0,1,.817,1.011,8.67,8.67,0,0,1,.694,1.141,6.739,6.739,0,0,1,.486,1.19,4.231,4.231,0,0,1,.192,1.181,2.8,2.8,0,0,1-.067.617,2.639,2.639,0,0,1-.257.637,1.794,1.794,0,0,1-.632.655,2.423,2.423,0,0,1-1.04.358,3.132,3.132,0,0,1-1.08-.069c-.062-.015-.126-.031-.192-.05a4.075,4.075,0,0,1-.721-.242,5.183,5.183,0,0,1-.695-.357,7.651,7.651,0,0,1-.631-.435q-.293-.237-.539-.478Zm21.262,7.177a4.289,4.289,0,0,1-.814-.269,2.478,2.478,0,0,1-.616-.4,2.217,2.217,0,0,1-.441-.554,2.9,2.9,0,0,1-.273-.73,6.646,6.646,0,0,1-4.855.355,8.8,8.8,0,0,1-2.755-1.081,3.251,3.251,0,0,1-1.363-1.666,2.986,2.986,0,0,1-.121-.932,3.425,3.425,0,0,1,.083-.666c.02-.084.057-.22.112-.409a3.364,3.364,0,0,1,.325-.679,4.107,4.107,0,0,1,.552-.737l.91.911a3.651,3.651,0,0,0-.386.468,2.021,2.021,0,0,0-.254.5,1.744,1.744,0,0,0-.057.2,2.241,2.241,0,0,0-.049.389,1.48,1.48,0,0,0,.1.522,1.291,1.291,0,0,0,.367.548,3.114,3.114,0,0,0,.691.473,7.045,7.045,0,0,0,.975.4q.549.185,1.2.334.59.136,1.128.214a8.387,8.387,0,0,0,1.012.088,5.2,5.2,0,0,0,.883-.058,2.535,2.535,0,0,0,.72-.228,1.622,1.622,0,0,0,.491-.345,3.056,3.056,0,0,0,.367-.461,4.879,4.879,0,0,0,.295-.524c.088-.18.178-.353.27-.517l1.188.633a4.34,4.34,0,0,0-.3.557,2.818,2.818,0,0,0-.178.521c0,.019-.018.079-.042.182a1.424,1.424,0,0,0-.014.414,1.173,1.173,0,0,0,.149.487,1.2,1.2,0,0,0,.38.389,2.019,2.019,0,0,0,.659.262l.2.046-.325,1.41Zm-5.348-7.125-1.152.72-.731-1.16,1.154-.726Zm2.081.485-1.154.726-.729-1.166,1.152-.72Zm3.579,5.227.887.2a5.269,5.269,0,0,0,.535.094,1.86,1.86,0,0,0,.525-.012.932.932,0,0,0,.423-.2.783.783,0,0,0,.255-.451,2,2,0,0,0,.032-.416c0-.182-.01-.385-.028-.61s-.047-.459-.087-.705-.082-.475-.137-.692l1.417-.335q.066.346.122.73a7.707,7.707,0,0,1,.075.783,6.631,6.631,0,0,1,.005.784,4.281,4.281,0,0,1-.1.748,2.546,2.546,0,0,1-.454,1.015,2,2,0,0,1-.751.592,2.545,2.545,0,0,1-.993.206,4.541,4.541,0,0,1-1.172-.124l-.876-.2Zm2.1,3.853-1.3.814-.809-1.3,1.294-.809Zm1.4,1.048a7.886,7.886,0,0,0,1.559-.093,6.009,6.009,0,0,0,1.271-.334,3.638,3.638,0,0,0,.939-.526,2.084,2.084,0,0,0,.575-.656q-.445-.1-.864-.228a5.619,5.619,0,0,1-.779-.3,3.426,3.426,0,0,1-.643-.38,1.937,1.937,0,0,1-.456-.511,1.756,1.756,0,0,1-.218-.665,2.4,2.4,0,0,1,.061-.844,3.265,3.265,0,0,1,.212-.619,4.053,4.053,0,0,1,.335-.6,3.57,3.57,0,0,1,.447-.529,2.494,2.494,0,0,1,.534-.4,1.939,1.939,0,0,1,.6-.227,1.55,1.55,0,0,1,.646.016,2.149,2.149,0,0,1,1.384,1.119,3.648,3.648,0,0,1,.286.675,4.667,4.667,0,0,1,.167.758,5.144,5.144,0,0,1,.045.81,4.891,4.891,0,0,1-.075.83l.369.085-.324,1.41-.485-.112a4.356,4.356,0,0,1-.971,1.32,5.072,5.072,0,0,1-1.337.892,5.972,5.972,0,0,1-1.572.479,7.554,7.554,0,0,1-1.7.085Zm3.9-5.483a.543.543,0,0,0-.336.051,1.375,1.375,0,0,0-.375.244,1.924,1.924,0,0,0-.328.365,1.306,1.306,0,0,0-.192.431.687.687,0,0,0,.016.41.848.848,0,0,0,.218.311,1.52,1.52,0,0,0,.347.231,3.631,3.631,0,0,0,.41.158c.076.025.159.05.25.075s.185.045.279.07.2.051.291.073l.27.062a2.4,2.4,0,0,0,.019-.459,3.619,3.619,0,0,0-.048-.522,4.038,4.038,0,0,0-.119-.514,2.411,2.411,0,0,0-.185-.46,1.429,1.429,0,0,0-.232-.35A.569.569,0,0,0,679.627,444.8Zm2.278,2.81.886.2a5.277,5.277,0,0,0,.535.1,1.858,1.858,0,0,0,.525-.013.931.931,0,0,0,.423-.2.786.786,0,0,0,.255-.452,1.916,1.916,0,0,0,.032-.416q0-.273-.028-.61t-.087-.7c-.036-.244-.082-.475-.136-.693l1.417-.335q.065.346.122.73c.037.257.062.517.075.783a6.833,6.833,0,0,1,0,.784,4.269,4.269,0,0,1-.1.748,2.554,2.554,0,0,1-.454,1.015,2.017,2.017,0,0,1-.752.593,2.574,2.574,0,0,1-.993.206,4.531,4.531,0,0,1-1.171-.125l-.876-.2Zm4.12-5.019-1.3.814-.809-1.3,1.294-.81ZM597.5,448.369q.03.372.058.779c.023.268.037.538.04.81s0,.541-.018.807a4.824,4.824,0,0,1-.111.758,3.13,3.13,0,0,1-.376.928,4.094,4.094,0,0,1-.628.813,5.171,5.171,0,0,1-.826.691,7.784,7.784,0,0,1-.966.566,9.406,9.406,0,0,1-1.06.447,11.2,11.2,0,0,1-1.1.322l-.337-1.406q.435-.1.87-.252a7.98,7.98,0,0,0,.836-.33,6.484,6.484,0,0,0,.767-.409,3.95,3.95,0,0,0,.646-.489,3.045,3.045,0,0,0,.485-.567,1.975,1.975,0,0,0,.274-.639,3.4,3.4,0,0,0,.081-.677q.008-.364-.019-.724c-.014-.243-.033-.477-.058-.7s-.038-.424-.048-.6Zm3.711,4.712-.22-.051a2.4,2.4,0,0,1-1.567-.952,2.337,2.337,0,0,1-.193-1.831q.041-.177.144-.576t.239-.989c.053-.231.109-.48.166-.745s.115-.542.171-.819.11-.56.159-.839.1-.553.141-.815.075-.512.1-.742.044-.44.05-.62l1.478-.1q-.013.333-.07.807c-.037.313-.083.646-.138,1s-.118.715-.191,1.081-.139.705-.212,1.024q-.067.292-.138.624c-.046.218-.089.409-.127.574-.032.14-.064.271-.1.395s-.056.239-.086.352-.054.225-.083.334-.051.223-.078.336c-.006.03-.013.059-.02.089a1.465,1.465,0,0,0-.042.361.594.594,0,0,0,.089.293.625.625,0,0,0,.231.2,1.509,1.509,0,0,0,.37.132l.248.057Zm.107-1.46.886.2a5.256,5.256,0,0,0,.536.094,1.892,1.892,0,0,0,.524-.012.937.937,0,0,0,.423-.2.775.775,0,0,0,.255-.452,1.919,1.919,0,0,0,.032-.416c0-.181-.01-.385-.028-.609s-.047-.46-.087-.7-.082-.475-.136-.692l1.417-.335c.043.23.084.474.122.73s.062.517.075.783a7.077,7.077,0,0,1,.005.784,4.382,4.382,0,0,1-.1.748,2.549,2.549,0,0,1-.454,1.014,2,2,0,0,1-.752.593,2.536,2.536,0,0,1-.992.206,4.5,4.5,0,0,1-1.172-.125l-.876-.2Zm2.1,3.853-1.3.814-.808-1.3,1.294-.81Zm18.113,2.287a4.2,4.2,0,0,1-.814-.269,2.484,2.484,0,0,1-.617-.4,2.234,2.234,0,0,1-.44-.554,2.807,2.807,0,0,1-.273-.73,6.637,6.637,0,0,1-4.855.355,8.788,8.788,0,0,1-2.756-1.081,3.246,3.246,0,0,1-1.362-1.665,3,3,0,0,1-.122-.933,3.334,3.334,0,0,1,.084-.665c.019-.085.057-.221.112-.409a3.356,3.356,0,0,1,.324-.68,4.151,4.151,0,0,1,.553-.737l.909.912a3.6,3.6,0,0,0-.386.468,2.055,2.055,0,0,0-.254.5,1.9,1.9,0,0,0-.056.2,2.143,2.143,0,0,0-.049.389,1.453,1.453,0,0,0,.1.521,1.3,1.3,0,0,0,.366.549,3.119,3.119,0,0,0,.692.472,6.861,6.861,0,0,0,.974.4q.549.184,1.2.334.59.135,1.129.213a8.362,8.362,0,0,0,1.012.088,5.2,5.2,0,0,0,.883-.057,2.505,2.505,0,0,0,.72-.229,1.588,1.588,0,0,0,.491-.345,3.183,3.183,0,0,0,.367-.46,5.183,5.183,0,0,0,.295-.524q.132-.271.27-.518l1.188.633a4.283,4.283,0,0,0-.3.557,2.728,2.728,0,0,0-.178.522c-.005.018-.019.079-.042.181a1.463,1.463,0,0,0-.015.415,1.187,1.187,0,0,0,.149.486,1.2,1.2,0,0,0,.38.39,2.028,2.028,0,0,0,.659.262l.2.045-.325,1.41Zm-5.349-7.125-1.152.721-.73-1.16,1.153-.726Zm2.081.485-1.153.726-.729-1.165,1.152-.721Zm3.712,5.258q.579.132,1.12.223t1,.12a6.1,6.1,0,0,0,.8.015,1.626,1.626,0,0,0,.527-.1l-.561-.129a3.573,3.573,0,0,1-.9-.335,2.422,2.422,0,0,1-.679-.55,1.8,1.8,0,0,1-.379-1.654,3.19,3.19,0,0,1,.2-.586,3.228,3.228,0,0,1,.32-.559,3.286,3.286,0,0,1,.419-.483,2.243,2.243,0,0,1,.495-.362,1.745,1.745,0,0,1,.556-.2,1.447,1.447,0,0,1,.6.017,1.657,1.657,0,0,1,.674.323,2.2,2.2,0,0,1,.5.573,3.17,3.17,0,0,1,.334.739,4.586,4.586,0,0,1,.179.836,4.835,4.835,0,0,1,.028.859,4.338,4.338,0,0,1-.1.794,3.136,3.136,0,0,1-.428,1.05,2.36,2.36,0,0,1-.667.682,2.543,2.543,0,0,1-.868.368,4.546,4.546,0,0,1-1.029.111,7.6,7.6,0,0,1-1.162-.094c-.4-.061-.818-.142-1.244-.24l-.187-.043.325-1.41Zm3.187-3.158a.285.285,0,0,0-.054-.018.52.52,0,0,0-.274.029,1.134,1.134,0,0,0-.334.19,1.511,1.511,0,0,0-.3.325,1.109,1.109,0,0,0-.175.383c0,.008,0,.015-.005.022a.521.521,0,0,0,.207.587,1.414,1.414,0,0,0,.331.175c.132.05.272.1.421.138.1.026.2.052.307.076l.237.055c.111.022.224.042.339.061,0-.14-.012-.314-.03-.523a3.546,3.546,0,0,0-.094-.625,1.986,1.986,0,0,0-.207-.559A.625.625,0,0,0,625.165,453.221Zm1.753-2.978-1.3.814-.809-1.3,1.3-.81Zm3.456,9.554-.22-.05a2.4,2.4,0,0,1-1.567-.953,2.341,2.341,0,0,1-.193-1.831q.041-.176.144-.576t.239-.988q.081-.348.166-.745t.171-.819q.086-.422.159-.84c.053-.281.1-.553.141-.814s.076-.512.1-.742.043-.441.05-.621l1.477-.094c-.008.222-.032.491-.07.807s-.083.646-.137,1-.119.715-.191,1.081-.14.7-.213,1.024q-.067.293-.138.624c-.046.217-.088.409-.126.574-.033.139-.065.271-.1.4s-.057.238-.087.351-.054.226-.083.335l-.077.336-.021.088a1.521,1.521,0,0,0-.042.362.594.594,0,0,0,.089.293.633.633,0,0,0,.231.2,1.523,1.523,0,0,0,.37.131l.248.057Zm.107-1.46,1.173.27c.173.04.36.074.563.1a2.387,2.387,0,0,0,.585,0,1.121,1.121,0,0,0,.489-.184.7.7,0,0,0,.283-.445,1.99,1.99,0,0,0,.032-.416c0-.182-.01-.385-.028-.61s-.047-.459-.087-.7-.082-.475-.137-.693l1.417-.335q.066.346.122.73a7.689,7.689,0,0,1,.075.783,6.631,6.631,0,0,1,.005.784,4.282,4.282,0,0,1-.1.748,2.353,2.353,0,0,1-.486,1.031,2.055,2.055,0,0,1-.818.577,2.9,2.9,0,0,1-1.051.181,5.249,5.249,0,0,1-1.2-.142l-1.162-.268Zm1.349,3.513-1.152.72-.731-1.16,1.153-.726Zm2.08.485-1.153.726-.729-1.166,1.152-.72Zm5.706-4.266q.03.372.058.779c.023.268.037.538.04.81s0,.541-.018.808a4.829,4.829,0,0,1-.111.757,3.136,3.136,0,0,1-.376.929,4.088,4.088,0,0,1-.628.812,5.119,5.119,0,0,1-.826.691,7.786,7.786,0,0,1-.966.567,9.4,9.4,0,0,1-1.06.446,11.2,11.2,0,0,1-1.1.322l-.337-1.406q.435-.1.87-.252A7.987,7.987,0,0,0,636,463a6.48,6.48,0,0,0,.767-.409,3.948,3.948,0,0,0,.646-.489,2.981,2.981,0,0,0,.485-.567,1.975,1.975,0,0,0,.274-.639,3.328,3.328,0,0,0,.081-.677c.006-.242,0-.484-.019-.724s-.033-.477-.058-.7-.038-.425-.048-.6Zm1.6,1.947a4.951,4.951,0,0,0,.439.386c.178.137.362.267.555.388s.389.231.58.326a2.458,2.458,0,0,0,.524.2c.062.015.14.031.232.048s.192.033.3.045a3.144,3.144,0,0,0,.323.011,1.229,1.229,0,0,0,.3-.052.69.69,0,0,0,.247-.141.538.538,0,0,0,.147-.262l0-.016a1.254,1.254,0,0,0-.013-.525,3.314,3.314,0,0,0-.2-.661,6.241,6.241,0,0,0-.354-.731q-.21-.373-.448-.724a7.989,7.989,0,0,0-.491-.664,6.138,6.138,0,0,0-.473-.538l1.1-1.029a10.48,10.48,0,0,1,.817,1.012,8.592,8.592,0,0,1,.694,1.14,6.638,6.638,0,0,1,.485,1.191,4.16,4.16,0,0,1,.192,1.181,2.747,2.747,0,0,1-.066.617,2.7,2.7,0,0,1-.257.637,1.794,1.794,0,0,1-.632.655,2.409,2.409,0,0,1-1.04.357,3.084,3.084,0,0,1-1.08-.069c-.063-.014-.126-.031-.192-.049a4.051,4.051,0,0,1-.721-.242,5.427,5.427,0,0,1-.7-.357,7.423,7.423,0,0,1-.631-.436,6.932,6.932,0,0,1-.539-.478Z" fill="#5d6569"/>
        <circle id="Ellipse_1" data-name="Ellipse 1" cx="23.685" cy="23.685" r="23.685" transform="matrix(0.976, 0.216, -0.216, 0.976, 628.378, 317.67)" fill="#ff6984"/>
        <path id="Path_5" data-name="Path 5" d="M650.636,335.008l-.978,3.4" fill="none" stroke="#fff" stroke-linecap="round" stroke-linejoin="round" stroke-width="3"/>
        <path id="Path_6" data-name="Path 6" d="M645.5,352.876l-.819,2.845" fill="none" stroke="#fff" stroke-linecap="round" stroke-linejoin="round" stroke-width="3"/>
        <path id="Path_7" data-name="Path 7" d="M646.6,349.031l1.949-6.776" fill="none" stroke="#fff" stroke-linecap="round" stroke-linejoin="round" stroke-width="3"/>
        <path id="Path_8" data-name="Path 8" d="M657.217,351.4c-3.448-.991-1.937-6.247,1.511-5.256,1.752-6.089,2.377-8.263-9.8-11.764s-12.8-1.328-14.55,4.762c3.448.992,1.936,6.248-1.512,5.256-1.752,6.091-2.377,8.265,9.8,11.766S655.465,357.49,657.217,351.4Z" fill="none" stroke="#fff" stroke-linecap="round" stroke-linejoin="round" stroke-width="3" fill-rule="evenodd"/>
    </g>
</svg>
