<svg width="24" height="25" viewBox="0 0 24 25" fill="none" xmlns="http://www.w3.org/2000/svg">
    <g clip-path="url(#clip0_10_112)">
        <path d="M12.9999 1.87513C12.9999 1.60992 13.1052 1.35556 13.2928 1.16803C13.4803 0.980489 13.7347 0.875132 13.9999 0.875132C16.6511 0.878044 19.193 1.93255 21.0677 3.80728C22.9425 5.68201 23.997 8.22386 23.9999 10.8751C23.9999 11.1404 23.8945 11.3947 23.707 11.5822C23.5194 11.7698 23.2651 11.8751 22.9999 11.8751C22.7346 11.8751 22.4803 11.7698 22.2928 11.5822C22.1052 11.3947 21.9999 11.1404 21.9999 10.8751C21.9975 8.75413 21.1539 6.72068 19.6541 5.22091C18.1543 3.72113 16.1209 2.87751 13.9999 2.87513C13.7347 2.87513 13.4803 2.76978 13.2928 2.58224C13.1052 2.3947 12.9999 2.14035 12.9999 1.87513ZM13.9999 6.87513C15.0607 6.87513 16.0782 7.29656 16.8283 8.04671C17.5784 8.79685 17.9999 9.81427 17.9999 10.8751C17.9999 11.1404 18.1052 11.3947 18.2928 11.5822C18.4803 11.7698 18.7347 11.8751 18.9999 11.8751C19.2651 11.8751 19.5194 11.7698 19.707 11.5822C19.8945 11.3947 19.9999 11.1404 19.9999 10.8751C19.9983 9.28432 19.3656 7.75912 18.2408 6.63425C17.1159 5.50937 15.5907 4.87672 13.9999 4.87513C13.7347 4.87513 13.4803 4.98049 13.2928 5.16803C13.1052 5.35556 12.9999 5.60992 12.9999 5.87513C12.9999 6.14035 13.1052 6.3947 13.2928 6.58224C13.4803 6.76978 13.7347 6.87513 13.9999 6.87513ZM23.0929 17.6141C23.6724 18.1952 23.9978 18.9824 23.9978 19.8031C23.9978 20.6238 23.6724 21.411 23.0929 21.9921L22.1829 23.0411C13.9929 30.8821 -5.9371 10.9571 1.78289 2.74113L2.93289 1.74113C3.51466 1.17781 4.29482 0.866181 5.10459 0.873667C5.91436 0.881153 6.68863 1.20715 7.25989 1.78113C7.29089 1.81213 9.14388 4.21913 9.14388 4.21913C9.69371 4.79676 9.99979 5.56406 9.99848 6.36154C9.99718 7.15901 9.6886 7.92531 9.13688 8.50113L7.97888 9.95713C8.61973 11.5142 9.56195 12.9294 10.7514 14.1212C11.9408 15.3131 13.3541 16.2581 14.9099 16.9021L16.3749 15.7371C16.9508 15.1858 17.7169 14.8776 18.5142 14.8765C19.3114 14.8754 20.0784 15.1815 20.6559 15.7311C20.6559 15.7311 23.0619 17.5831 23.0929 17.6141ZM21.7169 19.0681C21.7169 19.0681 19.3239 17.2271 19.2929 17.1961C19.0869 16.9919 18.8085 16.8773 18.5184 16.8773C18.2283 16.8773 17.9499 16.9919 17.7439 17.1961C17.7169 17.2241 15.6999 18.8311 15.6999 18.8311C15.564 18.9393 15.4022 19.0102 15.2305 19.0369C15.0589 19.0635 14.8832 19.045 14.7209 18.9831C12.7053 18.2327 10.8746 17.0579 9.35272 15.5382C7.83082 14.0186 6.65329 12.1896 5.89989 10.1751C5.83309 10.0106 5.81131 9.83122 5.83679 9.65547C5.86227 9.47972 5.9341 9.31393 6.04489 9.17513C6.04489 9.17513 7.65189 7.15713 7.67888 7.13113C7.88315 6.92512 7.99776 6.64675 7.99776 6.35663C7.99776 6.06652 7.88315 5.78815 7.67888 5.58213C7.64788 5.55213 5.80689 3.15713 5.80689 3.15713C5.59779 2.96964 5.32489 2.86923 5.04414 2.87648C4.76338 2.88373 4.49603 2.9981 4.29689 3.19613L3.14689 4.19613C-2.4951 10.9801 14.7759 27.2931 20.7209 21.6751L21.6319 20.6251C21.8453 20.4274 21.9736 20.1544 21.9894 19.8638C22.0053 19.5733 21.9076 19.2879 21.7169 19.0681Z" fill="#666666"/>
    </g>
    <defs>
        <clipPath id="clip0_10_112">
            <rect width="24" height="24" fill="white" transform="translate(0 0.875)"/>
        </clipPath>
    </defs>
</svg>
