<svg width="349" height="153" viewBox="0 0 349 153" fill="none" xmlns="http://www.w3.org/2000/svg">
<g opacity="0.9" filter="url(#filter0_f_212_1030)">
<path fill-rule="evenodd" clip-rule="evenodd" d="M30.5243 2.11506C17.8366 1.49923 7.05207 11.2854 6.43624 23.973L2.11505 113C1.49922 125.688 11.2854 136.472 23.973 137.088L286.38 149.825C299.068 150.441 309.852 140.654 310.468 127.967L310.715 122.873C329.596 120.417 344.593 104.737 345.549 85.0512C346.505 65.3649 333.096 48.3065 314.542 44.0336L314.789 38.9398C315.405 26.2521 305.619 15.4676 292.931 14.8517L30.5243 2.11506Z" fill="#F8F8F8"/>
</g>
<g opacity="0.5" filter="url(#filter1_b_212_1030)">
<path fill-rule="evenodd" clip-rule="evenodd" d="M30.5243 2.11506C17.8366 1.49923 7.05207 11.2854 6.43624 23.973L2.11505 113C1.49922 125.688 11.2854 136.472 23.973 137.088L286.38 149.825C299.068 150.441 309.852 140.654 310.468 127.967L310.715 122.873C329.596 120.417 344.593 104.737 345.549 85.0512C346.505 65.3649 333.096 48.3065 314.542 44.0336L314.789 38.9398C315.405 26.2521 305.619 15.4676 292.931 14.8517L30.5243 2.11506Z" fill="#F8F8F8"/>
</g>
<path d="M329.089 84.2523C328.397 98.4944 316.292 109.479 302.05 108.788C287.807 108.097 276.822 95.991 277.514 81.749C278.205 67.5069 290.311 56.5218 304.553 57.2131C318.795 57.9044 329.78 70.0102 329.089 84.2523Z" fill="#23BDEE"/>
<path d="M194.057 50.7644C194.192 51.2387 194.333 51.7586 194.479 52.3241C194.633 52.8823 194.767 53.4547 194.882 54.0413C195.005 54.6282 195.101 55.2138 195.17 55.7982C195.241 56.375 195.263 56.9156 195.239 57.42C195.205 58.1275 195.073 58.8115 194.845 59.472C194.624 60.1403 194.321 60.782 193.937 61.3972C193.56 62.0126 193.116 62.5985 192.606 63.1547C192.097 63.7109 191.536 64.2307 190.924 64.7141C190.311 65.205 189.66 65.6525 188.968 66.0565C188.277 66.4681 187.565 66.8335 186.833 67.1526L184.916 64.1962C185.472 63.9515 186.036 63.6695 186.61 63.3503C187.176 63.0383 187.721 62.6988 188.244 62.3318C188.775 61.9652 189.269 61.578 189.726 61.1701C190.191 60.7626 190.596 60.3447 190.942 59.9163C191.294 59.4882 191.576 59.0492 191.786 58.5992C191.996 58.1567 192.112 57.7171 192.133 57.2805C192.149 56.9644 192.12 56.6197 192.048 56.2465C191.983 55.8736 191.885 55.4728 191.755 55.0439C191.625 54.6076 191.471 54.1473 191.29 53.6632C191.118 53.172 190.928 52.6497 190.721 52.0964L194.057 50.7644ZM202.575 59.4737C201.634 59.428 200.842 59.2613 200.199 58.9736C199.557 58.6934 199.039 58.3212 198.647 57.857C198.254 57.3928 197.978 56.855 197.819 56.2437C197.668 55.6252 197.61 54.9622 197.644 54.2546C197.662 53.8933 197.691 53.4458 197.732 52.912C197.774 52.3708 197.811 51.7464 197.846 51.0388C197.88 50.3313 197.914 49.5558 197.947 48.7123C197.981 47.8614 198 47.0097 198.003 46.1573C198.015 45.3052 198.005 44.4861 197.976 43.7C197.953 42.9142 197.9 42.2288 197.815 41.6437L201.241 40.7801C201.315 41.2816 201.365 41.8726 201.393 42.553C201.428 43.2262 201.446 43.9326 201.448 44.6721C201.45 45.4116 201.44 46.1543 201.419 46.9003C201.406 47.6466 201.387 48.3398 201.364 48.98C201.344 49.5449 201.304 50.139 201.243 50.7623C201.191 51.3785 201.143 51.9722 201.1 52.5436C201.058 53.1074 201.037 53.6195 201.037 54.0797C201.045 54.5404 201.099 54.8938 201.2 55.1402C201.26 55.3166 201.336 55.4524 201.43 55.5474C201.531 55.6429 201.648 55.7165 201.781 55.7682C201.914 55.82 202.06 55.8534 202.218 55.8686C202.383 55.8842 202.563 55.8967 202.759 55.9062L203.064 55.921L202.891 59.489L202.575 59.4737ZM202.617 55.8993L204.141 55.9733C204.457 55.9887 204.805 55.9791 205.184 55.9447C205.57 55.9106 205.928 55.845 206.257 55.7478C206.594 55.6435 206.877 55.4987 207.104 55.3136C207.34 55.1213 207.465 54.8784 207.479 54.5848C207.488 54.4042 207.448 54.1344 207.36 53.7755C207.272 53.4091 207.152 53.0034 207.001 52.5584C206.849 52.1058 206.676 51.6334 206.481 51.1411C206.286 50.6487 206.09 50.179 205.893 49.7318L209.2 48.2852C209.388 48.7696 209.57 49.284 209.747 49.8283C209.932 50.373 210.094 50.9241 210.233 51.4816C210.372 52.0392 210.477 52.5951 210.548 53.1493C210.627 53.6964 210.655 54.2183 210.631 54.7152C210.587 55.6184 210.399 56.3864 210.066 57.0192C209.734 57.6519 209.286 58.1659 208.724 58.5611C208.162 58.9488 207.499 59.2223 206.737 59.3814C205.975 59.5406 205.142 59.5983 204.239 59.5544L202.444 59.4673L202.617 55.8993ZM205.79 65.8318L203.405 63.2035L206.034 60.8186L208.419 63.4469L205.79 65.8318ZM218.695 64.7492C219.766 64.59 220.746 64.3697 221.635 64.0884C222.524 63.8146 223.305 63.4942 223.98 63.127C224.661 62.7677 225.227 62.3764 225.678 61.9531C226.136 61.5302 226.466 61.0936 226.669 60.6432C226.346 60.6274 226.003 60.6033 225.643 60.5707C225.282 60.5456 224.985 60.5199 224.752 60.4935C224.01 60.3971 223.34 60.2212 222.741 59.9658C222.142 59.7179 221.629 59.3913 221.204 58.9858C220.786 58.5732 220.471 58.0825 220.257 57.5138C220.043 56.9451 219.954 56.2994 219.989 55.5768C220.011 55.1176 220.083 54.6495 220.204 54.1725C220.325 53.6955 220.487 53.2318 220.69 52.7814C220.901 52.3314 221.151 51.9097 221.442 51.5164C221.74 51.1234 222.07 50.7811 222.431 50.4892C222.792 50.1974 223.184 49.975 223.607 49.822C224.037 49.6618 224.493 49.5934 224.975 49.6167C225.667 49.6504 226.292 49.8316 226.85 50.1605C227.407 50.4893 227.892 50.9165 228.304 51.442C228.724 51.9604 229.076 52.5547 229.361 53.2249C229.645 53.8876 229.865 54.5773 230.019 55.294C230.18 56.0036 230.274 56.7098 230.3 57.4128C230.334 58.1161 230.307 58.7637 230.218 59.3554C230.084 60.2317 229.845 61.0463 229.499 61.7991C229.16 62.5598 228.734 63.2521 228.221 63.8761C227.715 64.508 227.133 65.072 226.475 65.5683C225.817 66.072 225.11 66.5055 224.352 66.8686C223.595 67.2393 222.792 67.5398 221.943 67.7703C221.102 68.001 220.242 68.163 219.362 68.2561L218.695 64.7492ZM224.801 53.196C224.644 53.1582 224.461 53.2059 224.251 53.3391C224.041 53.4647 223.844 53.6437 223.659 53.8762C223.474 54.1012 223.315 54.3537 223.181 54.6339C223.054 54.9145 222.984 55.1865 222.971 55.45C222.959 55.7059 223.028 55.9243 223.177 56.1051C223.327 56.2783 223.524 56.4237 223.767 56.5411C224.011 56.6586 224.285 56.7549 224.591 56.8301C224.904 56.8981 225.215 56.9509 225.522 56.9885C225.83 57.0185 226.123 57.0403 226.402 57.0538L227.102 57.0878C227.012 56.6156 226.898 56.1612 226.761 55.7244C226.631 55.2881 226.473 54.8956 226.286 54.547C226.099 54.1984 225.883 53.905 225.638 53.6667C225.393 53.4285 225.114 53.2716 224.801 53.196ZM237.55 52.8755C237.686 53.3498 237.827 53.8697 237.973 54.4352C238.127 54.9934 238.261 55.5658 238.376 56.1524C238.498 56.7393 238.594 57.3249 238.664 57.9093C238.734 58.4861 238.757 59.0267 238.733 59.531C238.698 60.2386 238.567 60.9226 238.339 61.5831C238.118 62.2514 237.815 62.8931 237.43 63.5082C237.053 64.1237 236.61 64.7096 236.1 65.2658C235.59 65.822 235.029 66.3418 234.417 66.8252C233.805 67.3161 233.153 67.7636 232.462 68.1676C231.771 68.5792 231.059 68.9446 230.327 69.2637L228.41 66.3073C228.965 66.0626 229.53 65.7806 230.104 65.4614C230.67 65.1494 231.214 64.8099 231.738 64.4429C232.268 64.0763 232.763 63.6891 233.22 63.2812C233.685 62.8737 234.09 62.4558 234.435 62.0274C234.788 61.5993 235.07 61.1603 235.28 60.7103C235.49 60.2678 235.606 59.8282 235.627 59.3916C235.642 59.0755 235.614 58.7308 235.541 58.3576C235.477 57.9847 235.379 57.5839 235.249 57.155C235.119 56.7186 234.964 56.2584 234.784 55.7743C234.612 55.2831 234.422 54.7608 234.215 54.2075L237.55 52.8755ZM245.894 53.2805C246.03 53.7548 246.17 54.2747 246.316 54.8402C246.47 55.3984 246.605 55.9708 246.72 56.5574C246.842 57.1443 246.938 57.7299 247.008 58.3143C247.078 58.8911 247.101 59.4317 247.076 59.936C247.042 60.6436 246.911 61.3276 246.682 61.988C246.461 62.6564 246.159 63.2981 245.774 63.9132C245.397 64.5287 244.954 65.1146 244.444 65.6708C243.934 66.227 243.373 66.7468 242.761 67.2302C242.149 67.7211 241.497 68.1686 240.806 68.5726C240.114 68.9842 239.402 69.3496 238.67 69.6686L236.754 66.7123C237.309 66.4676 237.874 66.1856 238.447 65.8664C239.013 65.5543 239.558 65.2148 240.081 64.8479C240.612 64.4813 241.106 64.0941 241.564 63.6862C242.029 63.2787 242.434 62.8608 242.779 62.4324C243.132 62.0043 243.413 61.5653 243.624 61.1153C243.834 60.6727 243.95 60.2332 243.971 59.7966C243.986 59.4805 243.958 59.1358 243.885 58.7625C243.82 58.3897 243.723 57.9888 243.593 57.56C243.463 57.1236 243.308 56.6634 243.128 56.1793C242.955 55.6881 242.766 55.1658 242.559 54.6125L245.894 53.2805ZM244.081 50.9855L241.697 48.3573L244.325 45.9723L246.71 48.6006L244.081 50.9855ZM254.491 53.6977C254.627 54.1721 254.768 54.692 254.914 55.2574C255.068 55.8157 255.202 56.3881 255.317 56.9747C255.439 57.5616 255.535 58.1472 255.605 58.7316C255.675 59.3084 255.698 59.849 255.674 60.3533C255.639 61.0609 255.508 61.7449 255.28 62.4053C255.059 63.0737 254.756 63.7154 254.371 64.3305C253.994 64.946 253.551 65.5319 253.041 66.0881C252.531 66.6443 251.97 67.1641 251.358 67.6475C250.746 68.1384 250.094 68.5858 249.403 68.9899C248.712 69.4015 248 69.7669 247.268 70.0859L245.351 67.1295C245.906 66.8849 246.471 66.6029 247.045 66.2837C247.611 65.9716 248.155 65.6321 248.679 65.2652C249.209 64.8986 249.704 64.5114 250.161 64.1035C250.626 63.696 251.031 63.2781 251.376 62.8497C251.729 62.4216 252.011 61.9826 252.221 61.5325C252.431 61.09 252.547 60.6505 252.568 60.2139C252.583 59.8978 252.555 59.5531 252.482 59.1798C252.417 58.807 252.32 58.4061 252.19 57.9773C252.06 57.5409 251.905 57.0807 251.725 56.5966C251.553 56.1054 251.363 55.5831 251.156 55.0298L254.491 53.6977Z" fill="#26292B"/>
<path d="M52.1574 86.0341C52.3944 85.9934 52.6357 85.9737 52.8811 85.9752C52.9491 85.9733 53.017 85.974 53.0847 85.9772C53.2567 85.9856 53.4437 86.0077 53.6456 86.0436C53.8528 86.0798 54.0693 86.1399 54.295 86.224C54.526 86.3084 54.7455 86.4131 54.9536 86.5381L54.1512 88.3796C53.8861 88.2466 53.6086 88.1522 53.3188 88.0963C53.1945 88.0746 53.0724 88.0608 52.9525 88.055C52.7805 88.0467 52.6078 88.054 52.4343 88.0769C52.2564 88.0839 52.0636 88.1268 51.8561 88.2055C51.6486 88.2842 51.4398 88.389 51.2297 88.5199C51.0251 88.6457 50.8246 88.7953 50.6281 88.9686C50.4371 89.1369 50.2663 89.3193 50.1158 89.5157C49.9654 89.7069 49.8408 89.9072 49.7418 90.1166C49.6483 90.321 49.5968 90.5222 49.5872 90.7202C49.5763 90.9443 49.6198 91.124 49.7177 91.2593C49.8211 91.3897 49.9593 91.5009 50.1325 91.5929C50.3111 91.6799 50.5164 91.7552 50.7483 91.8187C50.9806 91.8769 51.2227 91.9462 51.4748 92.0263C51.7839 92.1144 52.0951 92.2131 52.4085 92.3224C52.7218 92.4316 53.0021 92.5758 53.2494 92.7549C53.4969 92.9289 53.6897 93.1524 53.828 93.4255C53.9469 93.6663 53.998 93.9587 53.9813 94.3027C53.979 94.3496 53.974 94.399 53.9662 94.4508C53.9084 94.9965 53.7599 95.4724 53.5208 95.8787C53.2815 96.2902 52.9798 96.6412 52.6157 96.9317C52.2516 97.2222 51.8405 97.4582 51.3825 97.6397C50.9242 97.8264 50.4471 97.9704 49.9512 98.0717C49.4553 98.173 48.9559 98.2376 48.4531 98.2654C47.9503 98.2932 47.4722 98.2961 47.0188 98.2741C46.1016 98.2296 45.2686 98.0664 44.5196 97.7846C43.7759 97.503 43.1552 97.1072 42.6576 96.5973C42.1597 96.0925 41.811 95.4749 41.6114 94.7444C41.4778 94.2678 41.4248 93.7454 41.4524 93.1774C41.4671 92.8752 41.5031 92.5635 41.5605 92.2424C41.6188 91.9005 41.6931 91.5541 41.7833 91.2033C41.8734 90.8525 41.9682 90.5149 42.0675 90.1907C42.167 89.8612 42.2683 89.5501 42.3713 89.2574C42.4744 88.9646 42.5678 88.708 42.6516 88.4874C42.7354 88.2669 42.8068 88.0875 42.8658 87.9494C42.9247 87.8112 42.9599 87.7319 42.9713 87.7116L44.6573 88.4908C44.5132 88.8755 44.3808 89.2374 44.2598 89.5762C44.1392 89.9099 44.0292 90.2389 43.9299 90.5631C43.8306 90.8874 43.7389 91.2147 43.655 91.5449C43.5765 91.8702 43.5049 92.2167 43.44 92.5844C43.4108 92.7553 43.3923 92.9216 43.3845 93.0831C43.3665 93.4531 43.419 93.824 43.542 94.1956C43.67 94.5727 43.9017 94.9104 44.2372 95.2087C44.5776 95.5125 44.9946 95.7469 45.488 95.9119C45.9815 96.0769 46.5253 96.1738 47.1193 96.2027C47.8124 96.2363 48.4587 96.2128 49.0581 96.1322C49.6624 96.0571 50.1878 95.9416 50.6341 95.7856C51.0857 95.6299 51.4472 95.4464 51.7186 95.2349C51.995 95.029 52.1545 94.8095 52.1972 94.5765C52.1943 94.5293 52.1469 94.4826 52.0551 94.4364C51.9633 94.3902 51.8481 94.3428 51.7094 94.2943C51.5705 94.251 51.4161 94.2043 51.2461 94.1542C51.0811 94.1097 50.9215 94.0627 50.7672 94.0135C50.3347 93.8828 49.9343 93.738 49.5659 93.5791C49.1973 93.4254 48.8803 93.2298 48.615 92.9923C48.3497 92.7548 48.1472 92.4603 48.0076 92.1087C47.8679 91.7572 47.8107 91.3209 47.836 90.7998C47.8899 90.2278 48.0368 89.676 48.2768 89.1444C48.5168 88.6128 48.8273 88.1342 49.2084 87.7087C49.5949 87.2783 50.0382 86.9159 50.5383 86.6215C51.0384 86.3271 51.5781 86.1313 52.1574 86.0341ZM60.3223 88.2012C60.4106 88.5345 60.5007 88.8837 60.5927 89.2486C60.6901 89.6085 60.7743 89.973 60.8452 90.3421C60.9213 90.7114 60.9791 91.0799 61.0187 91.4475C61.0586 91.8098 61.0702 92.163 61.0535 92.5069C61.0307 92.9759 60.9357 93.4284 60.7682 93.8642C60.6058 94.3056 60.3869 94.7259 60.1116 95.1252C59.8412 95.5299 59.5223 95.9115 59.1549 96.2697C58.7928 96.6282 58.4004 96.9644 57.9777 97.2782C57.555 97.592 57.1101 97.8812 56.6428 98.1458C56.1755 98.4104 55.7044 98.6461 55.2294 98.8529L54.4252 97.0196C54.8041 96.8551 55.1787 96.6696 55.5492 96.463C55.9194 96.2615 56.2721 96.0436 56.6073 95.8091C56.9478 95.5749 57.2628 95.3264 57.5524 95.0637C57.8472 94.8011 58.1008 94.5261 58.3133 94.2387C58.5309 93.9515 58.7047 93.6544 58.8345 93.3473C58.9643 93.0402 59.037 92.7277 59.0524 92.4098C59.0668 92.1127 59.0481 91.7984 58.9963 91.4668C58.9445 91.1352 58.8768 90.8081 58.7932 90.4854C58.7151 90.1577 58.6311 89.8429 58.5413 89.5408C58.4567 89.2389 58.3861 88.9717 58.3295 88.7391L60.3223 88.2012ZM61.8297 97.0107C62.6031 96.8968 63.3035 96.727 63.9308 96.5015C64.5631 96.2815 65.1135 96.0261 65.582 95.7355C66.0506 95.4448 66.4342 95.1291 66.7328 94.7884C67.0366 94.4479 67.244 94.1028 67.355 93.753C66.9329 93.7325 66.5218 93.6995 66.1218 93.654C65.7218 93.6084 65.3439 93.5379 64.9882 93.4422C64.6373 93.3521 64.3141 93.2319 64.0184 93.0818C63.7282 92.9266 63.4791 92.7317 63.2711 92.497C63.0686 92.2573 62.9152 91.9731 62.811 91.6441C62.7069 91.3152 62.6657 90.9267 62.6874 90.4785C62.7013 90.1919 62.7471 89.8938 62.8248 89.5841C62.9026 89.2745 63.0059 88.9739 63.135 88.6825C63.2695 88.386 63.4292 88.1091 63.6141 87.8517C63.7992 87.589 64.0088 87.3615 64.2427 87.1692C64.4769 86.9716 64.7324 86.8194 65.0092 86.7127C65.286 86.606 65.5808 86.5603 65.8934 86.5754C66.7012 86.6146 67.4211 87.01 68.0533 87.7615C68.2602 88.0171 68.445 88.3003 68.6075 88.6112C68.77 88.922 68.9081 89.2526 69.0217 89.6028C69.1352 89.9531 69.222 90.3177 69.282 90.6967C69.3474 91.0708 69.381 91.4537 69.3829 91.8456L69.9066 91.871L69.8095 93.8721L69.1216 93.8388C68.907 94.6014 68.5737 95.28 68.1218 95.8744C67.6696 96.4741 67.1353 96.9888 66.5189 97.4185C65.9078 97.8485 65.2328 98.1945 64.4941 98.4564C63.7553 98.7182 62.9919 98.8953 62.2039 98.9877L61.8297 97.0107ZM65.7959 88.5844C65.6604 88.5778 65.5117 88.628 65.3498 88.7351C65.1879 88.8422 65.0374 88.9837 64.8983 89.1598C64.7594 89.3307 64.6404 89.5234 64.5411 89.7379C64.4471 89.9528 64.3951 90.1644 64.385 90.3729C64.3743 90.5917 64.415 90.7765 64.5069 90.9273C64.6041 91.0782 64.7287 91.2018 64.8807 91.298C65.0379 91.3944 65.2144 91.4709 65.4102 91.5274C65.6114 91.579 65.8106 91.6174 66.0079 91.6426C66.1168 91.6583 66.2363 91.672 66.3664 91.6835C66.4966 91.6898 66.6294 91.6989 66.7646 91.7107C66.9051 91.7227 67.0431 91.732 67.1786 91.7386C67.314 91.7452 67.4417 91.7514 67.5616 91.7572C67.5553 91.5636 67.5263 91.3533 67.4747 91.1262C67.4285 90.8941 67.3641 90.6611 67.2814 90.4273C67.1987 90.1934 67.1025 89.9694 66.9928 89.7551C66.8833 89.5356 66.7621 89.3417 66.6292 89.1733C66.5018 89 66.3676 88.8602 66.2265 88.7542C66.0854 88.6481 65.9418 88.5915 65.7959 88.5844ZM75.9584 92.1648C76.3519 92.2361 76.7803 92.2882 77.2436 92.3212C77.3841 92.3332 77.5246 92.3426 77.6653 92.3495C77.9884 92.3651 78.3514 92.3671 78.7542 92.3553C79.1622 92.3438 79.5899 92.3018 80.0374 92.2295C80.4901 92.1575 80.9002 92.0494 81.2676 91.9053C81.6353 91.756 81.9422 91.5672 82.1884 91.3389C82.44 91.1056 82.5999 90.8234 82.6682 90.4924C82.6382 90.2507 82.5468 90.0347 82.3941 89.8445C82.2416 89.649 82.0536 89.4884 81.8298 89.3626C81.6116 89.2319 81.3759 89.1369 81.1228 89.0776C80.9883 89.0502 80.856 89.0333 80.7257 89.027C80.6162 89.0217 80.5064 89.0242 80.3962 89.0345C79.8916 89.0988 79.4234 89.2223 78.9914 89.4051C78.5646 89.5881 78.167 89.8169 77.7984 90.0915C77.4351 90.3664 77.1012 90.6819 76.7966 91.038C76.4923 91.3889 76.2129 91.7644 75.9584 92.1648ZM69.5876 91.8555L69.8065 91.8662C70.1869 91.8846 70.5075 91.8453 70.7681 91.7483C71.029 91.646 71.2502 91.5027 71.4315 91.3182C71.6128 91.1337 71.7618 90.9164 71.8784 90.6661C72.0002 90.416 72.1071 90.1522 72.1989 89.8746C72.2907 89.597 72.3776 89.3139 72.4595 89.0253C72.5469 88.7318 72.6494 88.4495 72.767 88.1784L74.5513 88.8683C74.4879 88.9906 74.4327 89.1055 74.3857 89.2129C74.339 89.3151 74.2999 89.4203 74.2686 89.5284C74.2372 89.6366 74.2108 89.7502 74.1893 89.8693C74.1731 89.9887 74.1614 90.1213 74.1543 90.2672C74.1498 90.361 74.1528 90.4604 74.1634 90.5654C74.1742 90.6652 74.1902 90.7652 74.2115 90.8655C74.2382 90.9608 74.2703 91.0538 74.3076 91.1444C74.3453 91.2298 74.3886 91.305 74.4377 91.3701C74.5401 91.1975 74.6618 91.0049 74.8027 90.7923C74.9438 90.5746 75.1064 90.3474 75.2902 90.1108C75.4741 89.8742 75.6764 89.6333 75.8973 89.3881C76.1236 89.1379 76.3677 88.8964 76.6298 88.6636C76.9397 88.4123 77.2616 88.185 77.5953 87.9818C77.9345 87.7737 78.2799 87.5972 78.6317 87.4523C78.9887 87.3077 79.3544 87.2001 79.7287 87.1294C80.103 87.0588 80.4803 87.0327 80.8608 87.0512C81.3454 87.0747 81.8075 87.1859 82.2471 87.3849C82.6866 87.5838 83.0656 87.8477 83.3839 88.1766C83.7075 88.5057 83.9556 88.8834 84.1281 89.3096C84.2764 89.6982 84.3401 90.1087 84.3191 90.5412C84.3168 90.5881 84.3145 90.635 84.3123 90.6819C84.2255 91.3933 83.9709 92.0104 83.5486 92.5332L85.0103 92.6041L84.9132 94.6052L82.787 94.502C82.2294 94.475 81.7768 94.4373 81.4291 94.3891C81.0865 94.3464 80.8026 94.2751 80.5776 94.1754C80.0182 94.2945 79.4611 94.3641 78.9064 94.3842C78.3567 94.4098 77.8369 94.4106 77.3471 94.3869C76.6331 94.3522 76.0326 94.2943 75.5455 94.2132C75.0585 94.1321 74.6483 94.026 74.3152 93.895C73.9872 93.7641 73.7154 93.6073 73.4996 93.4244C73.2839 93.2416 73.0904 93.0311 72.9191 92.7929C72.4912 93.2162 72.0173 93.5092 71.4975 93.672C70.9829 93.8351 70.3999 93.9008 69.7484 93.8692L69.4905 93.8567L69.5876 91.8555ZM82.5718 84.4076L80.9981 85.8356L79.5779 84.2622L81.1434 82.8417L82.5718 84.4076ZM84.7046 92.5893L86.4009 92.6716C87.047 92.703 87.7066 92.6749 88.3794 92.5874C89.0578 92.495 89.7326 92.3658 90.4041 92.1999C91.0758 92.0288 91.7332 91.8283 92.3764 91.5983C93.0196 91.3684 93.6294 91.1289 94.2056 90.8801C93.7622 90.7593 93.3516 90.6088 92.9739 90.4285C92.5963 90.243 92.2394 90.0638 91.903 89.8907C91.5667 89.7177 91.2423 89.5662 90.93 89.4361C90.6177 89.306 90.3052 89.2334 89.9925 89.2182C89.8101 89.2093 89.6365 89.2349 89.4717 89.2948C89.3123 89.3497 89.1624 89.4234 89.0221 89.5159C88.8818 89.6083 88.7541 89.7118 88.6388 89.8263C88.5288 89.9411 88.4293 90.0538 88.3403 90.1644C88.2569 90.2701 88.1869 90.3659 88.1305 90.452C88.0741 90.538 88.0346 90.5988 88.012 90.6343L86.4373 89.5001C86.6296 89.196 86.8553 88.904 87.1144 88.6241C87.3738 88.3389 87.6575 88.0889 87.9657 87.874C88.2794 87.6542 88.614 87.485 88.9698 87.3664C89.3258 87.2427 89.6992 87.1903 90.09 87.2093C90.4913 87.2287 90.8873 87.3028 91.278 87.4315C91.669 87.5549 92.0533 87.7094 92.4308 87.8949C92.8138 88.0754 93.1962 88.2689 93.5779 88.4755C93.9597 88.6821 94.3445 88.8784 94.7325 89.0643C95.1259 89.2454 95.5231 89.4031 95.924 89.5374C96.3252 89.6666 96.7393 89.7442 97.1664 89.7701L96.9043 91.7789C96.1578 92.0926 95.379 92.4257 94.5679 92.7781C93.7568 93.1305 92.9107 93.4525 92.0294 93.744C91.1484 94.0303 90.2307 94.2652 89.2763 94.4488C88.3274 94.6273 87.3366 94.702 86.3037 94.6727L84.6075 94.5904L84.7046 92.5893ZM103.704 95.5173L103.462 95.5055C103.326 95.499 103.155 95.475 102.948 95.4336C102.746 95.3925 102.527 95.2878 102.289 95.1196C102.19 95.7729 101.959 96.3911 101.596 96.9742C101.233 97.5625 100.786 98.1076 100.255 98.6094C99.7294 99.1115 99.1406 99.566 98.4888 99.9732C97.8422 100.381 97.18 100.732 96.5023 101.029L95.7144 99.1804C96.0883 99.0105 96.4656 98.8251 96.8462 98.6241C97.2216 98.423 97.5821 98.2054 97.9278 97.9715C98.2735 97.7375 98.5962 97.492 98.896 97.2349C99.2009 96.9781 99.4649 96.7062 99.6877 96.4193C99.9158 96.1326 100.097 95.8359 100.232 95.529C100.373 95.2224 100.451 94.905 100.467 94.5766C100.478 94.3421 100.457 94.0825 100.403 93.7978C100.349 93.5079 100.277 93.2067 100.188 92.8942C100.099 92.5817 100.002 92.2662 99.8969 91.9477C99.7925 91.624 99.698 91.3112 99.6134 91.0093L101.527 90.3187C101.701 90.9383 101.862 91.4528 102.009 91.8621C102.162 92.2665 102.313 92.5899 102.463 92.8323C102.619 93.0696 102.783 93.2395 102.956 93.3419C103.134 93.4394 103.337 93.4937 103.567 93.5048L103.809 93.5166L103.704 95.5173ZM110.464 93.8396L110.367 95.8407L110.21 95.8331C109.705 95.8086 109.281 95.7071 108.94 95.5286C108.599 95.3501 108.312 95.1272 108.079 94.86C107.897 95.0705 107.633 95.2275 107.289 95.3309C106.949 95.4293 106.573 95.4946 106.159 95.5268C105.744 95.5641 105.318 95.5747 104.88 95.5587C104.447 95.5481 104.048 95.534 103.683 95.5163L103.394 95.5023L103.491 93.5011L103.78 93.5152C104.39 93.5448 104.905 93.5358 105.325 93.4883C105.746 93.4356 106.087 93.3477 106.349 93.2246C106.616 93.1017 106.812 92.9415 106.936 92.7438C107.061 92.5409 107.13 92.304 107.143 92.033C107.152 91.8558 107.129 91.6196 107.076 91.3245C107.022 91.0242 106.939 90.6388 106.826 90.1685L108.775 89.7224C108.832 89.955 108.874 90.1608 108.902 90.3397C108.935 90.5137 108.958 90.6898 108.97 90.868C108.988 91.0413 109 91.2299 109.006 91.4339C109.017 91.6329 109.026 91.871 109.034 92.1482C109.041 92.3158 109.072 92.4975 109.125 92.6933C109.178 92.8839 109.256 93.0627 109.357 93.2296C109.464 93.3915 109.596 93.531 109.752 93.6483C109.909 93.7604 110.094 93.8216 110.307 93.832L110.464 93.8396ZM106.19 97.9572L104.796 99.2216L103.517 97.8196L104.91 96.5474L106.19 97.9572ZM109.144 98.1084L107.75 99.3806L106.471 97.9709L107.864 96.7065L109.144 98.1084ZM117.275 91.5767C117.098 91.3487 116.889 91.1401 116.647 90.9507C116.446 90.7895 116.21 90.6422 115.94 90.509C115.67 90.3705 115.37 90.2933 115.042 90.2773C114.776 90.2644 114.54 90.2948 114.333 90.3683C114.126 90.4366 113.948 90.5377 113.801 90.6715C113.653 90.8002 113.536 90.9538 113.449 91.1324C113.362 91.311 113.306 91.5042 113.28 91.7119C113.273 91.7481 113.269 91.7844 113.267 91.8209C113.255 92.0659 113.309 92.3087 113.428 92.5496C113.547 92.7852 113.719 92.9999 113.945 93.1937C114.171 93.3822 114.435 93.5309 114.738 93.6396C114.984 93.7299 115.235 93.7813 115.49 93.7937C115.548 93.7964 115.605 93.7966 115.663 93.7942C115.966 93.788 116.27 93.7714 116.574 93.7444C116.884 93.7124 117.165 93.6817 117.417 93.6521L118.261 93.5285L118.409 95.4867C118.082 95.5544 117.716 95.6228 117.31 95.6919C116.905 95.761 116.439 95.8194 115.915 95.8671C115.396 95.9098 114.807 95.9387 114.148 95.9537C113.489 95.9687 112.742 95.956 111.909 95.9155L110.048 95.8252L110.145 93.8241L110.489 93.8408L111.983 93.9055C111.717 93.5635 111.541 93.218 111.453 92.869C111.371 92.515 111.34 92.1296 111.36 91.7127C111.384 91.2229 111.498 90.7635 111.702 90.3346C111.905 89.9057 112.174 89.5348 112.508 89.2219C112.847 88.9093 113.24 88.6672 113.687 88.4956C114.139 88.3243 114.623 88.2512 115.139 88.2762C115.395 88.2886 115.638 88.324 115.871 88.3822C116.108 88.4408 116.332 88.5143 116.542 88.6029C116.752 88.6914 116.948 88.7897 117.131 88.8978C117.319 89.0062 117.488 89.1137 117.64 89.2203C117.817 89.349 117.988 89.4853 118.153 89.6291C118.318 89.773 118.473 89.9241 118.617 90.0826L117.275 91.5767ZM116.842 85.64L115.268 87.068L113.848 85.4947L115.414 84.0742L116.842 85.64ZM132.108 96.896C131.546 96.8635 130.976 96.8123 130.4 96.7425C129.823 96.6728 129.269 96.5728 128.738 96.4425C128.206 96.307 127.708 96.1365 127.242 95.9311C126.777 95.7205 126.377 95.4582 126.043 95.1442C125.708 94.8302 125.449 94.4572 125.266 94.0253C125.084 93.5881 125.007 93.0803 125.035 92.5018C125.049 92.2152 125.093 91.9431 125.168 91.6856C125.244 91.4228 125.337 91.1688 125.448 90.9235C125.559 90.6781 125.683 90.4413 125.82 90.2128C125.956 89.9792 126.093 89.7481 126.229 89.5197L127.624 90.8097C127.53 90.9253 127.42 91.0845 127.295 91.2874C127.176 91.4905 127.066 91.7072 126.966 91.9374C126.871 92.1678 126.803 92.3917 126.761 92.6091C126.747 92.6816 126.739 92.7517 126.735 92.8194C126.729 92.9497 126.747 93.0655 126.789 93.1668C126.892 93.4068 127.098 93.6258 127.407 93.8236C127.722 94.0165 128.116 94.1871 128.589 94.3354C129.068 94.4788 129.613 94.5967 130.225 94.6891C130.842 94.7817 131.503 94.8451 132.206 94.8792C132.597 94.8982 133.038 94.9065 133.529 94.9043C134.025 94.9022 134.536 94.8774 135.061 94.8297C135.591 94.7823 136.111 94.7084 136.623 94.6078C137.14 94.5023 137.614 94.3556 138.047 94.1676C137.999 93.8623 137.927 93.5663 137.831 93.2796C137.741 92.9932 137.634 92.7111 137.512 92.4336C137.39 92.156 137.259 91.8833 137.121 91.6154C136.982 91.3423 136.842 91.069 136.698 90.7957L138.424 89.7903C138.439 89.7911 138.482 89.8715 138.553 90.0317C138.629 90.1868 138.718 90.3923 138.821 90.648C138.929 90.9039 139.04 91.194 139.155 91.5182C139.27 91.8424 139.374 92.1688 139.468 92.4972C139.561 92.8256 139.637 93.1427 139.696 93.4485C139.754 93.7491 139.778 94.0088 139.768 94.2277C139.753 94.5351 139.661 94.8101 139.492 95.0527C139.324 95.2952 139.099 95.5115 138.818 95.7016C138.538 95.8917 138.214 96.0562 137.846 96.1951C137.479 96.3288 137.09 96.4431 136.678 96.538C136.271 96.6279 135.853 96.7016 135.421 96.7591C134.996 96.8167 134.581 96.8567 134.178 96.8789C133.774 96.9063 133.395 96.9193 133.04 96.9177C132.757 96.9197 132.502 96.9151 132.272 96.904C132.215 96.9012 132.16 96.8985 132.108 96.896ZM132.486 88.9537L131.093 90.218L129.813 88.8161L131.207 87.5439L132.486 88.9537ZM135.44 89.1049L134.047 90.3771L132.767 88.9673L134.161 87.7029L135.44 89.1049ZM144.668 92.2951C144.757 92.6285 144.847 92.9776 144.939 93.3425C145.036 93.7025 145.12 94.067 145.191 94.4361C145.267 94.8054 145.325 95.1739 145.365 95.5414C145.405 95.9038 145.416 96.2569 145.4 96.6009C145.377 97.0699 145.282 97.5223 145.114 97.9582C144.952 98.3996 144.733 98.8199 144.458 99.2192C144.187 99.6239 143.868 100.005 143.501 100.364C143.139 100.722 142.746 101.058 142.324 101.372C141.901 101.686 141.456 101.975 140.989 102.24C140.521 102.504 140.05 102.74 139.575 102.947L138.771 101.114C139.15 100.949 139.525 100.764 139.895 100.557C140.265 100.356 140.618 100.138 140.953 99.9031C141.294 99.6689 141.609 99.4204 141.898 99.1576C142.193 98.8951 142.447 98.6201 142.659 98.3327C142.877 98.0455 143.051 97.7484 143.181 97.4412C143.31 97.1341 143.383 96.8216 143.398 96.5038C143.413 96.2067 143.394 95.8924 143.342 95.5608C143.291 95.2292 143.223 94.902 143.139 94.5794C143.061 94.2517 142.977 93.9368 142.887 93.6347C142.803 93.3329 142.732 93.0657 142.676 92.8331L144.668 92.2951ZM146.176 101.105C146.949 100.991 147.649 100.821 148.277 100.596C148.909 100.375 149.459 100.12 149.928 99.8294C150.397 99.5388 150.78 99.2231 151.079 98.8824C151.383 98.5419 151.59 98.1968 151.701 97.847C151.279 97.8265 150.868 97.7935 150.468 97.7479C150.068 97.7024 149.69 97.6318 149.334 97.5362C148.983 97.4461 148.66 97.3259 148.364 97.1757C148.074 97.0206 147.825 96.8257 147.617 96.591C147.415 96.3513 147.261 96.067 147.157 95.7381C147.053 95.4092 147.012 95.0207 147.033 94.5725C147.047 94.2859 147.093 93.9877 147.171 93.6781C147.249 93.3685 147.352 93.0679 147.481 92.7764C147.616 92.48 147.775 92.2031 147.96 91.9456C148.145 91.683 148.355 91.4555 148.589 91.2631C148.823 91.0656 149.078 90.9134 149.355 90.8067C149.632 90.7 149.927 90.6542 150.239 90.6694C151.047 90.7086 151.767 91.104 152.399 91.8555C152.606 92.1111 152.791 92.3943 152.954 92.7051C153.116 93.016 153.254 93.3465 153.368 93.6968C153.481 94.0471 153.568 94.4117 153.628 94.7907C153.693 95.1648 153.727 95.5477 153.729 95.9396L154.253 95.965L154.156 97.9661L153.468 97.9327C153.253 98.6954 152.92 99.3739 152.468 99.9684C152.016 100.568 151.481 101.083 150.865 101.512C150.254 101.943 149.579 102.288 148.84 102.55C148.101 102.812 147.338 102.989 146.55 103.082L146.176 101.105ZM150.142 92.6784C150.006 92.6718 149.858 92.722 149.696 92.8291C149.534 92.9361 149.383 93.0777 149.244 93.2538C149.105 93.4246 148.986 93.6174 148.887 93.8319C148.793 94.0468 148.741 94.2584 148.731 94.4668C148.72 94.6857 148.761 94.8705 148.853 95.0212C148.95 95.1722 149.075 95.2958 149.227 95.392C149.384 95.4884 149.56 95.5649 149.756 95.6214C149.957 95.6729 150.157 95.7113 150.354 95.7366C150.463 95.7523 150.582 95.7659 150.712 95.7775C150.843 95.7838 150.975 95.7929 151.111 95.8047C151.251 95.8167 151.389 95.826 151.525 95.8326C151.66 95.8392 151.788 95.8454 151.908 95.8512C151.901 95.6576 151.872 95.4472 151.821 95.2201C151.775 94.988 151.71 94.7551 151.627 94.5212C151.545 94.2874 151.449 94.0633 151.339 93.8491C151.229 93.6296 151.108 93.4357 150.975 93.2673C150.848 93.0939 150.714 92.9542 150.572 92.8481C150.431 92.742 150.288 92.6854 150.142 92.6784ZM160.304 96.2587C160.698 96.3301 161.126 96.3822 161.59 96.4151C161.73 96.4272 161.871 96.4366 162.011 96.4434C162.334 96.4591 162.697 96.4611 163.1 96.4493C163.508 96.4377 163.936 96.3958 164.383 96.3235C164.836 96.2515 165.246 96.1434 165.614 95.9993C165.981 95.85 166.288 95.6612 166.534 95.4328C166.786 95.1995 166.946 94.9174 167.014 94.5864C166.984 94.3447 166.893 94.1287 166.74 93.9384C166.588 93.743 166.4 93.5824 166.176 93.4566C165.958 93.3259 165.722 93.2309 165.469 93.1716C165.334 93.1441 165.202 93.1273 165.072 93.1209C164.962 93.1156 164.852 93.1181 164.742 93.1285C164.238 93.1928 163.769 93.3163 163.337 93.499C162.911 93.6821 162.513 93.9109 162.144 94.1855C161.781 94.4604 161.447 94.7759 161.143 95.132C160.838 95.4828 160.559 95.8584 160.304 96.2587ZM153.934 95.9495L154.153 95.9601C154.533 95.9786 154.853 95.9393 155.114 95.8423C155.375 95.74 155.596 95.5967 155.778 95.4122C155.959 95.2277 156.108 95.0103 156.224 94.76C156.346 94.51 156.453 94.2462 156.545 93.9686C156.637 93.6909 156.724 93.4079 156.806 93.1193C156.893 92.8258 156.995 92.5435 157.113 92.2724L158.897 92.9623C158.834 93.0846 158.779 93.1994 158.732 93.3068C158.685 93.409 158.646 93.5142 158.615 93.6224C158.583 93.7306 158.557 93.8442 158.535 93.9633C158.519 94.0827 158.507 94.2153 158.5 94.3612C158.496 94.455 158.499 94.5544 158.509 94.6594C158.52 94.7592 158.536 94.8592 158.558 94.9595C158.584 95.0548 158.616 95.1478 158.654 95.2384C158.691 95.3238 158.735 95.399 158.784 95.4641C158.886 95.2914 159.008 95.0989 159.149 94.8863C159.29 94.6685 159.452 94.4414 159.636 94.2048C159.82 93.9682 160.022 93.7273 160.243 93.4821C160.47 93.2319 160.714 92.9904 160.976 92.7576C161.286 92.5062 161.608 92.279 161.941 92.0758C162.28 91.8676 162.626 91.6911 162.978 91.5463C163.335 91.4017 163.7 91.2941 164.075 91.2234C164.449 91.1528 164.826 91.1267 165.207 91.1452C165.691 91.1687 166.154 91.2799 166.593 91.4789C167.033 91.6778 167.412 91.9417 167.73 92.2706C168.054 92.5997 168.302 92.9774 168.474 93.4036C168.622 93.7921 168.686 94.2027 168.665 94.6352C168.663 94.6821 168.661 94.729 168.658 94.7759C168.572 95.4873 168.317 96.1044 167.895 96.6271L169.356 96.6981L169.259 98.6992L167.133 98.596C166.575 98.5689 166.123 98.5313 165.775 98.4831C165.432 98.4403 165.149 98.3691 164.924 98.2694C164.364 98.3885 163.807 98.4581 163.252 98.4782C162.703 98.5037 162.183 98.5046 161.693 98.4808C160.979 98.4462 160.379 98.3883 159.892 98.3072C159.404 98.2261 158.994 98.12 158.661 97.9889C158.333 97.8581 158.061 97.7012 157.846 97.5184C157.63 97.3356 157.436 97.1251 157.265 96.8869C156.837 97.3101 156.363 97.6032 155.843 97.766C155.329 97.929 154.746 97.9948 154.094 97.9632L153.837 97.9506L153.934 95.9495ZM169.051 96.6833L170.309 96.7443C170.554 96.7562 170.805 96.7553 171.061 96.7417C171.324 96.7231 171.561 96.6745 171.774 96.596C171.987 96.5124 172.163 96.3877 172.301 96.222C172.445 96.0566 172.524 95.8306 172.538 95.544C172.544 95.4085 172.525 95.2169 172.479 94.9692C172.434 94.7215 172.372 94.4468 172.292 94.1453C172.213 93.8437 172.116 93.5308 172.001 93.2065C171.891 92.8826 171.773 92.5791 171.645 92.2961L173.494 91.4926C173.61 91.796 173.725 92.1176 173.839 92.4574C173.953 92.7972 174.051 93.1468 174.133 93.5059C174.221 93.8601 174.287 94.2159 174.332 94.5733C174.377 94.9307 174.392 95.2788 174.375 95.6175C174.347 96.2012 174.224 96.6993 174.005 97.1118C173.787 97.5191 173.494 97.8496 173.127 98.1034C172.759 98.352 172.325 98.5268 171.824 98.6278C171.328 98.7343 170.785 98.7733 170.196 98.7447L168.953 98.6844L169.051 96.6833ZM172.856 101.42L171.282 102.848L169.862 101.275L171.427 99.8544L172.856 101.42ZM184.734 94.2399C184.823 94.5732 184.913 94.9224 185.005 95.2873C185.102 95.6472 185.186 96.0117 185.257 96.3808C185.333 96.7501 185.391 97.1186 185.431 97.4862C185.471 97.8485 185.482 98.2017 185.466 98.5456C185.443 99.0146 185.348 99.4671 185.18 99.9029C185.018 100.344 184.799 100.765 184.524 101.164C184.253 101.569 183.934 101.95 183.567 102.308C183.205 102.667 182.813 103.003 182.39 103.317C181.967 103.631 181.522 103.92 181.055 104.184C180.588 104.449 180.116 104.685 179.642 104.892L178.837 103.058C179.216 102.894 179.591 102.708 179.961 102.502C180.331 102.3 180.684 102.082 181.019 101.848C181.36 101.614 181.675 101.365 181.965 101.102C182.259 100.84 182.513 100.565 182.725 100.277C182.943 99.9902 183.117 99.6931 183.247 99.386C183.376 99.0789 183.449 98.7664 183.465 98.4485C183.479 98.1514 183.46 97.8371 183.408 97.5055C183.357 97.1739 183.289 96.8468 183.205 96.5241C183.127 96.1964 183.043 95.8816 182.953 95.5795C182.869 95.2776 182.798 95.0104 182.742 94.7778L184.734 94.2399ZM190.946 99.7519L190.634 99.7367C189.576 99.6853 188.786 99.3806 188.265 98.8225C187.743 98.2644 187.506 97.4485 187.553 96.3747C187.561 96.2079 187.58 95.9346 187.609 95.5547C187.638 95.1695 187.666 94.7008 187.692 94.1484C187.708 93.8201 187.723 93.4682 187.736 93.0927C187.749 92.7121 187.76 92.326 187.769 91.9347C187.777 91.5381 187.781 91.1439 187.779 90.7521C187.783 90.3553 187.78 89.9738 187.772 89.6078C187.764 89.2365 187.749 88.891 187.728 88.5714C187.707 88.2465 187.679 87.9605 187.644 87.7133L189.635 87.2222C189.678 87.5273 189.712 87.8998 189.737 88.3398C189.763 88.7746 189.782 89.2405 189.795 89.7373C189.807 90.2341 189.809 90.7409 189.799 91.2576C189.795 91.7693 189.783 92.2518 189.761 92.7052C189.747 92.9814 189.735 93.276 189.725 93.5889C189.716 93.8966 189.705 94.1677 189.694 94.4022C189.684 94.6003 189.672 94.7877 189.659 94.9647C189.65 95.1366 189.64 95.3033 189.627 95.4646C189.619 95.6261 189.608 95.7849 189.596 95.941C189.588 96.0974 189.58 96.2563 189.572 96.4179C189.57 96.4595 189.568 96.5012 189.566 96.5429C189.557 96.7305 189.567 96.8982 189.597 97.0459C189.631 97.1938 189.696 97.3197 189.79 97.4235C189.885 97.5221 190.006 97.5959 190.155 97.645C190.31 97.6942 190.489 97.7238 190.692 97.7337L191.043 97.7507L190.946 99.7519ZM190.734 97.7357L191.993 97.7968C192.238 97.8087 192.488 97.8078 192.745 97.7941C193.007 97.7755 193.244 97.727 193.457 97.6485C193.67 97.5648 193.846 97.4402 193.985 97.2745C194.128 97.1091 194.207 96.8831 194.221 96.5965C194.228 96.461 194.208 96.2694 194.163 96.0217C194.117 95.774 194.055 95.4993 193.976 95.1977C193.896 94.8961 193.799 94.5832 193.684 94.259C193.575 93.9351 193.456 93.6316 193.329 93.3485L195.178 92.5451C195.294 92.8484 195.409 93.17 195.523 93.5099C195.637 93.8497 195.735 94.1992 195.817 94.5584C195.904 94.9126 195.97 95.2684 196.016 95.6258C196.061 95.9832 196.075 96.3313 196.059 96.67C196.031 97.2537 195.907 97.7518 195.689 98.1643C195.47 98.5715 195.178 98.9021 194.81 99.1559C194.443 99.4044 194.009 99.5792 193.507 99.6803C193.011 99.7868 192.469 99.8258 191.88 99.7972L190.637 99.7368L190.734 97.7357ZM194.539 102.473L192.966 103.901L191.545 102.327L193.111 100.907L194.539 102.473ZM219.783 101.152C219.35 101.131 218.958 101.075 218.608 100.985C218.262 100.895 217.95 100.765 217.671 100.595C217.392 100.419 217.146 100.203 216.934 99.9477C216.722 99.6866 216.539 99.3774 216.384 99.0199C214.886 100.274 212.71 100.832 209.854 100.693C208.223 100.604 206.883 100.337 205.834 99.8947C204.79 99.447 204.035 98.8018 203.57 97.9591C203.37 97.5577 203.238 97.1438 203.175 96.7177C203.128 96.4072 203.111 96.0982 203.126 95.7907C203.132 95.6709 203.149 95.4758 203.178 95.2056C203.212 94.9356 203.304 94.6006 203.454 94.2004C203.605 93.7951 203.795 93.4152 204.027 93.0607L205.489 94.0798C205.326 94.3226 205.189 94.5667 205.078 94.812C204.967 95.0574 204.892 95.3045 204.854 95.5533C204.839 95.6466 204.829 95.7402 204.824 95.834C204.817 95.9903 204.826 96.171 204.853 96.376C204.885 96.5813 204.973 96.8102 205.117 97.0627C205.251 97.3147 205.463 97.5339 205.752 97.7203C206.04 97.9067 206.393 98.0648 206.81 98.1948C207.232 98.3249 207.707 98.429 208.236 98.5069C208.765 98.5848 209.337 98.6387 209.952 98.6685C210.51 98.6956 211.04 98.7004 211.542 98.683C212.044 98.6656 212.511 98.623 212.943 98.5551C213.38 98.4823 213.777 98.384 214.133 98.2603C214.489 98.1313 214.797 97.9687 215.057 97.7724C215.295 97.6063 215.49 97.4094 215.642 97.1818C215.794 96.9541 215.924 96.7149 216.03 96.4641C216.136 96.208 216.227 95.9461 216.303 95.6781C216.379 95.4102 216.459 95.1529 216.544 94.9063L218.318 95.4782C218.206 95.7496 218.114 96.0272 218.043 96.311C217.978 96.5691 217.94 96.8206 217.928 97.0655C217.927 97.0915 217.923 97.1775 217.916 97.3234C217.909 97.4642 217.936 97.6535 217.998 97.8916C218.059 98.1244 218.167 98.3333 218.32 98.5184C218.473 98.6982 218.677 98.8439 218.933 98.9556C219.194 99.0675 219.515 99.1327 219.895 99.1511L220.177 99.1648L220.08 101.166L219.783 101.152ZM210.749 92.7524L209.355 94.0167L208.076 92.6148L209.469 91.3426L210.749 92.7524ZM213.703 92.9036L212.309 94.1758L211.03 92.766L212.423 91.5016L213.703 92.9036ZM220.049 99.1586C220.597 99.1852 221.124 99.1951 221.631 99.1884C222.138 99.1764 222.602 99.1493 223.022 99.107C223.442 99.0647 223.805 99.0066 224.111 98.9327C224.418 98.8588 224.649 98.7707 224.806 98.6686L224.008 98.6299C223.55 98.6077 223.115 98.5291 222.704 98.3942C222.298 98.2544 221.944 98.0596 221.643 97.8099C221.342 97.5603 221.106 97.2563 220.935 96.898C220.77 96.5348 220.698 96.1187 220.721 95.6497C220.735 95.3735 220.777 95.0909 220.849 94.8018C220.92 94.5128 221.02 94.2329 221.148 93.9623C221.276 93.6917 221.427 93.4378 221.6 93.2007C221.774 92.9636 221.969 92.7589 222.186 92.5867C222.404 92.4092 222.64 92.2744 222.895 92.1823C223.151 92.085 223.424 92.0435 223.716 92.0576C224.076 92.0751 224.408 92.1669 224.714 92.3333C225.019 92.4996 225.293 92.7192 225.536 92.9921C225.779 93.2599 225.991 93.5679 226.173 93.9163C226.354 94.2646 226.504 94.6297 226.621 95.0115C226.738 95.3933 226.821 95.7812 226.87 96.1753C226.924 96.5645 226.943 96.9337 226.926 97.2828C226.897 97.8769 226.789 98.3888 226.601 98.8184C226.418 99.2483 226.17 99.6124 225.858 99.9107C225.551 100.209 225.187 100.447 224.766 100.626C224.35 100.804 223.891 100.938 223.391 101.029C222.89 101.12 222.355 101.172 221.785 101.186C221.22 101.2 220.635 101.193 220.031 101.164L219.765 101.151L219.862 99.1495L220.049 99.1586ZM223.618 94.0744C223.593 94.0679 223.567 94.064 223.541 94.0628C223.436 94.0577 223.315 94.0936 223.175 94.1704C223.035 94.2472 222.899 94.3607 222.767 94.511C222.634 94.6613 222.524 94.8335 222.436 95.0277C222.349 95.2168 222.3 95.4051 222.291 95.5927C222.291 95.6031 222.29 95.6135 222.29 95.6239C222.28 95.8115 222.315 95.9673 222.392 96.0912C222.47 96.2099 222.578 96.3039 222.715 96.3733C222.858 96.4429 223.023 96.4953 223.209 96.5305C223.401 96.5659 223.603 96.594 223.816 96.6148C223.957 96.6268 224.103 96.6365 224.254 96.6438C224.327 96.6474 224.439 96.6528 224.59 96.6602C224.746 96.6625 224.906 96.6624 225.068 96.6599C225.03 96.47 224.974 96.2348 224.898 95.9543C224.829 95.6688 224.735 95.3927 224.617 95.1258C224.505 94.8539 224.365 94.6173 224.197 94.4159C224.035 94.2147 223.842 94.1009 223.618 94.0744ZM225.278 89.5869L223.704 91.0149L222.284 89.4416L223.85 88.0211L225.278 89.5869ZM232.329 101.761L232.017 101.745C230.959 101.694 230.169 101.389 229.648 100.831C229.126 100.273 228.889 99.4571 228.936 98.3833C228.944 98.2166 228.963 97.9432 228.991 97.5633C229.021 97.1782 229.049 96.7094 229.075 96.157C229.091 95.8287 229.106 95.4768 229.119 95.1014C229.132 94.7207 229.143 94.3347 229.151 93.9433C229.16 93.5468 229.164 93.1526 229.162 92.7607C229.165 92.3639 229.163 91.9825 229.155 91.6164C229.147 91.2451 229.132 90.8997 229.111 90.58C229.09 90.2552 229.062 89.9691 229.027 89.7219L231.018 89.2309C231.06 89.5359 231.095 89.9084 231.12 90.3485C231.146 90.7833 231.165 91.2491 231.178 91.7459C231.19 92.2428 231.192 92.7495 231.182 93.2662C231.178 93.7779 231.165 94.2605 231.143 94.7139C231.13 94.9901 231.118 95.2846 231.108 95.5975C231.099 95.9053 231.088 96.1764 231.077 96.4109C231.067 96.6089 231.055 96.7964 231.042 96.9733C231.033 97.1453 231.023 97.3119 231.01 97.4732C231.002 97.6348 230.991 97.7936 230.979 97.9497C230.971 98.106 230.963 98.2649 230.955 98.4265C230.953 98.4682 230.951 98.5099 230.949 98.5516C230.94 98.7392 230.95 98.9068 230.98 99.0545C231.014 99.2024 231.079 99.3283 231.173 99.4321C231.267 99.5307 231.389 99.6046 231.538 99.6536C231.693 99.7029 231.871 99.7324 232.075 99.7423L232.426 99.7594L232.329 101.761ZM232.117 99.7444L233.782 99.8252C234.027 99.8371 234.291 99.8368 234.573 99.8244C234.862 99.8071 235.128 99.7599 235.372 99.6829C235.621 99.601 235.828 99.4779 235.993 99.3135C236.163 99.1494 236.255 98.924 236.269 98.6374C236.275 98.5019 236.256 98.3103 236.21 98.0626C236.165 97.8149 236.102 97.5402 236.023 97.2386C235.944 96.937 235.847 96.6241 235.732 96.2999C235.622 95.9759 235.504 95.6725 235.376 95.3894L237.225 94.5859C237.341 94.8893 237.456 95.2109 237.57 95.5508C237.684 95.8906 237.782 96.2401 237.864 96.5993C237.951 96.9535 238.018 97.3093 238.063 97.6667C238.108 98.0241 238.123 98.3722 238.106 98.7109C238.077 99.3154 237.94 99.8233 237.695 100.235C237.451 100.646 237.127 100.975 236.723 101.222C236.325 101.463 235.862 101.632 235.335 101.726C234.813 101.821 234.258 101.854 233.669 101.826L232.02 101.745L232.117 99.7444ZM234.815 104.2L233.422 105.465L232.142 104.063L233.536 102.791L234.815 104.2ZM237.77 104.352L236.376 105.624L235.097 104.214L236.49 102.95L237.77 104.352ZM244.5 97.1408C244.588 97.4741 244.678 97.8233 244.77 98.1882C244.868 98.5481 244.952 98.9126 245.023 99.2817C245.099 99.651 245.157 100.019 245.196 100.387C245.236 100.749 245.248 101.103 245.231 101.446C245.208 101.916 245.113 102.368 244.946 102.804C244.783 103.245 244.565 103.665 244.289 104.065C244.019 104.47 243.7 104.851 243.333 105.209C242.97 105.568 242.578 105.904 242.155 106.218C241.733 106.532 241.288 106.821 240.82 107.085C240.353 107.35 239.882 107.586 239.407 107.792L238.603 105.959C238.982 105.795 239.356 105.609 239.727 105.403C240.097 105.201 240.45 104.983 240.785 104.749C241.125 104.515 241.44 104.266 241.73 104.003C242.025 103.741 242.279 103.466 242.491 103.178C242.709 102.891 242.882 102.594 243.012 102.287C243.142 101.98 243.215 101.667 243.23 101.349C243.245 101.052 243.226 100.738 243.174 100.406C243.122 100.075 243.054 99.7477 242.971 99.425C242.893 99.0973 242.809 98.7824 242.719 98.4803C242.634 98.1785 242.564 97.9113 242.507 97.6787L244.5 97.1408ZM247.164 99.4013C247.356 99.5359 247.587 99.6751 247.856 99.8188C248.131 99.9628 248.415 100.094 248.707 100.213C249.004 100.332 249.294 100.432 249.578 100.514C249.866 100.595 250.12 100.642 250.339 100.652C250.428 100.657 250.537 100.659 250.668 100.66C250.798 100.662 250.937 100.658 251.083 100.649C251.23 100.636 251.378 100.614 251.525 100.585C251.673 100.55 251.806 100.502 251.924 100.439C252.048 100.372 252.148 100.288 252.226 100.188C252.305 100.082 252.35 99.9507 252.363 99.7947C252.363 99.7842 252.364 99.7764 252.364 99.7712C252.374 99.5628 252.326 99.3253 252.218 99.059C252.117 98.7876 251.971 98.5037 251.782 98.2072C251.593 97.9055 251.372 97.6023 251.121 97.2976C250.869 96.9929 250.606 96.7006 250.333 96.421C250.059 96.1361 249.782 95.8745 249.501 95.6362C249.226 95.393 248.967 95.1872 248.724 95.0187L249.973 93.3477C250.436 93.6993 250.89 94.0922 251.334 94.5264C251.783 94.9608 252.191 95.4221 252.559 95.91C252.933 96.3931 253.251 96.8943 253.513 97.4137C253.78 97.9333 253.964 98.4542 254.064 98.9761C254.117 99.2765 254.137 99.5621 254.124 99.8331C254.111 100.094 254.047 100.404 253.93 100.764C253.818 101.124 253.585 101.473 253.229 101.811C252.873 102.144 252.43 102.391 251.9 102.554C251.444 102.694 250.947 102.75 250.411 102.724C250.322 102.72 250.231 102.713 250.138 102.703C249.794 102.687 249.446 102.636 249.095 102.551C248.744 102.471 248.399 102.365 248.06 102.234C247.727 102.103 247.405 101.957 247.094 101.796C246.789 101.629 246.505 101.456 246.242 101.276L247.164 99.4013Z" fill="#5D6569"/>
<path d="M292.547 76.2397L303.667 84.0742L315.917 78.3689" stroke="white" stroke-width="3" stroke-linecap="round" stroke-linejoin="round"/>
<path d="M302.591 96.1063L303.668 84.061" stroke="white" stroke-width="3" stroke-linecap="round" stroke-linejoin="round"/>
<path d="M302.113 70.4552L294.669 73.7655C292.982 74.5117 291.468 76.6252 291.304 78.4579L290.634 85.9614C290.47 87.7941 291.585 90.1427 293.112 91.1761L299.852 95.7543C301.291 96.7263 303.774 96.9483 305.363 96.247L312.807 92.9366C314.494 92.1905 316.008 90.0769 316.172 88.2442L316.842 80.7408C317.006 78.9081 315.891 76.5595 314.364 75.526L307.624 70.9478C306.173 69.9613 303.703 69.7405 302.113 70.4552Z" stroke="white" stroke-width="3" stroke-linecap="round" stroke-linejoin="round"/>
<path d="M310.225 85.5842L310.659 80.7236L298.707 72.3193" stroke="white" stroke-width="2" stroke-linecap="round" stroke-linejoin="round"/>
<defs>
<filter id="filter0_f_212_1030" x="0.0875244" y="0.0874023" width="347.51" height="151.765" filterUnits="userSpaceOnUse" color-interpolation-filters="sRGB">
<feFlood flood-opacity="0" result="BackgroundImageFix"/>
<feBlend mode="normal" in="SourceGraphic" in2="BackgroundImageFix" result="shape"/>
<feGaussianBlur stdDeviation="1" result="effect1_foregroundBlur_212_1030"/>
</filter>
<filter id="filter1_b_212_1030" x="-497.912" y="-497.913" width="1343.51" height="1147.76" filterUnits="userSpaceOnUse" color-interpolation-filters="sRGB">
<feFlood flood-opacity="0" result="BackgroundImageFix"/>
<feGaussianBlur in="BackgroundImageFix" stdDeviation="250"/>
<feComposite in2="SourceAlpha" operator="in" result="effect1_backgroundBlur_212_1030"/>
<feBlend mode="normal" in="SourceGraphic" in2="effect1_backgroundBlur_212_1030" result="shape"/>
</filter>
</defs>
</svg>
